<?xml version="1.0" standalone="no"?>
<!DOCTYPE svg PUBLIC "-//W3C//DTD SVG 1.1//EN" "http://www.w3.org/Graphics/SVG/1.1/DTD/svg11.dtd" >
<svg xmlns="http://www.w3.org/2000/svg" xmlns:xlink="http://www.w3.org/1999/xlink" version="1.1">
<metadata>
Created by FontForge 20170731 at Sat Jul 13 00:37:35 2019
 By Aleksey,,,
This typeface is licensed under the SIL open font license.
</metadata>
<defs>
<font id="Jost-ThinItalic" horiz-adv-x="533" >
  <font-face 
    font-family="Jost* 200 Thin"
    font-weight="200"
    font-style="italic"
    font-stretch="normal"
    units-per-em="1000"
    panose-1="0 0 0 0 0 0 0 0 0 0"
    ascent="800"
    descent="-200"
    x-height="460"
    cap-height="700"
    bbox="-179 -332 1384.95 1012"
    underline-thickness="50"
    underline-position="-175"
    slope="-10"
    unicode-range="U+0020-FF19"
  />
<missing-glyph horiz-adv-x="500" 
d="M50 -200h400v1000h-400v-1000zM100 -150v900h300v-900h-300z" />
    <glyph glyph-name=".notdef" horiz-adv-x="500" 
d="M50 -200h400v1000h-400v-1000zM100 -150v900h300v-900h-300z" />
    <glyph glyph-name=".null" horiz-adv-x="0" 
 />
    <glyph glyph-name="nonmarkingreturn" horiz-adv-x="333" 
 />
    <glyph glyph-name="space" unicode=" " horiz-adv-x="300" 
 />
    <glyph glyph-name="exclam" unicode="!" horiz-adv-x="265" 
d="M205 700h41l-95 -500h-22zM83 13q0 11 7 17.5t17 6.5t17.5 -6.5t7.5 -17.5q0 -10 -7.5 -17.5t-17.5 -7.5t-17 7.5t-7 17.5z" />
    <glyph glyph-name="quotedbl" unicode="&#x22;" horiz-adv-x="409" 
d="M223 700h39l-110 -285l-22 -1zM398 700h39l-111 -285l-21 -1z" />
    <glyph glyph-name="numbersign" unicode="#" horiz-adv-x="563" 
d="M46 228l4 27h109l79 195h-116l5 27h122l91 223h31l-91 -223h172l92 223h31l-91 -223h101l-5 -27h-107l-80 -195h115l-4 -27h-122l-93 -228h-31l93 228h-172l-94 -228h-30l93 228h-102zM189 255h174l78 195h-172z" />
    <glyph glyph-name="dollar" unicode="$" horiz-adv-x="562" 
d="M486 538q-7 34 -23 65.5t-44 52t-73 20.5q-41 1 -76.5 -16t-59 -47t-29.5 -68q-7 -45 14 -76.5t56.5 -53t73.5 -38.5q40 -17 74 -44t52.5 -64.5t11.5 -89.5q-7 -51 -33.5 -92.5t-70 -67t-103.5 -27.5l-17 -104h-29l18 105q-53 5 -88 34t-55.5 72.5t-29.5 90.5l31 16
q9 -44 27 -86t50.5 -68.5t85.5 -27.5q78 -1 124 43t56 110q7 46 -11.5 79.5t-51 57t-69.5 39.5q-38 17 -75.5 42.5t-59.5 62.5t-15 89q6 44 33.5 79.5t68 57t86.5 24.5l18 110h29l-18 -111q46 -3 77 -26.5t49 -57.5t25 -70z" />
    <glyph glyph-name="percent" unicode="%" horiz-adv-x="694" 
d="M101 557q7 41 30.5 76t60.5 56t81 21q45 0 74.5 -22t42 -57t6.5 -75q-6 -41 -30 -75.5t-60.5 -55.5t-81.5 -21q-44 0 -74 21.5t-42.5 56.5t-6.5 75zM645 699h32l-562 -699h-31zM130 557q-5 -31 4 -60t32.5 -47.5t59.5 -19.5q37 0 66.5 18t49.5 47t25 62q5 32 -4.5 60.5
t-32.5 47t-59 18.5q-36 1 -66 -17t-49.5 -47t-25.5 -62zM365 144q7 41 30.5 75.5t60.5 55.5t81 21q45 0 74 -21.5t41.5 -56.5t6.5 -75q-6 -41 -30 -76t-60.5 -56t-81.5 -21q-44 0 -73.5 22t-42 57t-6.5 75zM393 143q-5 -31 4 -60t32.5 -47t59.5 -19q37 0 67 17.5t50 46.5
t25 62q5 32 -4.5 60.5t-32.5 47t-59 18.5q-36 1 -66.5 -17t-50 -47t-25.5 -62z" />
    <glyph glyph-name="ampersand" unicode="&#x26;" horiz-adv-x="655" 
d="M237 414q-22 33 -40.5 70t-12.5 86q6 40 30 72t61 50.5t83 17.5q44 0 73.5 -21t42.5 -53t7 -68q-10 -57 -58.5 -99t-110.5 -78q-7 -4 -16 -8l170 -244q41 41 78 87.5t73 88.5l23 -16q-37 -43 -76 -91.5t-82 -91.5l81 -116h-36l-67 95q-49 -46 -106.5 -75.5t-126.5 -29.5
q-55 1 -98 24t-65 64.5t-15 97.5q8 59 41 99t77.5 67t86.5 48zM262 432l19 -28q6 3 11 6q57 32 102.5 70t54.5 88q5 28 -4 54t-31 43t-58 17q-56 1 -93.5 -32t-45.5 -80q-6 -42 9.5 -74.5t35.5 -63.5zM231 20q62 -1 114.5 27t98.5 71l-175 250q-40 -20 -80 -44.5
t-69.5 -59.5t-37.5 -86q-7 -47 11 -82.5t54 -55.5t84 -20z" />
    <glyph glyph-name="quotesingle" unicode="'" horiz-adv-x="234" 
d="M223 700h39l-110 -285l-22 -1z" />
    <glyph glyph-name="parenleft" unicode="(" horiz-adv-x="252" 
d="M302 779h26q-69 -114 -114.5 -236.5t-65.5 -252.5q-18 -123 -11.5 -246t40.5 -244h-26q-40 119 -47.5 243t10.5 247q20 131 67 255t121 234z" />
    <glyph glyph-name="parenright" unicode=")" horiz-adv-x="252" 
d="M7 -199h-26q138 229 179 489q18 123 12.5 246t-40.5 244h25q40 -118 47.5 -242.5t-10.5 -247.5q-20 -130 -66.5 -254.5t-120.5 -234.5z" />
    <glyph glyph-name="asterisk" unicode="*" horiz-adv-x="574" 
d="M231 365l-22 18l123 131l-148 47l13 28l144 -56l25 167h29l-34 -166l163 55l3 -29l-164 -46l77 -133l-26 -17l-68 137z" />
    <glyph glyph-name="plus" unicode="+" horiz-adv-x="552" 
d="M77 239l5 32h194l37 215h33l-37 -215h194l-6 -32h-194l-37 -215h-32l37 215h-194z" />
    <glyph glyph-name="comma" unicode="," horiz-adv-x="276" 
d="M152 98l30 -13l-151 -248l-21 8z" />
    <glyph glyph-name="hyphen" unicode="-" horiz-adv-x="203" 
d="M20 245l4 30h195l-5 -30h-194z" />
    <glyph glyph-name="period" unicode="." horiz-adv-x="263" 
d="M83 13q0 11 7 17.5t17 6.5t17 -6.5t7 -17.5q0 -10 -7 -17t-17 -7t-17 7t-7 17z" />
    <glyph glyph-name="slash" unicode="/" horiz-adv-x="471" 
d="M518 700l34 -1l-558 -849l-33 1z" />
    <glyph glyph-name="zero" unicode="0" horiz-adv-x="547" 
d="M81 350q9 65 32.5 129t59.5 116.5t85 83.5t109 31q61 0 97 -34t53.5 -88t20 -116.5t-4.5 -121.5q-9 -65 -32.5 -129t-59.5 -116.5t-85 -83.5t-109 -31q-61 0 -97 34t-53.5 88t-20 117t4.5 121zM115 350q-6 -51 -5.5 -107.5t13 -106.5t43 -82t83.5 -32t95.5 29t74 77.5
t52 106.5t28.5 115q6 51 5.5 107.5t-13.5 106.5t-43.5 82t-83.5 32t-95.5 -29t-74 -77.5t-51.5 -106.5t-28 -115z" />
    <glyph glyph-name="one" unicode="1" horiz-adv-x="408" 
d="M167 626l6 35l201 46l-121 -707h-33l114 665z" />
    <glyph glyph-name="two" unicode="2" horiz-adv-x="514" 
d="M5 0l366 340q39 37 72.5 78.5t41.5 96.5q7 39 -5.5 76.5t-44.5 62.5t-84 25q-58 1 -101.5 -30t-71 -81t-38.5 -108h-32q12 67 43.5 124t82.5 92t119 34q62 0 101 -29.5t55 -74t9 -90.5q-9 -59 -44 -106.5t-78 -87.5l-316 -290l384 -1l-5 -31h-454z" />
    <glyph glyph-name="three" unicode="3" horiz-adv-x="531" 
d="M254 -10q-63 0 -105 26.5t-61.5 70.5t-14.5 98h32q-6 -69 32 -116t119 -47q51 0 93 20.5t70 56.5t35 82q8 55 -17.5 91t-69 55t-89.5 22l3 22h1l1 9q46 3 90 20.5t76 49.5t40 79q6 38 -7 72t-42.5 56t-75.5 22q-47 1 -84 -20t-61 -56t-34 -77l-31 1q11 52 39 93t72 65.5
t101 24.5q55 0 92 -26t54 -67t10 -87t-34 -79.5t-67 -55.5t-86 -31q46 -10 83 -33.5t57 -61.5t12 -91q-8 -55 -41 -97.5t-83 -66.5t-109 -24z" />
    <glyph glyph-name="four" unicode="4" horiz-adv-x="544" 
d="M20 141l468 558l12 1l-92 -530h107l-5 -30h-107l-24 -140h-33l25 140zM80 170h296l77 446z" />
    <glyph glyph-name="five" unicode="5" horiz-adv-x="542" 
d="M504 230q-9 -71 -46 -125.5t-92.5 -84.5t-122.5 -30q-79 0 -125 41t-68 106l29 18q19 -58 59.5 -95.5t107.5 -37.5q58 0 106 27t79.5 74t39.5 107q7 50 -8.5 93t-50 70t-85.5 28q-61 1 -111.5 -25.5t-95.5 -67.5l147 372h320l-4 -30h-296l-114 -286q30 28 73 48.5
t94 19.5q59 0 98 -31.5t56.5 -82t9.5 -108.5z" />
    <glyph glyph-name="six" unicode="6" horiz-adv-x="531" 
d="M411 699h42l-260 -304q29 22 64 35.5t76 12.5q58 -1 98.5 -33t59 -81.5t11.5 -105.5q-8 -64 -43 -117t-88.5 -84.5t-120.5 -31.5q-66 0 -110.5 32.5t-63 85.5t-10.5 115q7 44 28 84t46 71zM98 223q-7 -52 8.5 -98.5t52.5 -75t93 -28.5q57 0 103.5 27.5t77 73.5t38.5 101
q7 50 -9.5 94t-52 72t-86.5 28q-59 1 -107 -26.5t-78.5 -71.5t-39.5 -96z" />
    <glyph glyph-name="seven" unicode="7" horiz-adv-x="502" 
d="M118 669l5 31h463l-457 -700h-35l437 668z" />
    <glyph glyph-name="eight" unicode="8" horiz-adv-x="508" 
d="M64 187q7 46 33 84.5t64.5 64.5t82.5 36q-51 16 -79.5 62t-19.5 104q8 46 37 85t72.5 63t93.5 24t85 -25t51.5 -64.5t9.5 -83.5q-9 -61 -53.5 -106t-102.5 -60q59 -16 92.5 -67t24.5 -118q-8 -53 -39.5 -98t-80 -71.5t-108.5 -26.5q-59 0 -98 28t-56 73t-9 96zM176 535
q-5 -38 9 -72t42.5 -55t64.5 -22q37 0 73.5 20.5t63.5 54.5t33 74q6 37 -6.5 70t-40.5 54t-70 21q-42 1 -78 -19.5t-60 -53.5t-31 -72zM96 190q-7 -45 6.5 -83.5t46 -62t81.5 -24.5q50 0 91 22.5t68.5 61.5t34.5 86q7 44 -9 81t-48.5 60.5t-76.5 23.5q-44 1 -85.5 -21.5
t-71 -60t-37.5 -83.5z" />
    <glyph glyph-name="nine" unicode="9" horiz-adv-x="531" 
d="M195 0h-41l260 306q-29 -23 -64.5 -36.5t-76.5 -12.5q-58 1 -98.5 33t-59 82t-11.5 105q9 65 43.5 117.5t89 84t120.5 31.5q67 0 110.5 -32.5t62.5 -85.5t10 -115q-7 -43 -27.5 -83.5t-46.5 -71.5zM509 477q8 53 -8 99t-52.5 74.5t-93.5 28.5t-103.5 -27.5t-77 -73.5
t-38.5 -101q-7 -49 9.5 -93.5t52 -72t86.5 -28.5q59 0 107 27t79 71.5t39 95.5z" />
    <glyph glyph-name="colon" unicode=":" horiz-adv-x="291" 
d="M144 371q0 11 7 17.5t17 6.5t17 -6.5t7 -17.5q0 -10 -7 -17.5t-17 -7.5t-17 7.5t-7 17.5zM83 13q0 11 7 17.5t17 6.5t17 -6.5t7 -17.5q0 -10 -7 -17t-17 -7t-17 7t-7 17z" />
    <glyph glyph-name="semicolon" unicode=";" horiz-adv-x="283" 
d="M173 371q0 11 7 17.5t17 6.5t17.5 -6.5t7.5 -17.5q0 -10 -7.5 -17.5t-17.5 -7.5t-17 7.5t-7 17.5zM152 98l30 -13l-151 -248l-21 8z" />
    <glyph glyph-name="less" unicode="&#x3c;" horiz-adv-x="621" 
d="M131 257l412 -191l-5 -30l-460 212l3 18l532 213l-5 -32z" />
    <glyph glyph-name="equal" unicode="=" horiz-adv-x="596" 
d="M88 304l5 30h471l-5 -30h-471zM65 171l5 30h472l-5 -30h-472z" />
    <glyph glyph-name="greater" unicode="&#x3e;" horiz-adv-x="621" 
d="M524 258l-412 191l5 30l460 -212l-3 -18l-533 -213l6 32z" />
    <glyph glyph-name="question" unicode="?" horiz-adv-x="529" 
d="M489 514q8 46 -6.5 83.5t-48.5 60t-86 22.5q-61 0 -107 -30t-82 -73l-24 17q41 49 93 83t125 33q59 0 99.5 -27t58.5 -71.5t9 -97.5q-10 -55 -46.5 -96t-89.5 -65.5t-113 -29.5l-28 -153h-24l21 175h8q59 3 110 24t86 58.5t45 86.5zM177 13q0 10 7 17t17 7q11 0 17.5 -7
t6.5 -17t-7 -17t-17 -7t-17 7t-7 17z" />
    <glyph glyph-name="at" unicode="@" horiz-adv-x="747" 
d="M61 320q13 79 50.5 149t95.5 124.5t131 85t157 30.5q72 0 125 -27.5t86 -73.5t45 -102.5t2 -115.5q-6 -49 -26.5 -93t-50.5 -77.5t-65.5 -51.5t-71.5 -16q-43 3 -54.5 33.5t-5.5 70.5q-28 -41 -67 -67t-84 -26q-40 1 -65.5 22.5t-36 57t-5.5 76.5q8 59 38.5 106.5
t75.5 76t94 26.5q48 -1 70 -35.5t25 -78.5l35 106h32l-81 -231q-2 -7 -4 -16t-4 -17q-2 -15 -1 -32t11 -29.5t33 -14.5q30 -3 59.5 14t55 47.5t42.5 69.5t22 79q9 54 -1 105.5t-39.5 93t-77 66.5t-113.5 26q-78 1 -146 -27.5t-121.5 -78.5t-88.5 -115.5t-47 -139.5
q-12 -83 9.5 -151t77 -108.5t145.5 -41.5q68 -1 125.5 15.5t107.5 40.5l11 -25q-52 -24 -111.5 -41t-134.5 -17q-99 1 -161.5 45t-87 118t-10.5 165zM252 320q-4 -32 3 -61t27 -47.5t53 -19.5q42 -1 78 24.5t61 67t31 86.5q4 30 -2.5 59.5t-25 49t-51.5 20.5
q-41 2 -78.5 -22.5t-63 -66t-32.5 -90.5z" />
    <glyph glyph-name="A" unicode="A" horiz-adv-x="599" 
d="M525 0l-55 253h-306l-143 -253h-38l413 722l165 -722h-36zM384 643l-203 -359h282z" />
    <glyph glyph-name="B" unicode="B" horiz-adv-x="498" 
d="M451 201q-9 -66 -45 -110.5t-90.5 -67.5t-119.5 -23h-140l121 700h126q56 0 97 -19.5t61 -56.5t11 -89q-11 -64 -55 -100.5t-105 -48.5q42 -8 76.5 -32.5t52 -63t10.5 -89.5zM300 669h-96l-46 -268h94q45 1 84.5 15.5t67 43.5t34.5 74q11 64 -29 99.5t-109 35.5zM94 31
h104q85 0 146.5 44t74.5 128q8 51 -13 88.5t-60 58.5t-87 21l-106 1z" />
    <glyph glyph-name="C" unicode="C" horiz-adv-x="664" 
d="M113 350q-9 -62 1.5 -120t41 -103.5t78.5 -72.5t114 -28q71 -1 129 24t106 65l-7 -45q-49 -37 -104.5 -57.5t-126.5 -20.5q-73 0 -128 29.5t-89 80t-47 114.5t-3 134q11 74 45 138.5t85 114t116.5 78t139.5 28.5q67 0 116.5 -19.5t90.5 -59.5l-8 -45q-74 89 -202 89
q-66 0 -124.5 -25.5t-105 -70.5t-77 -103.5t-41.5 -124.5z" />
    <glyph glyph-name="D" unicode="D" horiz-adv-x="629" 
d="M229 0h-172l119 700h169q75 0 131 -27.5t91 -76t48 -112t2 -134.5q-15 -99 -68.5 -178.5t-135.5 -125.5t-184 -46zM342 666h-138l-108 -632h136q93 0 167 41.5t122.5 113t62.5 161.5q14 86 -9.5 158t-82 115t-150.5 43z" />
    <glyph glyph-name="E" unicode="E" horiz-adv-x="505" 
d="M176 700h349l-5 -31h-315l-46 -267h296l-6 -31h-295l-59 -340h316l-5 -31h-349z" />
    <glyph glyph-name="F" unicode="F" horiz-adv-x="450" 
d="M176 700h310l-5 -32h-276l-47 -274h266l-5 -31h-267l-62 -363h-33z" />
    <glyph glyph-name="G" unicode="G" horiz-adv-x="745" 
d="M429 313l6 31h292q-13 -68 -44.5 -131t-79.5 -113t-111 -79t-139 -29q-74 0 -130 29t-92 79.5t-49.5 115t-3.5 134.5q12 74 46.5 139t87 114.5t119 77.5t141.5 28q88 0 150.5 -41t99.5 -111l-27 -20q-29 63 -87.5 100.5t-138.5 37.5q-68 0 -128 -25.5t-107.5 -70
t-78.5 -103.5t-42 -126q-9 -63 2 -121t42.5 -104t81.5 -73t117 -27q65 0 118.5 23.5t96 64.5t71.5 92.5t44 107.5h-257z" />
    <glyph glyph-name="H" unicode="H" horiz-adv-x="646" 
d="M176 700h34l-52 -303h413l52 303h34l-121 -700h-32l62 366h-413l-63 -366h-33z" />
    <glyph glyph-name="I" unicode="I" horiz-adv-x="193" 
d="M173 700h33l-121 -700h-32z" />
    <glyph glyph-name="J" unicode="J" horiz-adv-x="203" 
d="M-158 -142q16 -18 38.5 -32t51.5 -14q56 0 83.5 38.5t36.5 99.5l129 750h32l-130 -760q-11 -70 -47.5 -115.5t-107.5 -44.5q-36 0 -64 17.5t-43 36.5z" />
    <glyph glyph-name="K" unicode="K" horiz-adv-x="472" 
d="M173 700h34l-55 -318l345 317h44l-360 -328l253 -371h-41l-245 361l-62 -361h-33z" />
    <glyph glyph-name="L" unicode="L" horiz-adv-x="422" 
d="M177 700h33l-115 -669h290l-5 -31h-323z" />
    <glyph glyph-name="M" unicode="M" horiz-adv-x="798" 
d="M227 613l-170 -613h-33l200 721l175 -560l370 562l-49 -723h-33l42 611l-340 -519z" />
    <glyph glyph-name="N" unicode="N" horiz-adv-x="677" 
d="M667 700h33l-124 -721l-405 651l-108 -630h-34l124 721l405 -655z" />
    <glyph glyph-name="O" unicode="O" horiz-adv-x="755" 
d="M78 350q11 74 45.5 138.5t87 114.5t118.5 78t141 28q74 0 130 -29.5t91 -80t48.5 -115t3.5 -134.5q-11 -73 -45.5 -138t-87 -115t-118.5 -78t-141 -28q-74 0 -130 29.5t-91 80t-48.5 115t-3.5 134.5zM113 350q-9 -63 2 -121t41.5 -104t80.5 -73t117 -27q68 0 128 25.5
t107.5 70.5t78.5 104t41 125q9 63 -2 121t-42 104t-80.5 73t-117.5 27t-128 -25.5t-107 -70.5t-77.5 -104t-41.5 -125z" />
    <glyph glyph-name="P" unicode="P" horiz-adv-x="484" 
d="M176 700h140q61 0 105.5 -26t65.5 -72t11 -107q-10 -62 -45.5 -108t-88.5 -71.5t-116 -25.5h-108l-50 -290h-33zM313 668l-108 1l-60 -348h106q82 1 141.5 47.5t72.5 126.5q13 78 -29.5 125.5t-122.5 47.5z" />
    <glyph glyph-name="Q" unicode="Q" horiz-adv-x="753" 
d="M78 350q11 74 45.5 138.5t87 114.5t118.5 78t141 28q74 0 130 -29.5t91 -80t48.5 -115t3.5 -134.5q-11 -72 -44 -135.5t-83 -112.5l87 -102h-43l-68 80q-50 -41 -111.5 -65t-129.5 -24q-74 0 -130 29.5t-91 80t-48.5 115t-3.5 134.5zM113 350q-9 -63 2 -121t41.5 -104
t80.5 -73t117 -27q62 0 117 21.5t100 58.5l-165 195h42l147 -173q45 44 74.5 101.5t39.5 121.5q9 63 -2 121t-42 104t-80.5 73t-117.5 27t-128 -25.5t-107 -70.5t-77.5 -104t-41.5 -125z" />
    <glyph glyph-name="R" unicode="R" horiz-adv-x="480" 
d="M176 700h133q63 0 111 -23.5t72.5 -68t14.5 -106.5q-9 -59 -43 -101t-84.5 -66.5t-109.5 -29.5l157 -305h-39l-154 304h-92l-52 -304h-33zM307 669h-102l-58 -336h100q57 1 105 20t80.5 57t41.5 92t-11 90.5t-60.5 56t-95.5 20.5z" />
    <glyph glyph-name="S" unicode="S" horiz-adv-x="490" 
d="M75 206q9 -43 26 -84.5t49 -69t85 -28.5q78 -1 125 43t57 110q7 46 -10.5 79.5t-49.5 57t-69 39.5q-39 17 -75.5 41.5t-57.5 61t-14 88.5q8 48 37.5 85t73 58t93.5 21q52 0 85.5 -22.5t53 -58t26.5 -74.5l-30 -15q-6 34 -22 65.5t-44.5 52t-73.5 20.5q-40 0 -75 -17
t-58.5 -47t-30.5 -68q-7 -44 13 -75t55 -53t73 -39q40 -17 73 -44t51 -64.5t11 -89.5q-8 -52 -37 -95t-76 -67.5t-109 -24.5q-59 1 -97 29.5t-59 74t-30 94.5z" />
    <glyph glyph-name="T" unicode="T" horiz-adv-x="427" 
d="M103 668l5 32h397l-6 -32h-181l-115 -668h-33l114 668h-181z" />
    <glyph glyph-name="U" unicode="U" horiz-adv-x="572" 
d="M172 700h33l-82 -477q-7 -53 4.5 -99t44.5 -73.5t90 -27.5q59 0 103 26.5t71 72t36 101.5l82 477h34l-82 -477q-10 -64 -41.5 -117t-82.5 -84.5t-122 -31.5q-68 0 -108.5 32.5t-55 86t-6.5 114.5z" />
    <glyph glyph-name="V" unicode="V" horiz-adv-x="599" 
d="M291 59l351 641h38l-401 -722l-176 722h36z" />
    <glyph glyph-name="W" unicode="W" horiz-adv-x="932" 
d="M669 73l303 627h37l-352 -722l-110 647l-311 -647l-129 722h36l108 -627l310 649z" />
    <glyph glyph-name="X" unicode="X" horiz-adv-x="501" 
d="M522 699h40l-253 -333l159 -366h-39l-141 336l-249 -336h-41l278 368l-145 332h39l127 -303z" />
    <glyph glyph-name="Y" unicode="Y" horiz-adv-x="507" 
d="M552 699h38l-303 -422l-47 -277h-34l49 278l-151 422h37l134 -389z" />
    <glyph glyph-name="Z" unicode="Z" horiz-adv-x="521" 
d="M124 668l5 32h470l-545 -667l418 -1l-5 -32h-477l545 668h-411z" />
    <glyph glyph-name="bracketleft" unicode="[" horiz-adv-x="263" 
d="M227 749l-145 -938h117l-5 -31h-149l155 1000h148l-4 -30z" />
    <glyph glyph-name="backslash" unicode="\" horiz-adv-x="445" 
d="M107 700h34l263 -700h-33z" />
    <glyph glyph-name="bracketright" unicode="]" horiz-adv-x="263" 
d="M89 -189l145 938h-117l5 31h149l-155 -1000h-148l5 30z" />
    <glyph glyph-name="asciicircum" unicode="^" horiz-adv-x="494" 
d="M336 670l-187 -209h-36l222 248h11l138 -249h-33z" />
    <glyph glyph-name="underscore" unicode="_" horiz-adv-x="485" 
d="M-47 -116l4 24h486l-4 -24h-486z" />
    <glyph glyph-name="grave" unicode="`" horiz-adv-x="348" 
d="M177 683l30 17l136 -160l-18 -12z" />
    <glyph glyph-name="a" unicode="a" 
d="M52 230q10 67 45.5 121.5t89 87t117.5 31.5q47 0 79 -22t50 -58t23 -78l25 148h30l-80 -460h-28l23 136q-29 -61 -81.5 -103.5t-120.5 -42.5q-63 0 -104.5 33.5t-58.5 88.5t-9 118zM84 230q-8 -55 6.5 -103t50 -77.5t91.5 -29.5q52 1 96.5 31.5t74.5 78.5t38 100
q7 49 -6 97t-45 80t-84 33q-56 1 -103 -27.5t-78.5 -76.5t-40.5 -106z" />
    <glyph glyph-name="b" unicode="b" 
d="M506 230q-10 -66 -45.5 -121t-89 -87t-117.5 -32q-46 0 -77.5 21.5t-50 56t-23.5 76.5l-25 -144h-31l134 780h31l-77 -450q29 59 80.5 99.5t117.5 40.5q64 0 105.5 -33.5t59 -88.5t8.5 -118zM474 230q8 55 -6.5 103t-50 78t-91.5 29q-49 0 -91.5 -27.5t-72.5 -71.5
t-41 -93l-5 -28q-5 -47 8.5 -93t45.5 -76t82 -31q56 -1 103 27.5t78.5 76.5t40.5 106z" />
    <glyph glyph-name="c" unicode="c" horiz-adv-x="469" 
d="M85 230q-7 -55 10 -102.5t56.5 -77t96.5 -30.5q52 0 94.5 21t69.5 46l-6 -39q-28 -23 -69.5 -40.5t-90.5 -17.5q-66 0 -112 33.5t-67 88.5t-13 118q9 66 46 120.5t93.5 87t123.5 32.5q46 0 84.5 -16.5t60.5 -41.5l-6 -40q-19 28 -56 48t-85 20q-58 0 -107 -28.5
t-81.5 -76t-41.5 -105.5z" />
    <glyph glyph-name="d" unicode="d" 
d="M52 230q10 67 45.5 121.5t89 87t117.5 31.5q46 0 77.5 -21t49.5 -55.5t24 -75.5l79 462h32l-135 -780h-30l22 130q-30 -59 -81 -99.5t-118 -40.5q-63 0 -104.5 33.5t-58.5 88.5t-9 118zM84 230q-8 -55 6.5 -103t50 -78t91.5 -29q48 0 90 27t72 70t43 92l6 35q4 46 -10 91
t-46 74.5t-81 30.5q-56 1 -103 -27.5t-78.5 -76.5t-40.5 -106z" />
    <glyph glyph-name="e" unicode="e" horiz-adv-x="490" 
d="M443 106q-24 -29 -54 -56t-69.5 -43.5t-93.5 -16.5q-61 1 -101 36t-56.5 90t-9.5 115q3 18 7 35t11 33q18 47 51.5 86t78.5 62t97 23q59 0 99 -31.5t58 -82t11 -108.5q-1 -6 -2.5 -12.5t-3.5 -12.5h-377q-4 -52 9.5 -98t46.5 -75.5t86 -29.5q45 0 79.5 15t61 39t47.5 49z
M302 441q-51 0 -94.5 -25.5t-73.5 -69t-40 -96.5h344q9 47 -4.5 90.5t-46.5 72t-85 28.5z" />
    <glyph glyph-name="f" unicode="f" horiz-adv-x="271" 
d="M97 460h43l31 184q6 37 22.5 70t45 54t69.5 20q29 -1 47 -14.5t30 -30.5l-21 -25q-10 15 -24.5 26.5t-35.5 12.5q-31 1 -52 -17t-33 -45t-17 -54l-31 -181h126l-5 -30h-126l-73 -430h-32l73 430h-43z" />
    <glyph glyph-name="g" unicode="g" 
d="M21 -30h31q-5 -46 8 -84.5t45 -61.5t83 -24q54 0 99.5 26.5t76 74.5t39.5 109l21 121q-30 -59 -81.5 -100t-118.5 -41q-63 0 -104.5 33.5t-58.5 88.5t-9 118q10 67 45.5 121.5t89 87t117.5 31.5q46 0 77.5 -21.5t50 -56.5t23.5 -76l25 144h31l-77 -450
q-10 -69 -44.5 -123.5t-86 -85.5t-115.5 -31q-60 0 -99.5 27t-56.5 72.5t-11 100.5zM84 230q-8 -55 6.5 -103t50 -77.5t91.5 -29.5q53 0 97 31t74 80t38 102q7 47 -6 94.5t-45.5 79.5t-83.5 33q-56 1 -103 -27.5t-78.5 -76.5t-40.5 -106z" />
    <glyph glyph-name="h" unicode="h" horiz-adv-x="474" 
d="M391 308q5 35 -1 64.5t-26.5 48.5t-60.5 19q-42 0 -76 -20.5t-58 -54t-35 -71.5l-51 -294h-32l135 780h31l-74 -428q26 50 69 84t100 34q47 0 73 -22t35 -58t3 -79l-54 -311h-31z" />
    <glyph glyph-name="i" unicode="i" horiz-adv-x="204" 
d="M168 681q0 10 7 17t17 7q11 0 17.5 -7t6.5 -17t-6.5 -16.5t-17.5 -6.5q-10 0 -17 6.5t-7 16.5zM139 460h31l-79 -460h-31z" />
    <glyph glyph-name="j" unicode="j" horiz-adv-x="194" 
d="M158 681q0 10 7 17t17 7q11 0 17.5 -7t6.5 -17t-6.5 -16.5t-17.5 -6.5q-10 0 -17 6.5t-7 16.5zM-123 -150q10 -14 24.5 -26t34.5 -12q32 0 53 18t33 45t16 53l91 532h31l-91 -535q-6 -36 -22 -69.5t-44 -54.5t-69 -21q-28 0 -47.5 15t-31.5 31z" />
    <glyph glyph-name="k" unicode="k" horiz-adv-x="380" 
d="M366 459h43l-258 -191l196 -268h-38l-186 259l-45 -259h-31l133 780h32l-86 -500z" />
    <glyph glyph-name="l" unicode="l" horiz-adv-x="188" 
d="M185 780h32l-135 -780h-30z" />
    <glyph glyph-name="m" unicode="m" horiz-adv-x="695" 
d="M358 308q4 33 0.5 62.5t-19.5 48.5t-52 20q-37 1 -67.5 -20t-53 -54t-32.5 -69l-51 -296h-32l80 460h31l-18 -104q24 48 62.5 81.5t88.5 32.5q52 -1 74 -34t23 -80q25 48 66 81.5t91 32.5q43 0 65 -23t28 -59t1 -77l-54 -311h-31l54 308q4 33 0.5 62.5t-20 48.5t-52.5 20
q-38 1 -69 -21t-52.5 -56t-31.5 -70l-51 -292h-31z" />
    <glyph glyph-name="n" unicode="n" horiz-adv-x="474" 
d="M162 460l-19 -108q26 50 69 84t100 34q47 0 73 -22t35 -58t3 -79l-54 -311h-31l53 308q5 35 -1 64.5t-26.5 48.5t-60.5 19q-42 0 -76 -20.5t-58 -54t-36 -71.5l-50 -294h-32l80 460h31z" />
    <glyph glyph-name="o" unicode="o" horiz-adv-x="535" 
d="M58 230q9 66 46.5 120.5t94 87t123.5 32.5q66 0 112.5 -33.5t68 -88t12.5 -118.5q-9 -66 -46.5 -120.5t-94 -87t-123.5 -32.5q-66 0 -112.5 33.5t-67.5 88.5t-13 118zM90 230q-7 -55 10 -103t56.5 -77.5t96.5 -29.5q58 0 107 28.5t82 76.5t41 105q8 55 -9.5 103
t-56.5 77.5t-97 29.5t-107 -28.5t-81.5 -76t-41.5 -105.5z" />
    <glyph glyph-name="p" unicode="p" 
d="M40 -220h-31l117 680h31l-22 -130q29 59 80 99.5t118 40.5q64 0 105.5 -33.5t59 -88.5t8.5 -118q-10 -66 -45.5 -121t-89 -87.5t-117.5 -31.5q-46 0 -77.5 21.5t-50 56.5t-23.5 76zM474 230q8 55 -6.5 103t-50 78t-91.5 29q-49 0 -91.5 -28t-72.5 -72t-42 -93l-4 -26
q-5 -47 8.5 -93t45.5 -76.5t82 -31.5q56 -1 103 27.5t78.5 76.5t40.5 106z" />
    <glyph glyph-name="q" unicode="q" 
d="M52 230q10 67 45.5 121.5t89 87t117.5 31.5q46 0 77.5 -21.5t49.5 -56t24 -75.5l25 143h31l-117 -680h-31l60 351q-29 -60 -80.5 -100.5t-118.5 -40.5q-63 0 -104.5 33.5t-58.5 88.5t-9 118zM84 230q-8 -55 6.5 -103t50 -78t91.5 -29q49 0 91 27.5t72 71t42 92.5l5 30
q5 47 -9 92.5t-45.5 75.5t-81.5 31q-56 1 -103 -27.5t-78.5 -76.5t-40.5 -106z" />
    <glyph glyph-name="r" unicode="r" horiz-adv-x="296" 
d="M162 460l-14 -79q20 39 50.5 64.5t71.5 24.5q19 0 35 -7.5t30 -18.5l-21 -25q-13 8 -25.5 14.5t-27.5 6.5q-35 1 -60 -19t-41 -51t-25 -65l-52 -305h-32l80 460h31z" />
    <glyph glyph-name="s" unicode="s" horiz-adv-x="391" 
d="M65 151q6 -31 18.5 -61t36 -49.5t62.5 -20.5q45 0 80.5 27t41.5 71q5 30 -8.5 50t-37.5 33.5t-52 23.5q-32 12 -58.5 27.5t-40.5 40t-9 63.5q8 54 51.5 83t97.5 29q53 0 83 -28t43 -69l-27 -14q-11 33 -34.5 57.5t-66.5 24.5q-41 1 -75.5 -21t-40.5 -62q-5 -32 9 -52
t39 -32.5t53 -22.5q30 -11 56 -28t40.5 -41.5t9.5 -59.5q-7 -60 -51 -95t-105 -35q-46 0 -75.5 21.5t-45 55.5t-21.5 71z" />
    <glyph glyph-name="t" unicode="t" horiz-adv-x="198" 
d="M65 460h71l27 160h32l-28 -160h74l-5 -30h-74l-75 -430h-30l74 430h-72z" />
    <glyph glyph-name="u" unicode="u" horiz-adv-x="474" 
d="M110 159q-4 -37 1 -68t25 -50.5t61 -20.5q42 0 76 20.5t58 54t36 71.5l50 294h32l-80 -460h-31l18 105q-25 -49 -68.5 -82.5t-99.5 -32.5q-48 0 -74 23t-33 61t-2 82l52 304h31z" />
    <glyph glyph-name="v" unicode="v" horiz-adv-x="412" 
d="M61 460h34l102 -411l229 411h36l-276 -482z" />
    <glyph glyph-name="w" unicode="w" horiz-adv-x="618" 
d="M64 460h33l57 -397l206 419l70 -420l196 398h35l-243 -482l-71 419l-209 -419z" />
    <glyph glyph-name="x" unicode="x" horiz-adv-x="379" 
d="M381 459h38l-191 -224l129 -235h-36l-114 213l-180 -213h-39l205 239l-123 221h36l108 -198z" />
    <glyph glyph-name="y" unicode="y" horiz-adv-x="416" 
d="M463 460l-409 -680l-35 1l154 254l-115 425h35l102 -393l233 393h35z" />
    <glyph glyph-name="z" unicode="z" horiz-adv-x="425" 
d="M390 430h-304l5 30h363l-400 -430h327l-5 -30h-386z" />
    <glyph glyph-name="braceleft" unicode="{" horiz-adv-x="280" 
d="M235 646l-30 -198q-8 -56 -29.5 -100t-62.5 -58q36 -17 42.5 -61.5t0.5 -96.5l-31 -198q-5 -45 3 -75.5t51 -30.5h24l-4 -28h-31q-35 0 -52 19t-20.5 50.5t0.5 70.5l32 210q5 47 -2.5 77.5t-31.5 49.5l4 26q29 16 47.5 47t25.5 80l32 210q8 62 35 101t80 39h32l-4 -28
h-24q-43 0 -62 -29.5t-25 -76.5z" />
    <glyph glyph-name="bar" unicode="|" horiz-adv-x="221" 
d="M201 785h29l-155 -1000h-29z" />
    <glyph glyph-name="braceright" unicode="}" horiz-adv-x="280" 
d="M104 -66l30 198q8 56 29.5 100t62.5 58q-36 17 -42.5 61.5t-0.5 96.5l31 198q5 45 -3 75.5t-51 30.5h-24l4 28h31q36 0 52.5 -18.5t20.5 -50.5t0 -71l-33 -210q-10 -92 35 -127l-4 -26q-29 -16 -47.5 -47t-25.5 -80l-32 -210q-8 -61 -35 -100.5t-80 -39.5h-32l4 28h23
q43 0 62 29.5t25 76.5z" />
    <glyph glyph-name="asciitilde" unicode="~" horiz-adv-x="558" 
d="M112 178l-29 3q0 6 -0.5 12.5t0.5 12.5q8 46 38 79q17 19 41.5 30t51.5 11q37 0 61 -21t44 -46q16 -19 35 -38t47 -19q37 -1 59 26.5t27 62.5q3 14 0 30l30 -3q0 -6 0.5 -13t-1.5 -15q-3 -21 -11 -42t-22 -37q-15 -17 -37 -28t-46 -11q-34 0 -56.5 20.5t-42.5 43.5
q-17 20 -37.5 40.5t-52.5 20.5q-43 0 -68.5 -29t-31.5 -68q-1 -5 -0.5 -10.5t1.5 -11.5z" />
    <glyph glyph-name="uni00A0" unicode="&#xa0;" horiz-adv-x="300" 
 />
    <glyph glyph-name="exclamdown" unicode="&#xa1;" horiz-adv-x="291" 
d="M230 442q-1 -9 -9.5 -16.5t-17.5 -7.5q-10 0 -15.5 7t-4.5 17q1 9 9.5 16.5t17.5 7.5q10 0 15.5 -7t4.5 -17zM109 -245h-40l95 499h22z" />
    <glyph glyph-name="cent" unicode="&#xa2;" horiz-adv-x="562" 
d="M125 230q-8 -54 8.5 -102t55.5 -77.5t96 -30.5q52 0 94.5 21t69.5 46l-6 -39q-27 -22 -67 -39t-86 -19l-16 -102h-28l21 102q-61 5 -103 39t-60.5 87t-9.5 114q10 64 46 117t89.5 86t118.5 37l17 108h28l-23 -108q43 -2 78.5 -18.5t56.5 -39.5l-6 -40q-18 29 -55 48.5
t-85 19.5q-58 0 -108 -29t-83 -76.5t-43 -104.5z" />
    <glyph glyph-name="sterling" unicode="&#xa3;" horiz-adv-x="562" 
d="M106 325h144q-10 33 -27 64.5t-28.5 66t-5.5 76.5q8 49 37 89.5t74 65t98 23.5q47 0 77 -20.5t45.5 -52.5t21 -68t2.5 -68l-30 -9q3 29 -0.5 60.5t-16.5 60t-37.5 46.5t-64.5 18q-43 1 -80 -19t-61.5 -53t-31.5 -72q-6 -41 6 -75.5t29.5 -66.5t26.5 -66h139l-5 -30h-129
q1 -15 -1 -31q-8 -49 -37.5 -91.5t-67.5 -78t-71 -62.5l355 -1l-6 -31h-406q42 45 85 84.5t74.5 82t40.5 92.5q3 18 1 36h-155z" />
    <glyph glyph-name="currency" unicode="&#xa4;" horiz-adv-x="548" 
d="M54 61l-18 23l69 58q-44 68 -31 158q7 46 28.5 87.5t53.5 73.5l-46 56l25 22l45 -56q33 26 73.5 41.5t84.5 15.5q45 0 80.5 -17t59.5 -46l72 62l17 -23l-72 -62q41 -67 29 -154q-7 -45 -27.5 -85.5t-51.5 -72.5l48 -59l-24 -22l-48 60q-34 -29 -75.5 -45t-86.5 -16
q-44 0 -78.5 16t-58.5 44zM105 300q-8 -54 8.5 -102t54.5 -78t94 -30q57 0 106 29t82 76.5t42 104.5q8 54 -8 102t-53.5 78t-94.5 30t-106.5 -29t-82.5 -76.5t-42 -104.5z" />
    <glyph glyph-name="yen" unicode="&#xa5;" horiz-adv-x="552" 
d="M31 144l5 29h213l18 103h-213l5 30h199l-141 394h37l135 -389l276 388h38l-281 -393h202l-5 -30h-218l-18 -103h219l-5 -30h-219l-25 -143h-34l25 144h-213z" />
    <glyph glyph-name="brokenbar" unicode="&#xa6;" horiz-adv-x="221" 
d="M189 694h29l-42 -238h-29zM141 244l-42 -238h-29l42 238h29z" />
    <glyph glyph-name="section" unicode="&#xa7;" horiz-adv-x="388" 
d="M50 137q6 -49 42.5 -82.5t91.5 -34.5q29 0 58.5 8.5t51 28t26.5 50.5q6 34 -11 56t-44.5 37.5t-54.5 27.5q-28 14 -57.5 31.5t-48 42t-13.5 58.5q9 50 49 79t100 37q-28 12 -55 27t-43 37t-11 56q6 37 30.5 62t59 38.5t70.5 13.5q51 0 91 -24.5t53 -65.5l-25 -15
q-14 35 -47 54.5t-74 19.5q-26 0 -54 -9t-48.5 -27.5t-24.5 -46.5q-3 -22 8 -39t30.5 -29t41.5 -21t39 -17q29 -13 57 -29.5t45.5 -40t12.5 -57.5q-9 -58 -51 -85.5t-98 -34.5q28 -13 54 -30.5t41 -42.5t10 -61q-6 -40 -31.5 -67t-62.5 -39.5t-78 -12.5q-62 1 -106.5 38.5
t-50.5 94.5zM122 362q-4 -29 12 -49.5t42 -34.5t50 -25q33 8 63 21.5t50.5 34.5t24.5 52q4 29 -13.5 49t-43.5 34t-50 24q-51 -13 -89.5 -39t-45.5 -67z" />
    <glyph glyph-name="dieresis" unicode="&#xa8;" horiz-adv-x="423" 
d="M373 680q1 9 9.5 16.5t17.5 7.5q10 0 15.5 -7t4.5 -17q-1 -9 -9.5 -16.5t-17.5 -7.5q-10 0 -15.5 7t-4.5 17zM179 680q1 9 9.5 16.5t17.5 7.5q10 0 15.5 -7t4.5 -17q-1 -9 -9.5 -16.5t-17.5 -7.5q-10 0 -15.5 7t-4.5 17z" />
    <glyph glyph-name="copyright" unicode="&#xa9;" horiz-adv-x="776" 
d="M75 350q11 75 46.5 140.5t89.5 114.5t122.5 77t145.5 28q75 0 134.5 -29t99 -79t56 -115t6.5 -137q-11 -75 -46.5 -140.5t-89.5 -114.5t-122.5 -77t-145.5 -28q-75 0 -134.5 29t-99 79t-56 115t-6.5 137zM99 350q-9 -67 6 -127.5t51.5 -108t91 -75t124.5 -27.5
q71 0 135 26.5t115 73t85 107.5t44 131q9 67 -6 127.5t-51.5 108t-91 75t-124.5 27.5q-71 0 -135 -26.5t-115 -73t-84.5 -107.5t-44.5 -131zM241 350q-7 -50 7.5 -94t49 -71.5t87.5 -28.5q42 -1 77 14t64 38l-4 -26q-29 -21 -62.5 -34t-75.5 -13q-58 1 -97.5 31t-56.5 79
t-10 105q8 59 40 107.5t80.5 78t107.5 29.5q41 0 70.5 -12t54.5 -35l-4 -26q-23 26 -53 39t-69 13q-53 0 -97 -26t-72.5 -70t-36.5 -98z" />
    <glyph glyph-name="ordfeminine" unicode="&#xaa;" horiz-adv-x="230" 
d="M136 657l-7 13q16 11 37.5 21.5t46.5 9.5q33 -1 47.5 -21.5t11.5 -51.5l-30 -168h-15l9 50q-13 -23 -35 -39t-52 -15t-48.5 21t-14.5 53q5 35 37 54t66 19q21 0 35.5 -6.5t24.5 -13.5l8 45q2 24 -8.5 41t-36.5 18q-22 2 -42 -8.5t-34 -21.5zM101 529q-4 -26 11.5 -42
t40.5 -17q33 -1 56.5 21.5t32.5 50.5l5 30q-12 8 -26 14t-33 6q-28 1 -55 -16.5t-32 -46.5z" />
    <glyph glyph-name="guillemotleft" unicode="&#xab;" horiz-adv-x="477" 
d="M244 256l146 -218l-22 -18l-158 237l237 232l17 -19zM88 256l147 -218l-23 -18l-157 237l237 232l17 -19z" />
    <glyph glyph-name="logicalnot" unicode="&#xac;" horiz-adv-x="601" 
d="M94 345l6 30h476l-35 -199h-30l31 169h-448z" />
    <glyph glyph-name="uni00AD" unicode="&#xad;" horiz-adv-x="203" 
d="M20 245l4 30h195l-5 -30h-194z" />
    <glyph glyph-name="registered" unicode="&#xae;" horiz-adv-x="776" 
d="M75 350q11 75 46.5 140.5t89.5 114.5t122.5 77t145.5 28q75 0 134.5 -29t99 -79t56 -115t6.5 -137q-11 -75 -46.5 -140.5t-89.5 -114.5t-122.5 -77t-145.5 -28q-75 0 -134.5 29t-99 79t-56 115t-6.5 137zM99 350q-9 -67 6 -127.5t51.5 -108t91 -75t124.5 -27.5
q71 0 135 26.5t115 73t85 107.5t44 131q9 67 -6 127.5t-51.5 108t-91 75t-124.5 27.5q-71 0 -135 -26.5t-115 -73t-84.5 -107.5t-44.5 -131zM354 570h80q56 -1 92.5 -32.5t28.5 -87.5q-8 -53 -48.5 -82.5t-93.5 -34.5l99 -183h-24l-96 182h-54l-29 -182h-20zM432 551h-60
l-32 -201h60q50 2 88.5 27t45.5 74t-23.5 74t-78.5 26z" />
    <glyph glyph-name="macron" unicode="&#xaf;" horiz-adv-x="494" 
d="M160 645l4 30h340l-4 -30h-340z" />
    <glyph glyph-name="degree" unicode="&#xb0;" horiz-adv-x="269" 
d="M94 600q5 33 24.5 60.5t49 43.5t62.5 16q50 0 76.5 -36t19.5 -84q-5 -33 -24.5 -60t-48 -43.5t-62.5 -16.5q-50 0 -77 36t-20 84zM113 600q-6 -40 16 -70t63 -31q42 -1 75 29.5t40 71.5q6 40 -15.5 70t-62.5 31q-28 1 -53 -13t-41.5 -37t-21.5 -51z" />
    <glyph glyph-name="plusminus" unicode="&#xb1;" horiz-adv-x="592" 
d="M103 369l5 32h217l34 219h33l-34 -219h218l-5 -32h-219l-34 -219h-32l34 219h-217zM46 0l5 31h468l-5 -31h-468z" />
    <glyph glyph-name="uni00B2" unicode="&#xb2;" horiz-adv-x="325" 
d="M48 283l222 203q23 22 44.5 47.5t26.5 58.5q4 23 -2.5 45t-25 37.5t-49.5 15.5q-35 1 -61.5 -17.5t-43.5 -49t-25 -64.5h-20q8 40 28 74t51.5 55t72.5 20q38 0 60 -18.5t31 -45t4 -54.5q-6 -35 -27.5 -63.5t-47.5 -51.5l-192 -174h229l-3 -19z" />
    <glyph glyph-name="uni00B3" unicode="&#xb3;" horiz-adv-x="299" 
d="M174 274q-58 0 -84.5 34.5t-22.5 82.5h20q-2 -41 18.5 -69t69.5 -29q45 -1 79.5 27t41.5 69q5 33 -10 54t-41 32.5t-53 13.5l2 14v0l1 5q28 3 54.5 13t46.5 29.5t25 47.5q6 34 -13.5 61t-59.5 28q-43 1 -71 -26t-39 -64h-19q11 45 44.5 77.5t85.5 31.5q50 -1 74.5 -34
t16.5 -74q-8 -42 -41.5 -66.5t-75.5 -32.5q41 -9 71 -36.5t22 -76.5q-7 -49 -48 -80.5t-94 -31.5z" />
    <glyph glyph-name="acute" unicode="&#xb4;" horiz-adv-x="348" 
d="M348 681l-194 -153l-16 13l184 158z" />
    <glyph glyph-name="mu" unicode="&#xb5;" horiz-adv-x="474" 
d="M338 0l17 98q-26 -47 -69 -78t-98 -30q-38 0 -61.5 14.5t-35.5 39.5l-63 -364h-31l134 780h32l-54 -314q-3 -34 3 -62.5t26 -46t59 -17.5q42 0 76 20.5t58 54t36 71.5l50 294h32l-80 -460h-31z" />
    <glyph glyph-name="paragraph" unicode="&#xb6;" horiz-adv-x="472" 
d="M113 485q11 67 47.5 115t91.5 74t119 26h137l-158 -920h-28l153 893h-80l-153 -893h-28l84 490q-61 4 -106.5 30.5t-67 73.5t-11.5 111z" />
    <glyph glyph-name="periodcentered" unicode="&#xb7;" horiz-adv-x="251" 
d="M113 227q1 9 10 16.5t18 7.5q10 0 16 -7.5t5 -17.5q-1 -9 -10 -16t-18 -7q-10 0 -16 7t-5 17z" />
    <glyph glyph-name="cedilla" unicode="&#xb8;" horiz-adv-x="339" 
d="M153 18h27l-73 -86q13 7 24.5 12t27.5 4q27 -1 45.5 -22t14.5 -53q-3 -28 -21.5 -49t-45 -32.5t-53.5 -11.5q-26 0 -44 9.5t-37 28.5l17 16q16 -14 30.5 -22t35.5 -8q31 0 60.5 19t33.5 51q3 25 -11.5 39.5t-36.5 15.5q-19 2 -39 -5t-37 -17z" />
    <glyph glyph-name="uni00B9" unicode="&#xb9;" horiz-adv-x="456" 
d="M225 650l3 21l122 27l-74 -424h-19l68 399z" />
    <glyph glyph-name="ordmasculine" unicode="&#xba;" horiz-adv-x="269" 
d="M91 580q5 33 24.5 60.5t48.5 43.5t62 16q50 0 77 -36t20 -84q-5 -33 -24.5 -60t-48.5 -43.5t-63 -16.5q-50 0 -76.5 36t-19.5 84zM110 580q-6 -40 15.5 -70t62.5 -31q28 0 53 13.5t42 37t21 50.5q6 40 -16 70t-63 31q-42 1 -75 -29.5t-40 -71.5z" />
    <glyph glyph-name="guillemotright" unicode="&#xbb;" horiz-adv-x="477" 
d="M267 254l-146 218l22 18l158 -237l-237 -232l-17 19zM422 254l-146 218l22 18l158 -237l-237 -232l-17 19z" />
    <glyph glyph-name="onequarter" unicode="&#xbc;" horiz-adv-x="731" 
d="M727 699h29l-660 -699h-28zM107 650l3 21l122 27l-74 -424h-20l68 399zM376 84l1 1h-2l282 334l6 1l-54 -318h64l-3 -18h-64l-14 -84h-20l15 84h-211zM635 369l-225 -267h179z" />
    <glyph glyph-name="onehalf" unicode="&#xbd;" horiz-adv-x="794" 
d="M727 699h29l-660 -699h-28zM107 650l3 21l122 27l-74 -424h-20l68 399zM454 3l222 203q23 22 44 47t26 58q4 23 -2.5 45t-24.5 37.5t-49 16.5q-35 1 -62 -17.5t-44 -49t-25 -64.5h-20q8 40 28 74t51 55t72 20q38 0 60.5 -18.5t31.5 -45.5t4 -55q-6 -35 -27.5 -63
t-47.5 -51l-192 -174h229l-3 -19z" />
    <glyph glyph-name="threequarters" unicode="&#xbe;" horiz-adv-x="795" 
d="M179 274q-58 0 -84.5 34.5t-22.5 82.5h19q-2 -41 19 -69t70 -29q45 -1 79.5 27t41.5 69q5 33 -10 54t-41 32.5t-53 13.5l2 14v0l1 5q28 3 54.5 13t46.5 29.5t25 47.5q6 34 -13.5 61t-59.5 28q-43 1 -71 -26t-39 -64h-19q11 45 44.5 77.5t85.5 31.5q50 -1 74.5 -34
t16.5 -74q-8 -42 -41.5 -66.5t-75.5 -32.5q41 -9 71 -36.5t22 -76.5q-7 -49 -48 -80.5t-94 -31.5zM792 699h29l-660 -699h-29zM441 84l1 1h-2l282 334l6 1l-54 -318h64l-3 -18h-64l-14 -84h-20l15 84h-211zM700 369l-224 -267h178z" />
    <glyph glyph-name="questiondown" unicode="&#xbf;" horiz-adv-x="529" 
d="M419 687q-1 -9 -10 -16.5t-18 -7.5q-10 0 -15.5 7t-4.5 17q1 9 9.5 16.5t17.5 7.5q10 0 16 -7t5 -17zM107 186q-8 -45 6.5 -83t49 -60.5t85.5 -22.5q62 0 107.5 30t81.5 73l24 -17q-41 -49 -93 -83t-126 -33q-59 1 -99 27.5t-57.5 71t-9.5 97.5q10 55 46.5 96t89.5 65.5
t112 29.5l29 153h23l-19 -175h-8q-71 -4 -122.5 -29t-82 -62t-37.5 -78z" />
    <glyph glyph-name="Agrave" unicode="&#xc0;" horiz-adv-x="599" 
d="M302 936l30 17l134 -160l-18 -12zM525 0l-55 253h-306l-143 -253h-38l413 722l165 -722h-36zM384 643l-203 -359h282z" />
    <glyph glyph-name="Aacute" unicode="&#xc1;" horiz-adv-x="599" 
d="M563 935l-197 -153l-15 13l187 158zM525 0l-55 253h-306l-143 -253h-38l413 722l165 -722h-36zM384 643l-203 -359h282z" />
    <glyph glyph-name="Acircumflex" unicode="&#xc2;" horiz-adv-x="599" 
d="M426 891l-157 -121l-18 17l179 139l133 -140l-22 -17zM525 0l-55 253h-306l-143 -253h-38l413 722l165 -722h-36zM384 643l-203 -359h282z" />
    <glyph glyph-name="Atilde" unicode="&#xc3;" horiz-adv-x="599" 
d="M275 802q10 24 30.5 44t52.5 20q26 0 42.5 -11.5t32 -23t38.5 -11.5q20 1 35 14.5t28 32.5l19 -16q-15 -23 -36.5 -41t-49.5 -17q-25 0 -41.5 11.5t-32 23.5t-36.5 11q-27 -1 -40 -17t-20 -33zM525 0l-55 253h-306l-143 -253h-38l413 722l165 -722h-36zM384 643
l-203 -359h282z" />
    <glyph glyph-name="Adieresis" unicode="&#xc4;" horiz-adv-x="599" 
d="M486 820q1 9 10 16.5t18 7.5q10 0 15.5 -7.5t4.5 -17.5q-1 -9 -10 -16.5t-18 -7.5q-10 0 -15.5 7.5t-4.5 17.5zM292 820q1 9 9.5 16.5t17.5 7.5q10 0 16 -7.5t5 -17.5q-1 -9 -10 -16.5t-18 -7.5q-10 0 -15.5 7.5t-4.5 17.5zM525 0l-55 253h-306l-143 -253h-38l413 722
l165 -722h-36zM384 643l-203 -359h282z" />
    <glyph glyph-name="Aring" unicode="&#xc5;" horiz-adv-x="599" 
d="M311 806q4 28 21.5 50t43 35t51.5 13q40 0 64.5 -29.5t18.5 -70.5q-6 -40 -39 -68.5t-71 -30.5l161 -705h-36l-55 253h-306l-143 -253h-38l403 705q-36 3 -58.5 32.5t-16.5 68.5zM333 805q-4 -31 14 -54t49 -24q21 0 41 10.5t34 28.5t17 39q5 31 -13.5 54t-49.5 24
q-20 1 -40.5 -10t-34.5 -29t-17 -39zM384 643l-203 -359h282z" />
    <glyph glyph-name="AE" unicode="&#xc6;" horiz-adv-x="887" 
d="M793 31l-6 -31h-339l44 259h-265l-212 -259h-38l572 700h358l-6 -31h-304l-47 -267h286l-5 -31h-286l-59 -340h307zM252 290h246l65 380z" />
    <glyph glyph-name="Ccedilla" unicode="&#xc7;" horiz-adv-x="664" 
d="M113 350q-9 -62 1.5 -120t41 -103.5t78.5 -72.5t114 -28q71 -1 129 24t106 65l-7 -45q-49 -37 -104.5 -57.5t-125.5 -20.5l-51 -61q13 7 24.5 12t27.5 4q27 -1 45 -22t14 -53q-3 -28 -21.5 -49t-44.5 -32t-53 -11q-26 0 -44 9t-37 28l16 16q16 -14 31 -22t36 -8
q31 0 60 19t33 51q3 25 -11 39.5t-36 15.5q-19 2 -39 -5t-37 -17l63 87q-67 5 -117.5 36t-82 80.5t-43 111.5t-1.5 129q11 74 45 138.5t85 114t116.5 78t139.5 28.5q67 0 116.5 -19.5t90.5 -59.5l-8 -45q-74 89 -202 89q-66 0 -124.5 -25.5t-105 -70.5t-77 -103.5
t-41.5 -124.5z" />
    <glyph glyph-name="Egrave" unicode="&#xc8;" horiz-adv-x="505" 
d="M245 924l30 17l133 -160l-17 -12zM176 700h349l-5 -31h-315l-46 -267h296l-6 -31h-295l-59 -340h316l-5 -31h-349z" />
    <glyph glyph-name="Eacute" unicode="&#xc9;" horiz-adv-x="505" 
d="M533 922l-197 -152l-15 12l187 158zM176 700h349l-5 -31h-315l-46 -267h296l-6 -31h-295l-59 -340h316l-5 -31h-349z" />
    <glyph glyph-name="Ecircumflex" unicode="&#xca;" horiz-adv-x="505" 
d="M387 891l-157 -122l-18 18l179 138l133 -140l-22 -16zM176 700h349l-5 -31h-315l-46 -267h296l-6 -31h-295l-59 -340h316l-5 -31h-349z" />
    <glyph glyph-name="Edieresis" unicode="&#xcb;" horiz-adv-x="505" 
d="M446 813q1 9 10 16.5t18 7.5q10 0 15.5 -7t4.5 -17q-1 -9 -10 -16.5t-18 -7.5q-10 0 -15.5 7t-4.5 17zM252 813q1 9 9.5 16.5t17.5 7.5q10 0 16 -7t5 -17q-1 -9 -10 -16.5t-18 -7.5q-10 0 -15.5 7t-4.5 17zM176 700h349l-5 -31h-315l-46 -267h296l-6 -31h-295l-59 -340
h316l-5 -31h-349z" />
    <glyph glyph-name="Igrave" unicode="&#xcc;" horiz-adv-x="193" 
d="M83 924l30 17l134 -160l-18 -12zM173 700h33l-121 -700h-32z" />
    <glyph glyph-name="Iacute" unicode="&#xcd;" horiz-adv-x="193" 
d="M372 922l-198 -153l-15 13l187 158zM173 700h33l-121 -700h-32z" />
    <glyph glyph-name="Icircumflex" unicode="&#xce;" horiz-adv-x="193" 
d="M223 891l-158 -122l-17 18l179 138l132 -140l-21 -16zM173 700h33l-121 -700h-32z" />
    <glyph glyph-name="Idieresis" unicode="&#xcf;" horiz-adv-x="193" 
d="M260 807q1 9 10 16.5t18 7.5q10 0 16 -7t5 -17q-1 -9 -10 -16.5t-18 -7.5q-10 0 -16 7t-5 17zM107 807q1 9 9.5 16.5t17.5 7.5q10 0 16 -7t5 -17q-1 -9 -10 -16.5t-18 -7.5q-10 0 -15.5 7t-4.5 17zM173 700h33l-121 -700h-32z" />
    <glyph glyph-name="Eth" unicode="&#xd0;" horiz-adv-x="659" 
d="M229 0h-172l57 334h-79l5 30h79l57 336h169q101 -2 166 -49.5t92.5 -126.5t13.5 -174q-15 -99 -68.5 -178t-135.5 -124.5t-184 -47.5zM327 334h-180l-51 -300h136q93 2 167 43t122.5 112t62.5 161q14 86 -9.5 157t-82 114t-150.5 45h-138l-52 -302h179z" />
    <glyph glyph-name="Ntilde" unicode="&#xd1;" horiz-adv-x="677" 
d="M305 768q10 24 30.5 44t52.5 20q25 0 41 -11.5l32 -23t39 -11.5q20 1 35.5 14.5t28.5 32.5l18 -16q-15 -23 -36.5 -40.5t-49.5 -16.5q-23 0 -40 11.5t-32.5 23t-36.5 11.5q-28 0 -42 -16.5t-20 -33.5zM667 700h33l-124 -721l-405 651l-108 -630h-34l124 721l405 -655z
" />
    <glyph glyph-name="Ograve" unicode="&#xd2;" horiz-adv-x="755" 
d="M381 924l31 17l133 -160l-19 -12zM78 350q11 74 45.5 138.5t87 114.5t118.5 78t141 28q74 0 130 -29.5t91 -80t48.5 -115t3.5 -134.5q-11 -73 -45.5 -138t-87 -115t-118.5 -78t-141 -28q-74 0 -130 29.5t-91 80t-48.5 115t-3.5 134.5zM113 350q-9 -63 2 -121t41.5 -104
t80.5 -73t117 -27q68 0 128 25.5t107.5 70.5t78.5 104t41 125q9 63 -2 121t-42 104t-80.5 73t-117.5 27t-128 -25.5t-107 -70.5t-77.5 -104t-41.5 -125z" />
    <glyph glyph-name="Oacute" unicode="&#xd3;" horiz-adv-x="755" 
d="M636 922l-196 -152l-17 12l187 158zM78 350q11 74 45.5 138.5t87 114.5t118.5 78t141 28q74 0 130 -29.5t91 -80t48.5 -115t3.5 -134.5q-11 -73 -45.5 -138t-87 -115t-118.5 -78t-141 -28q-74 0 -130 29.5t-91 80t-48.5 115t-3.5 134.5zM113 350q-9 -63 2 -121t41.5 -104
t80.5 -73t117 -27q68 0 128 25.5t107.5 70.5t78.5 104t41 125q9 63 -2 121t-42 104t-80.5 73t-117.5 27t-128 -25.5t-107 -70.5t-77.5 -104t-41.5 -125z" />
    <glyph glyph-name="Ocircumflex" unicode="&#xd4;" horiz-adv-x="755" 
d="M504 891l-157 -122l-18 18l179 138l133 -140l-22 -16zM78 350q11 74 45.5 138.5t87 114.5t118.5 78t141 28q74 0 130 -29.5t91 -80t48.5 -115t3.5 -134.5q-11 -73 -45.5 -138t-87 -115t-118.5 -78t-141 -28q-74 0 -130 29.5t-91 80t-48.5 115t-3.5 134.5zM113 350
q-9 -63 2 -121t41.5 -104t80.5 -73t117 -27q68 0 128 25.5t107.5 70.5t78.5 104t41 125q9 63 -2 121t-42 104t-80.5 73t-117.5 27t-128 -25.5t-107 -70.5t-77.5 -104t-41.5 -125z" />
    <glyph glyph-name="Otilde" unicode="&#xd5;" horiz-adv-x="755" 
d="M352 795q5 25 29.5 44.5t54.5 19.5q25 0 41 -11.5l32 -23t39 -11.5q20 1 35.5 14.5t28.5 32.5l17 -15q-15 -23 -36 -41t-49 -17q-23 0 -40 11.5t-32.5 23t-36.5 11.5q-28 0 -41.5 -16.5t-20.5 -33.5zM78 350q11 74 45.5 138.5t87 114.5t118.5 78t141 28q74 0 130 -29.5
t91 -80t48.5 -115t3.5 -134.5q-11 -73 -45.5 -138t-87 -115t-118.5 -78t-141 -28q-74 0 -130 29.5t-91 80t-48.5 115t-3.5 134.5zM113 350q-9 -63 2 -121t41.5 -104t80.5 -73t117 -27q68 0 128 25.5t107.5 70.5t78.5 104t41 125q9 63 -2 121t-42 104t-80.5 73t-117.5 27
t-128 -25.5t-107 -70.5t-77.5 -104t-41.5 -125z" />
    <glyph glyph-name="Odieresis" unicode="&#xd6;" horiz-adv-x="755" 
d="M570 814q1 9 9.5 16.5t17.5 7.5q10 0 15.5 -7t4.5 -17q-1 -9 -9.5 -16.5t-17.5 -7.5q-10 0 -15.5 7t-4.5 17zM362 814q1 9 10 16.5t18 7.5q10 0 15.5 -7t4.5 -17q-1 -9 -10 -16.5t-18 -7.5q-10 0 -15.5 7t-4.5 17zM78 350q11 74 45.5 138.5t87 114.5t118.5 78t141 28
q74 0 130 -29.5t91 -80t48.5 -115t3.5 -134.5q-11 -73 -45.5 -138t-87 -115t-118.5 -78t-141 -28q-74 0 -130 29.5t-91 80t-48.5 115t-3.5 134.5zM113 350q-9 -63 2 -121t41.5 -104t80.5 -73t117 -27q68 0 128 25.5t107.5 70.5t78.5 104t41 125q9 63 -2 121t-42 104
t-80.5 73t-117.5 27t-128 -25.5t-107 -70.5t-77.5 -104t-41.5 -125z" />
    <glyph glyph-name="multiply" unicode="&#xd7;" horiz-adv-x="565" 
d="M75 39l-18 23l224 193l-159 194l24 22l156 -196l223 195l18 -23l-225 -193l158 -194l-24 -21l-155 195z" />
    <glyph glyph-name="Oslash" unicode="&#xd8;" horiz-adv-x="766" 
d="M78 350q11 74 45.5 138.5t87 114.5t118.5 78t141 28q64 0 114 -22.5t86 -60.5l112 112l23 -17l-117 -117q37 -50 51 -116.5t4 -137.5q-11 -73 -45.5 -138t-87 -115t-118.5 -78t-141 -28q-62 0 -111.5 21.5t-84.5 58.5l-109 -109l-23 17l113 113q-38 51 -53.5 118
t-4.5 140zM113 350q-10 -65 2.5 -125.5t46.5 -106.5l483 483q-32 34 -76.5 54t-101.5 20q-68 0 -128 -25.5t-107 -70.5t-78 -104t-41 -125zM709 350q10 64 -2 123.5t-45 104.5l-482 -482q31 -33 74.5 -52t99.5 -19q68 0 128 25.5t107.5 70.5t78.5 104t41 125z" />
    <glyph glyph-name="Ugrave" unicode="&#xd9;" horiz-adv-x="572" 
d="M287 924l30 17l133 -160l-17 -12zM172 700h33l-82 -477q-7 -53 4.5 -98.5t44.5 -73t90 -28.5q58 0 101.5 26.5t71.5 72t37 101.5l82 477h34l-82 -477q-11 -64 -43 -117t-83 -84.5t-120 -31.5q-68 0 -108 32.5t-55 85.5t-7 115z" />
    <glyph glyph-name="Uacute" unicode="&#xda;" horiz-adv-x="572" 
d="M548 922l-197 -152l-15 12l187 158zM172 700h33l-82 -477q-7 -53 4.5 -98.5t44.5 -73t90 -28.5q58 0 101.5 26.5t71.5 72t37 101.5l82 477h34l-82 -477q-11 -64 -43 -117t-83 -84.5t-120 -31.5q-68 0 -108 32.5t-55 85.5t-7 115z" />
    <glyph glyph-name="Ucircumflex" unicode="&#xdb;" horiz-adv-x="572" 
d="M413 891l-158 -122l-17 18l179 138l133 -140l-22 -16zM172 700h33l-82 -477q-7 -53 4.5 -98.5t44.5 -73t90 -28.5q58 0 101.5 26.5t71.5 72t37 101.5l82 477h34l-82 -477q-11 -64 -43 -117t-83 -84.5t-120 -31.5q-68 0 -108 32.5t-55 85.5t-7 115z" />
    <glyph glyph-name="Udieresis" unicode="&#xdc;" horiz-adv-x="572" 
d="M462 793q1 9 9.5 16.5t17.5 7.5q10 0 15.5 -7t4.5 -17q-1 -9 -9.5 -16.5t-17.5 -7.5q-10 0 -15.5 7t-4.5 17zM281 793q1 9 9.5 16.5t17.5 7.5q10 0 16 -7t5 -17q-1 -9 -10 -16.5t-18 -7.5q-10 0 -15.5 7t-4.5 17zM172 700h33l-82 -477q-7 -53 4.5 -98.5t44.5 -73
t90 -28.5q58 0 101.5 26.5t71.5 72t37 101.5l82 477h34l-82 -477q-11 -64 -43 -117t-83 -84.5t-120 -31.5q-68 0 -108 32.5t-55 85.5t-7 115z" />
    <glyph glyph-name="Yacute" unicode="&#xdd;" horiz-adv-x="507" 
d="M528 922l-196 -153l-16 13l187 158zM552 699h38l-303 -422l-47 -277h-34l49 278l-151 422h37l134 -389z" />
    <glyph glyph-name="Thorn" unicode="&#xde;" horiz-adv-x="512" 
d="M170 700h33l-24 -140h130q64 -1 112 -27.5t71.5 -73.5t13.5 -109q-10 -63 -48.5 -110t-95 -73t-122.5 -27h-134l-24 -140h-32zM306 528l-133 1l-61 -358h131q56 2 105 24.5t82.5 62t42.5 92.5q9 54 -11 93.5t-61 61.5t-95 23z" />
    <glyph glyph-name="germandbls" unicode="&#xdf;" horiz-adv-x="525" 
d="M226 20q59 4 109 30.5t84.5 72t44.5 105.5q10 63 -14.5 107t-70.5 68.5t-102 27.5l3 17l2 13q52 2 95.5 17t73 45.5t38.5 79.5q8 42 -3.5 77.5t-42.5 57.5t-84 22q-44 0 -81 -21t-61 -55.5t-32 -77.5l-104 -606h-31l103 606q9 52 38 93.5t73 66t98 24.5q62 0 100 -24.5
t53 -66t6 -93.5q-13 -71 -60 -110.5t-122 -51.5q81 -18 125 -76t30 -143q-11 -68 -50 -120t-97 -81.5t-126 -33.5z" />
    <glyph glyph-name="agrave" unicode="&#xe0;" 
d="M233 692l30 17l133 -160l-17 -12zM52 230q10 67 45.5 121.5t89 87t117.5 31.5q47 0 79 -22t50 -58t23 -78l25 148h30l-80 -460h-28l23 136q-29 -61 -81.5 -103.5t-120.5 -42.5q-63 0 -104.5 33.5t-58.5 88.5t-9 118zM84 230q-8 -55 6.5 -103t50 -77.5t91.5 -29.5
q52 1 96.5 31.5t74.5 78.5t38 100q7 49 -6 97t-45 80t-84 33q-56 1 -103 -27.5t-78.5 -76.5t-40.5 -106z" />
    <glyph glyph-name="aacute" unicode="&#xe1;" 
d="M447 690l-198 -152l-15 13l187 158zM52 230q10 67 45.5 121.5t89 87t117.5 31.5q47 0 79 -22t50 -58t23 -78l25 148h30l-80 -460h-28l23 136q-29 -61 -81.5 -103.5t-120.5 -42.5q-63 0 -104.5 33.5t-58.5 88.5t-9 118zM84 230q-8 -55 6.5 -103t50 -77.5t91.5 -29.5
q52 1 96.5 31.5t74.5 78.5t38 100q7 49 -6 97t-45 80t-84 33q-56 1 -103 -27.5t-78.5 -76.5t-40.5 -106z" />
    <glyph glyph-name="acircumflex" unicode="&#xe2;" 
d="M346 666l-158 -121l-18 17l180 139l132 -140l-21 -17zM52 230q10 67 45.5 121.5t89 87t117.5 31.5q47 0 79 -22t50 -58t23 -78l25 148h30l-80 -460h-28l23 136q-29 -61 -81.5 -103.5t-120.5 -42.5q-63 0 -104.5 33.5t-58.5 88.5t-9 118zM84 230q-8 -55 6.5 -103t50 -77.5
t91.5 -29.5q52 1 96.5 31.5t74.5 78.5t38 100q7 49 -6 97t-45 80t-84 33q-56 1 -103 -27.5t-78.5 -76.5t-40.5 -106z" />
    <glyph glyph-name="atilde" unicode="&#xe3;" 
d="M191 557q1 16 14 30.5t32.5 24t36.5 9.5q25 0 41 -11.5t32.5 -23t39.5 -11.5q20 1 35 14.5t28 32.5l19 -16q-15 -23 -36.5 -41t-49.5 -17q-23 0 -40 11.5t-33 23.5t-37 11q-27 -1 -40 -17t-20 -33zM52 230q10 67 45.5 121.5t89 87t117.5 31.5q47 0 79 -22t50 -58t23 -78
l25 148h30l-80 -460h-28l23 136q-29 -61 -81.5 -103.5t-120.5 -42.5q-63 0 -104.5 33.5t-58.5 88.5t-9 118zM84 230q-8 -55 6.5 -103t50 -77.5t91.5 -29.5q52 1 96.5 31.5t74.5 78.5t38 100q7 49 -6 97t-45 80t-84 33q-56 1 -103 -27.5t-78.5 -76.5t-40.5 -106z" />
    <glyph glyph-name="adieresis" unicode="&#xe4;" 
d="M411 589q1 9 10 16.5t18 7.5q10 0 15.5 -7t4.5 -17q-1 -9 -10 -16.5t-18 -7.5q-10 0 -15.5 7t-4.5 17zM217 589q1 9 10 16.5t18 7.5q10 0 15.5 -7t4.5 -17q-1 -9 -10 -16.5t-18 -7.5q-10 0 -15.5 7t-4.5 17zM52 230q10 67 45.5 121.5t89 87t117.5 31.5q47 0 79 -22
t50 -58t23 -78l25 148h30l-80 -460h-28l23 136q-29 -61 -81.5 -103.5t-120.5 -42.5q-63 0 -104.5 33.5t-58.5 88.5t-9 118zM84 230q-8 -55 6.5 -103t50 -77.5t91.5 -29.5q52 1 96.5 31.5t74.5 78.5t38 100q7 49 -6 97t-45 80t-84 33q-56 1 -103 -27.5t-78.5 -76.5
t-40.5 -106z" />
    <glyph glyph-name="aring" unicode="&#xe5;" 
d="M231 630q4 28 21.5 50t42.5 35.5t51 13.5q40 0 65 -29.5t19 -70.5q-4 -27 -21.5 -49.5t-42.5 -36t-52 -13.5q-40 0 -64.5 30t-18.5 70zM253 630q-4 -31 14 -54t49 -24q21 0 41 10.5t34 28.5t17 39q5 31 -13.5 54t-49.5 24q-20 1 -40.5 -10t-34.5 -29t-17 -39zM52 230
q10 67 45.5 121.5t89 87t117.5 31.5q47 0 79 -22t50 -58t23 -78l25 148h30l-80 -460h-28l23 136q-29 -61 -81.5 -103.5t-120.5 -42.5q-63 0 -104.5 33.5t-58.5 88.5t-9 118zM84 230q-8 -55 6.5 -103t50 -77.5t91.5 -29.5q52 1 96.5 31.5t74.5 78.5t38 100q7 49 -6 97t-45 80
t-84 33q-56 1 -103 -27.5t-78.5 -76.5t-40.5 -106z" />
    <glyph glyph-name="ae" unicode="&#xe6;" horiz-adv-x="800" 
d="M128 382l-13 25q32 23 74 44t97 19q65 -1 90.5 -42.5t17.5 -97.5v-2q33 61 90 102t134 40q52 0 91.5 -30.5t59 -81t11.5 -111.5q-1 -6 -2.5 -12t-3.5 -12h-390q-5 -52 8 -98t45.5 -75t86.5 -30q70 -1 117.5 30.5t84.5 72.5l23 -17q-43 -49 -96.5 -83t-133.5 -33
q-67 1 -108.5 43.5t-53.5 104.5q-11 -40 -39 -73.5t-67.5 -54t-85.5 -20.5q-70 0 -107.5 40t-27.5 100q8 48 38 82t75 52t95 18q42 0 71 -12.5t47 -28.5l14 79q5 30 -2.5 57.5t-28.5 45t-58 18.5q-49 2 -86.5 -18.5t-66.5 -40.5zM747 250q8 51 -6.5 94.5t-48 70.5t-82.5 27
q-57 0 -102.5 -26.5t-75.5 -70.5t-42 -95h357zM62 133q-8 -47 19.5 -80.5t85.5 -33.5q45 0 82 21t62.5 55.5t32.5 74.5v0l9 50q-21 16 -49.5 26t-65.5 10q-43 0 -81 -14.5t-63 -42t-32 -66.5z" />
    <glyph glyph-name="ccedilla" unicode="&#xe7;" horiz-adv-x="469" 
d="M79 230q-8 -54 8.5 -102t55.5 -77.5t96 -30.5q52 0 94.5 21t69.5 46l-6 -39q-28 -23 -70 -40.5t-89 -17.5l-52 -61q13 7 24.5 12t27.5 4q27 -1 45.5 -21.5t14.5 -52.5q-3 -28 -21.5 -49t-44.5 -32.5t-53 -11.5q-26 0 -44.5 9.5t-37.5 28.5l17 16q16 -14 31 -22.5t36 -8.5
q31 0 60 19.5t33 51.5q3 25 -11 39.5t-36 15.5q-19 2 -39.5 -5.5t-37.5 -17.5l64 87q-59 6 -99.5 40.5t-58 87t-9.5 111.5q10 66 48 120.5t95.5 87t124.5 32.5q46 0 84 -16.5t60 -41.5l-6 -40q-19 28 -55.5 48t-84.5 20q-58 0 -108 -28.5t-83 -76t-43 -105.5z" />
    <glyph glyph-name="egrave" unicode="&#xe8;" horiz-adv-x="490" 
d="M185 688l30 17l135 -160l-18 -12zM440 106q-24 -29 -54 -56t-69.5 -43.5t-93.5 -16.5q-62 1 -101.5 36t-55.5 90t-9 115q3 18 7 35t11 33q19 47 52.5 86t78.5 62t97 23q59 0 98.5 -31.5t57.5 -82t11 -108.5q-1 -6 -2.5 -12.5t-3.5 -12.5h-377q-4 -51 9.5 -97.5t46.5 -76
t86 -29.5q45 0 79.5 15t61 39t47.5 49zM301 441q-51 0 -94.5 -25.5t-74 -69t-40.5 -96.5h344q8 47 -5 90.5t-45.5 72t-84.5 28.5z" />
    <glyph glyph-name="eacute" unicode="&#xe9;" horiz-adv-x="490" 
d="M492 685l-195 -152l-16 13l185 158zM440 106q-24 -29 -54 -56t-69.5 -43.5t-93.5 -16.5q-62 1 -101.5 36t-55.5 90t-9 115q3 18 7 35t11 33q19 47 52.5 86t78.5 62t97 23q59 0 98.5 -31.5t57.5 -82t11 -108.5q-1 -6 -2.5 -12.5t-3.5 -12.5h-377q-4 -51 9.5 -97.5
t46.5 -76t86 -29.5q45 0 79.5 15t61 39t47.5 49zM301 441q-51 0 -94.5 -25.5t-74 -69t-40.5 -96.5h344q8 47 -5 90.5t-45.5 72t-84.5 28.5z" />
    <glyph glyph-name="ecircumflex" unicode="&#xea;" horiz-adv-x="490" 
d="M333 652l-158 -121l-18 17l179 138l133 -140l-22 -16zM440 106q-24 -29 -54 -56t-69.5 -43.5t-93.5 -16.5q-62 1 -101.5 36t-55.5 90t-9 115q3 18 7 35t11 33q19 47 52.5 86t78.5 62t97 23q59 0 98.5 -31.5t57.5 -82t11 -108.5q-1 -6 -2.5 -12.5t-3.5 -12.5h-377
q-4 -51 9.5 -97.5t46.5 -76t86 -29.5q45 0 79.5 15t61 39t47.5 49zM301 441q-51 0 -94.5 -25.5t-74 -69t-40.5 -96.5h344q8 47 -5 90.5t-45.5 72t-84.5 28.5z" />
    <glyph glyph-name="edieresis" unicode="&#xeb;" horiz-adv-x="490" 
d="M387 554q1 9 9.5 16.5t17.5 7.5q10 0 16 -7t5 -17q-1 -9 -10 -16.5t-18 -7.5q-10 0 -15.5 7t-4.5 17zM193 554q1 9 9.5 16.5t17.5 7.5q10 0 16 -7t5 -17q-1 -9 -10 -16.5t-18 -7.5q-10 0 -15.5 7t-4.5 17zM440 106q-24 -29 -54 -56t-69.5 -43.5t-93.5 -16.5
q-62 1 -101.5 36t-55.5 90t-9 115q3 18 7 35t11 33q19 47 52.5 86t78.5 62t97 23q59 0 98.5 -31.5t57.5 -82t11 -108.5q-1 -6 -2.5 -12.5t-3.5 -12.5h-377q-4 -51 9.5 -97.5t46.5 -76t86 -29.5q45 0 79.5 15t61 39t47.5 49zM301 441q-51 0 -94.5 -25.5t-74 -69t-40.5 -96.5
h344q8 47 -5 90.5t-45.5 72t-84.5 28.5z" />
    <glyph glyph-name="igrave" unicode="&#xec;" horiz-adv-x="204" 
d="M41 691l30 17l133 -160l-19 -12zM139 460h31l-80 -460h-30z" />
    <glyph glyph-name="iacute" unicode="&#xed;" horiz-adv-x="204" 
d="M346 690l-196 -153l-16 13l186 158zM139 460h31l-80 -460h-30z" />
    <glyph glyph-name="icircumflex" unicode="&#xee;" horiz-adv-x="204" 
d="M188 655l-157 -121l-17 17l179 139l132 -140l-22 -17zM139 460h31l-80 -460h-30z" />
    <glyph glyph-name="idieresis" unicode="&#xef;" horiz-adv-x="204" 
d="M231 564q1 9 10 16.5t18 7.5q10 0 15.5 -7.5t4.5 -17.5q-1 -9 -9.5 -16.5t-17.5 -7.5q-10 0 -16 7.5t-5 17.5zM64 564q1 9 10 16.5t18 7.5q10 0 15.5 -7.5t4.5 -17.5q-1 -9 -10 -16.5t-18 -7.5q-10 0 -15.5 7.5t-4.5 17.5zM139 460h31l-80 -460h-30z" />
    <glyph glyph-name="eth" unicode="&#xf0;" horiz-adv-x="531" 
d="M212 558l4 27h109l-60 115h39l59 -115h124l-4 -27h-106l93 -180q16 -33 23.5 -73.5t1.5 -81.5q-9 -64 -44.5 -117t-90 -84.5t-121.5 -31.5q-66 0 -109.5 32.5t-61.5 86t-9 115.5q10 58 44 108t84.5 80.5t109.5 30.5q43 0 76 -15.5t58 -45.5l-92 176h-127zM464 223
q8 50 -8.5 94t-54.5 72t-97 28q-52 0 -97.5 -27t-76.5 -71t-40 -96q-8 -52 7 -98t51.5 -75t92.5 -29q58 0 105.5 28t78.5 74t39 100z" />
    <glyph glyph-name="ntilde" unicode="&#xf1;" horiz-adv-x="474" 
d="M172 557q10 24 30.5 44t52.5 20q25 0 41 -11.5l32 -23t39 -11.5q20 1 35 14.5t28 32.5l19 -16q-15 -23 -36.5 -41t-49.5 -17q-23 0 -40 11.5t-32.5 23t-36.5 11.5q-28 0 -42 -16.5t-20 -33.5zM162 460l-17 -101q26 48 69 79.5t98 31.5q47 0 73 -22t35 -58t3 -79l-54 -311
h-31l53 308q5 35 -1 64.5t-26.5 48.5t-60.5 19q-42 0 -76 -20.5t-58 -54t-36 -71.5l-50 -294h-32l80 460h31z" />
    <glyph glyph-name="ograve" unicode="&#xf2;" horiz-adv-x="535" 
d="M219 691l31 17l133 -160l-18 -12zM52 230q10 66 48.5 120.5t95.5 87t124 32.5t112 -33.5t65.5 -88.5t11.5 -118q-10 -65 -48.5 -120t-95.5 -87.5t-124 -32.5q-66 0 -111.5 33.5t-66 88.5t-11.5 118zM84 230q-8 -54 8.5 -102t55 -78t95.5 -30q59 0 108.5 28.5t83 76.5
t42.5 105q9 55 -7.5 102.5t-55 77.5t-96.5 30t-108 -28.5t-83.5 -76t-42.5 -105.5z" />
    <glyph glyph-name="oacute" unicode="&#xf3;" horiz-adv-x="535" 
d="M499 690l-197 -153l-15 13l186 158zM52 230q10 66 48.5 120.5t95.5 87t124 32.5t112 -33.5t65.5 -88.5t11.5 -118q-10 -65 -48.5 -120t-95.5 -87.5t-124 -32.5q-66 0 -111.5 33.5t-66 88.5t-11.5 118zM84 230q-8 -54 8.5 -102t55 -78t95.5 -30q59 0 108.5 28.5t83 76.5
t42.5 105q9 55 -7.5 102.5t-55 77.5t-96.5 30t-108 -28.5t-83.5 -76t-42.5 -105.5z" />
    <glyph glyph-name="ocircumflex" unicode="&#xf4;" horiz-adv-x="535" 
d="M357 672l-157 -121l-18 17l179 139l133 -140l-22 -17zM52 230q10 66 48.5 120.5t95.5 87t124 32.5t112 -33.5t65.5 -88.5t11.5 -118q-10 -65 -48.5 -120t-95.5 -87.5t-124 -32.5q-66 0 -111.5 33.5t-66 88.5t-11.5 118zM84 230q-8 -54 8.5 -102t55 -78t95.5 -30
q59 0 108.5 28.5t83 76.5t42.5 105q9 55 -7.5 102.5t-55 77.5t-96.5 30t-108 -28.5t-83.5 -76t-42.5 -105.5z" />
    <glyph glyph-name="otilde" unicode="&#xf5;" horiz-adv-x="535" 
d="M201 557q-2 16 12.5 30.5t35 24t36.5 9.5q25 0 41 -11.5l32 -23t39 -11.5q20 1 35 14.5t28 32.5l19 -16q-15 -23 -36 -41t-49 -17q-23 0 -40 11.5t-33 23.5t-37 11q-27 -1 -40.5 -17t-20.5 -33zM52 230q10 66 48.5 120.5t95.5 87t124 32.5t112 -33.5t65.5 -88.5
t11.5 -118q-10 -65 -48.5 -120t-95.5 -87.5t-124 -32.5q-66 0 -111.5 33.5t-66 88.5t-11.5 118zM84 230q-8 -54 8.5 -102t55 -78t95.5 -30q59 0 108.5 28.5t83 76.5t42.5 105q9 55 -7.5 102.5t-55 77.5t-96.5 30t-108 -28.5t-83.5 -76t-42.5 -105.5z" />
    <glyph glyph-name="odieresis" unicode="&#xf6;" horiz-adv-x="535" 
d="M413 578q1 9 9.5 16.5t17.5 7.5q10 0 16 -7.5t5 -17.5q-1 -9 -10 -16.5t-18 -7.5q-10 0 -15.5 7.5t-4.5 17.5zM219 578q1 9 9.5 16.5t17.5 7.5q10 0 16 -7.5t5 -17.5q-1 -9 -10 -16.5t-18 -7.5q-10 0 -15.5 7.5t-4.5 17.5zM52 230q10 66 48.5 120.5t95.5 87t124 32.5
t112 -33.5t65.5 -88.5t11.5 -118q-10 -65 -48.5 -120t-95.5 -87.5t-124 -32.5q-66 0 -111.5 33.5t-66 88.5t-11.5 118zM84 230q-8 -54 8.5 -102t55 -78t95.5 -30q59 0 108.5 28.5t83 76.5t42.5 105q9 55 -7.5 102.5t-55 77.5t-96.5 30t-108 -28.5t-83.5 -76t-42.5 -105.5z
" />
    <glyph glyph-name="divide" unicode="&#xf7;" horiz-adv-x="604" 
d="M327 451q1 9 9.5 16.5t17.5 7.5q10 0 16 -7.5t5 -17.5q-1 -9 -10 -16.5t-18 -7.5q-10 0 -15.5 7.5t-4.5 17.5zM71 232l5 31h486l-6 -31h-485zM257 43q1 9 10 16.5t18 7.5q10 0 15.5 -7t4.5 -17q-1 -9 -9.5 -16.5t-17.5 -7.5q-10 0 -16 7t-5 17z" />
    <glyph glyph-name="oslash" unicode="&#xf8;" horiz-adv-x="529" 
d="M52 230q10 66 48.5 120.5t95.5 87t124 32.5q36 0 66 -10.5t53 -29.5l57 64l19 -10l-60 -67q33 -34 47.5 -83t6.5 -104q-10 -65 -48.5 -120t-95.5 -87.5t-124 -32.5q-39 0 -71 12.5t-56 33.5l-67 -74l-19 10l71 79q-29 34 -41.5 81t-5.5 98zM84 230q-14 -92 37 -155
l297 332q-20 15 -45 24t-55 9q-58 0 -108 -28.5t-83.5 -76t-42.5 -105.5zM477 230q7 47 -4.5 90t-39.5 73l-298 -333q20 -19 47.5 -29.5t60.5 -10.5q59 0 108.5 28.5t83 76.5t42.5 105z" />
    <glyph glyph-name="ugrave" unicode="&#xf9;" horiz-adv-x="474" 
d="M189 698l30 17l133 -160l-18 -12zM110 159q-4 -37 1 -68t25 -50.5t61 -20.5q42 0 76 20.5t58 54t36 71.5l50 294h32l-80 -460h-31l17 98q-26 -47 -69 -78t-98 -30q-48 0 -74 23t-33 61t-2 82l52 304h31z" />
    <glyph glyph-name="uacute" unicode="&#xfa;" horiz-adv-x="474" 
d="M471 696l-197 -152l-15 13l186 158zM110 159q-4 -37 1 -68t25 -50.5t61 -20.5q42 0 76 20.5t58 54t36 71.5l50 294h32l-80 -460h-31l17 98q-26 -47 -69 -78t-98 -30q-48 0 -74 23t-33 61t-2 82l52 304h31z" />
    <glyph glyph-name="ucircumflex" unicode="&#xfb;" horiz-adv-x="474" 
d="M326 665l-158 -121l-17 17l179 139l132 -140l-22 -17zM110 159q-4 -37 1 -68t25 -50.5t61 -20.5q42 0 76 20.5t58 54t36 71.5l50 294h32l-80 -460h-31l17 98q-26 -47 -69 -78t-98 -30q-48 0 -74 23t-33 61t-2 82l52 304h31z" />
    <glyph glyph-name="udieresis" unicode="&#xfc;" horiz-adv-x="474" 
d="M368 575q1 9 10 16.5t18 7.5q10 -1 15.5 -8t4.5 -17q-1 -9 -9.5 -16.5t-17.5 -7.5q-10 0 -16 7.5t-5 17.5zM201 575q1 9 10 16.5t18 7.5q10 -1 15.5 -8t4.5 -17q-1 -9 -9.5 -16.5t-17.5 -7.5q-10 0 -16 7.5t-5 17.5zM110 159q-4 -37 1 -68t25 -50.5t61 -20.5
q42 0 76 20.5t58 54t36 71.5l50 294h32l-80 -460h-31l17 98q-26 -47 -69 -78t-98 -30q-48 0 -74 23t-33 61t-2 82l52 304h31z" />
    <glyph glyph-name="yacute" unicode="&#xfd;" horiz-adv-x="416" 
d="M443 690l-196 -153l-16 13l186 158zM463 460l-409 -680l-35 1l154 254l-115 425h37l100 -393l233 393h35z" />
    <glyph glyph-name="thorn" unicode="&#xfe;" 
d="M40 -220h-31l172 1000h31l-77 -450q29 59 80 99.5t118 40.5q64 0 105.5 -33.5t59 -88.5t8.5 -118q-10 -66 -45.5 -121t-89 -87.5t-117.5 -31.5q-46 0 -77.5 21.5t-50 56.5t-23.5 76zM474 230q8 55 -6.5 103t-50 78t-91.5 29q-49 0 -91.5 -28t-72.5 -72t-42 -94l-4 -24
q-5 -48 8.5 -94t45.5 -76.5t82 -31.5q56 -1 103 27.5t78.5 76.5t40.5 106z" />
    <glyph glyph-name="ydieresis" unicode="&#xff;" horiz-adv-x="416" 
d="M338 569q1 9 9.5 16.5t17.5 7.5q10 0 16 -7.5t5 -17.5q-1 -9 -10 -16.5t-18 -7.5q-10 1 -15.5 8t-4.5 17zM171 569q1 9 9.5 16.5t17.5 7.5q10 0 16 -7.5t5 -17.5q-1 -9 -10 -16.5t-18 -7.5q-10 1 -15.5 8t-4.5 17zM463 460l-409 -680l-35 1l154 254l-115 425h37l100 -393
l233 393h35z" />
    <glyph glyph-name="Amacron" unicode="&#x100;" horiz-adv-x="599" 
d="M239 795l5 30h340l-5 -30h-340zM525 0l-55 253h-306l-143 -253h-38l413 722l165 -722h-36zM384 643l-203 -359h282z" />
    <glyph glyph-name="amacron" unicode="&#x101;" 
d="M151 547l5 30h340l-5 -30h-340zM52 230q10 67 45.5 121.5t89 87t117.5 31.5q47 0 79 -22t50 -58t23 -78l25 148h30l-80 -460h-28l23 136q-29 -61 -81.5 -103.5t-120.5 -42.5q-63 0 -104.5 33.5t-58.5 88.5t-9 118zM84 230q-8 -55 6.5 -103t50 -77.5t91.5 -29.5
q52 1 96.5 31.5t74.5 78.5t38 100q7 49 -6 97t-45 80t-84 33q-56 1 -103 -27.5t-78.5 -76.5t-40.5 -106z" />
    <glyph glyph-name="Abreve" unicode="&#x102;" horiz-adv-x="599" 
d="M278 928h28q-2 -28 8 -54t34.5 -42.5t62.5 -16.5q40 0 69.5 16.5t48.5 42t28 53.5h28q-10 -36 -33 -67.5t-58.5 -51t-84.5 -19.5q-48 0 -78 19.5t-43 51.5t-10 68zM525 0l-55 253h-306l-143 -253h-38l413 722l165 -722h-36zM384 643l-203 -359h282z" />
    <glyph glyph-name="abreve" unicode="&#x103;" 
d="M182 684h28q-2 -28 8.5 -54t34.5 -42.5t62 -16.5q40 0 69.5 16.5t49 42t27.5 53.5h29q-9 -36 -32.5 -67.5t-59.5 -51.5t-85 -20q-48 0 -78 20t-43 52t-10 68zM52 230q10 67 45.5 121.5t89 87t117.5 31.5q47 0 79 -22t50 -58t23 -78l25 148h30l-80 -460h-28l23 136
q-29 -61 -81.5 -103.5t-120.5 -42.5q-63 0 -104.5 33.5t-58.5 88.5t-9 118zM84 230q-8 -55 6.5 -103t50 -77.5t91.5 -29.5q52 1 96.5 31.5t74.5 78.5t38 100q7 49 -6 97t-45 80t-84 33q-56 1 -103 -27.5t-78.5 -76.5t-40.5 -106z" />
    <glyph glyph-name="Aogonek" unicode="&#x104;" horiz-adv-x="599" 
d="M558 -160l12 -21q-17 -15 -43 -27t-56 -12q-46 0 -72 23.5t-20 63.5q5 32 27.5 57t54 44.5t63.5 34.5l-54 250h-306l-143 -253h-38l413 722l165 -721l1 -1q-29 -14 -62.5 -32.5t-58.5 -42t-30 -53.5q-4 -30 15.5 -46t49.5 -17q25 -1 46 9.5t36 21.5zM384 643l-203 -359
h282z" />
    <glyph glyph-name="aogonek" unicode="&#x105;" 
d="M52 230q10 67 45.5 121.5t89 87t117.5 31.5q47 0 79 -22t50 -58t23 -78l25 148h30l-80 -458l2 -2q-29 -14 -63 -32.5t-59 -42t-30 -53.5q-4 -30 16 -46t50 -17q25 -1 46 9.5t36 21.5l11 -21q-17 -15 -42.5 -27t-55.5 -12q-46 0 -72.5 23.5t-20.5 63.5q5 34 30 59.5
t58.5 45.5t66.5 36l22 128q-29 -61 -81.5 -103.5t-120.5 -42.5q-63 0 -104.5 33.5t-58.5 88.5t-9 118zM84 230q-8 -55 6.5 -103t50 -77.5t91.5 -29.5q52 1 96.5 31.5t74.5 78.5t38 100q7 49 -6 97t-45 80t-84 33q-56 1 -103 -27.5t-78.5 -76.5t-40.5 -106z" />
    <glyph glyph-name="Cacute" unicode="&#x106;" horiz-adv-x="664" 
d="M633 922l-197 -152l-15 12l186 158zM113 350q-9 -62 1.5 -120t41 -103.5t78.5 -72.5t114 -28q71 -1 129 24t106 65l-7 -45q-49 -37 -104.5 -57.5t-126.5 -20.5q-73 0 -128 29.5t-89 80t-47 114.5t-3 134q11 74 45 138.5t85 114t116.5 78t139.5 28.5q67 0 116.5 -19.5
t90.5 -59.5l-8 -45q-74 89 -202 89q-66 0 -124.5 -25.5t-105 -70.5t-77 -103.5t-41.5 -124.5z" />
    <glyph glyph-name="cacute" unicode="&#x107;" horiz-adv-x="469" 
d="M491 690l-196 -152l-16 13l187 158zM79 230q-8 -54 8.5 -102t55.5 -77.5t96 -30.5q52 0 94.5 21t69.5 46l-6 -39q-28 -23 -70 -40.5t-91 -17.5q-66 0 -111.5 33.5t-66 88.5t-11.5 118q10 66 48 120.5t95.5 87t124.5 32.5q46 0 84 -16.5t60 -41.5l-6 -40q-19 28 -55.5 48
t-84.5 20q-58 0 -108 -28.5t-83 -76t-43 -105.5z" />
    <glyph glyph-name="Ccircumflex" unicode="&#x108;" horiz-adv-x="664" 
d="M498 891l-158 -122l-17 18l179 138l132 -140l-21 -16zM113 350q-9 -62 1.5 -120t41 -103.5t78.5 -72.5t114 -28q71 -1 129 24t106 65l-7 -45q-49 -37 -104.5 -57.5t-126.5 -20.5q-73 0 -128 29.5t-89 80t-47 114.5t-3 134q11 74 45 138.5t85 114t116.5 78t139.5 28.5
q67 0 116.5 -19.5t90.5 -59.5l-8 -45q-74 89 -202 89q-66 0 -124.5 -25.5t-105 -70.5t-77 -103.5t-41.5 -124.5z" />
    <glyph glyph-name="ccircumflex" unicode="&#x109;" horiz-adv-x="469" 
d="M349 652l-158 -121l-17 17l179 139l132 -140l-21 -17zM79 230q-8 -54 8.5 -102t55.5 -77.5t96 -30.5q52 0 94.5 21t69.5 46l-6 -39q-28 -23 -70 -40.5t-91 -17.5q-66 0 -111.5 33.5t-66 88.5t-11.5 118q10 66 48 120.5t95.5 87t124.5 32.5q46 0 84 -16.5t60 -41.5l-6 -40
q-19 28 -55.5 48t-84.5 20q-58 0 -108 -28.5t-83 -76t-43 -105.5z" />
    <glyph glyph-name="Cdotaccent" unicode="&#x10a;" horiz-adv-x="664" 
d="M457 800q1 9 10 16.5t18 7.5q10 0 15.5 -7t4.5 -17q-1 -9 -10 -16.5t-18 -7.5q-10 0 -15.5 7t-4.5 17zM113 350q-9 -62 1.5 -120t41 -103.5t78.5 -72.5t114 -28q71 -1 129 24t106 65l-7 -45q-49 -37 -104.5 -57.5t-126.5 -20.5q-73 0 -128 29.5t-89 80t-47 114.5t-3 134
q11 74 45 138.5t85 114t116.5 78t139.5 28.5q67 0 116.5 -19.5t90.5 -59.5l-8 -45q-74 89 -202 89q-66 0 -124.5 -25.5t-105 -70.5t-77 -103.5t-41.5 -124.5z" />
    <glyph glyph-name="cdotaccent" unicode="&#x10b;" horiz-adv-x="469" 
d="M308 562q1 9 10 16.5t18 7.5q10 0 15.5 -7.5t4.5 -17.5q-1 -9 -10 -16.5t-18 -7.5q-10 0 -15.5 7.5t-4.5 17.5zM79 230q-8 -54 8.5 -102t55.5 -77.5t96 -30.5q52 0 94.5 21t69.5 46l-6 -39q-28 -23 -70 -40.5t-91 -17.5q-66 0 -111.5 33.5t-66 88.5t-11.5 118
q10 66 48 120.5t95.5 87t124.5 32.5q46 0 84 -16.5t60 -41.5l-6 -40q-19 28 -55.5 48t-84.5 20q-58 0 -108 -28.5t-83 -76t-43 -105.5z" />
    <glyph glyph-name="Ccaron" unicode="&#x10c;" horiz-adv-x="664" 
d="M482 810l157 122l18 -18l-179 -138l-133 140l23 17zM113 350q-9 -62 1.5 -120t41 -103.5t78.5 -72.5t114 -28q71 -1 129 24t106 65l-7 -45q-49 -37 -104.5 -57.5t-126.5 -20.5q-73 0 -128 29.5t-89 80t-47 114.5t-3 134q11 74 45 138.5t85 114t116.5 78t139.5 28.5
q67 0 116.5 -19.5t90.5 -59.5l-8 -45q-74 89 -202 89q-66 0 -124.5 -25.5t-105 -70.5t-77 -103.5t-41.5 -124.5z" />
    <glyph glyph-name="ccaron" unicode="&#x10d;" horiz-adv-x="469" 
d="M334 579l157 122l18 -18l-179 -139l-133 140l23 18zM79 230q-8 -54 8.5 -102t55.5 -77.5t96 -30.5q52 0 94.5 21t69.5 46l-6 -39q-28 -23 -70 -40.5t-91 -17.5q-66 0 -111.5 33.5t-66 88.5t-11.5 118q10 66 48 120.5t95.5 87t124.5 32.5q46 0 84 -16.5t60 -41.5l-6 -40
q-19 28 -55.5 48t-84.5 20q-58 0 -108 -28.5t-83 -76t-43 -105.5z" />
    <glyph glyph-name="Dcaron" unicode="&#x10e;" horiz-adv-x="629" 
d="M424 824l157 122l19 -18l-179 -138l-133 140l22 17zM229 0h-172l119 700h169q101 -2 166 -49.5t92.5 -126.5t13.5 -174q-15 -99 -68.5 -178t-135.5 -124.5t-184 -47.5zM342 666h-138l-108 -632h136q93 2 167 43t122.5 112t62.5 161q14 86 -9.5 157t-82 114t-150.5 45z
" />
    <glyph glyph-name="dcaron" unicode="&#x10f;" horiz-adv-x="553" 
d="M52 230q10 67 45.5 121.5t89 87t117.5 31.5q46 0 77.5 -21t49.5 -55.5t24 -75.5l79 462h32l-135 -780h-30l22 130q-30 -59 -81 -99.5t-118 -40.5q-63 0 -104.5 33.5t-58.5 88.5t-9 118zM729 768l30 -13l-151 -248l-21 8zM84 230q-8 -55 6.5 -103t50 -78t91.5 -29
q48 0 90 27t72 70t43 92l6 35q4 46 -10 91t-46 74.5t-81 30.5q-56 1 -103 -27.5t-78.5 -76.5t-40.5 -106z" />
    <glyph glyph-name="Dcroat" unicode="&#x110;" horiz-adv-x="659" 
d="M229 0h-172l57 334h-79l5 30h79l57 336h169q101 -2 166 -49.5t92.5 -126.5t13.5 -174q-15 -99 -68.5 -178t-135.5 -124.5t-184 -47.5zM327 334h-180l-51 -300h136q93 2 167 43t122.5 112t62.5 161q14 86 -9.5 157t-82 114t-150.5 45h-138l-52 -302h179z" />
    <glyph glyph-name="dcroat" unicode="&#x111;" 
d="M52 230q10 67 45.5 121.5t89 87t117.5 31.5q45 0 76.5 -21t50 -56t24.5 -76l54 318h-141l4 30h142l20 115h32l-20 -115h118l-5 -30h-118l-110 -635h-30l22 130q-30 -60 -82 -100t-117 -40q-63 0 -104.5 33.5t-59 88.5t-8.5 118zM84 230q-8 -55 6.5 -103t50.5 -77.5
t91 -29.5q50 0 92 28t71.5 71t41.5 91l6 34q4 46 -10 90.5t-45.5 74.5t-81.5 31q-55 1 -102.5 -27.5t-79 -76.5t-40.5 -106z" />
    <glyph glyph-name="Emacron" unicode="&#x112;" horiz-adv-x="505" 
d="M214 815l5 30h340l-5 -30h-340zM176 700h349l-5 -31h-315l-46 -267h296l-6 -31h-295l-59 -340h316l-5 -31h-349z" />
    <glyph glyph-name="emacron" unicode="&#x113;" horiz-adv-x="490" 
d="M141 530l5 30h339l-4 -30h-340zM440 106q-24 -29 -54 -56t-69.5 -43.5t-93.5 -16.5q-62 1 -101.5 36t-55.5 90t-9 115q3 18 7 35t11 33q19 47 52.5 86t78.5 62t97 23q59 0 98.5 -31.5t57.5 -82t11 -108.5q-1 -6 -2.5 -12.5t-3.5 -12.5h-377q-4 -51 9.5 -97.5t46.5 -76
t86 -29.5q45 0 79.5 15t61 39t47.5 49zM301 441q-51 0 -94.5 -25.5t-74 -69t-40.5 -96.5h344q8 47 -5 90.5t-45.5 72t-84.5 28.5z" />
    <glyph glyph-name="Ebreve" unicode="&#x114;" horiz-adv-x="505" 
d="M239 909l28 -1q-4 -43 21.5 -77.5t83.5 -34.5q40 0 69.5 16.5t48.5 42t28 53.5h29q-10 -36 -33 -67.5t-59 -51.5t-85 -20q-48 0 -78 20t-43 52t-10 68zM176 700h349l-5 -31h-315l-46 -267h296l-6 -31h-295l-59 -340h316l-5 -31h-349z" />
    <glyph glyph-name="ebreve" unicode="&#x115;" horiz-adv-x="490" 
d="M172 669h28q-3 -43 23 -77.5t84 -34.5q60 0 95.5 34.5t48.5 77.5l29 -1q-9 -36 -32 -67.5t-58.5 -51t-84.5 -19.5q-48 0 -78.5 19.5t-44 51.5t-10.5 68zM440 106q-24 -29 -54 -56t-69.5 -43.5t-93.5 -16.5q-62 1 -101.5 36t-55.5 90t-9 115q3 18 7 35t11 33
q19 47 52.5 86t78.5 62t97 23q59 0 98.5 -31.5t57.5 -82t11 -108.5q-1 -6 -2.5 -12.5t-3.5 -12.5h-377q-4 -51 9.5 -97.5t46.5 -76t86 -29.5q45 0 79.5 15t61 39t47.5 49zM301 441q-51 0 -94.5 -25.5t-74 -69t-40.5 -96.5h344q8 47 -5 90.5t-45.5 72t-84.5 28.5z" />
    <glyph glyph-name="Edotaccent" unicode="&#x116;" horiz-adv-x="505" 
d="M343 793q1 9 9.5 16.5t17.5 7.5q10 0 16 -7t5 -17q-1 -9 -10 -16.5t-18 -7.5q-10 0 -15.5 7t-4.5 17zM176 700h349l-5 -31h-315l-46 -267h296l-6 -31h-295l-59 -340h316l-5 -31h-349z" />
    <glyph glyph-name="edotaccent" unicode="&#x117;" horiz-adv-x="490" 
d="M290 554q1 9 10 16.5t18 7.5q10 0 15.5 -7t4.5 -17q-1 -9 -9.5 -16.5t-17.5 -7.5q-10 0 -16 7t-5 17zM440 106q-24 -29 -54 -56t-69.5 -43.5t-93.5 -16.5q-62 1 -101.5 36t-55.5 90t-9 115q3 18 7 35t11 33q19 47 52.5 86t78.5 62t97 23q59 0 98.5 -31.5t57.5 -82
t11 -108.5q-1 -6 -2.5 -12.5t-3.5 -12.5h-377q-4 -51 9.5 -97.5t46.5 -76t86 -29.5q45 0 79.5 15t61 39t47.5 49zM301 441q-51 0 -94.5 -25.5t-74 -69t-40.5 -96.5h344q8 47 -5 90.5t-45.5 72t-84.5 28.5z" />
    <glyph glyph-name="Eogonek" unicode="&#x118;" horiz-adv-x="505" 
d="M366 -160l12 -21q-17 -15 -43 -27t-56 -12q-46 0 -72 23.5t-20 63.5q5 31 26 55.5t51 43.5t61 34h-268l119 700h349l-5 -31h-315l-46 -267h296l-6 -31h-295l-59 -340h316l-5 -31h-36q-29 -14 -62.5 -32.5t-58.5 -42t-30 -53.5q-4 -30 15.5 -46t49.5 -17q25 -1 46 9.5
t36 21.5z" />
    <glyph glyph-name="eogonek" unicode="&#x119;" horiz-adv-x="490" 
d="M238 -163l12 -21q-17 -15 -42.5 -26.5t-55.5 -11.5q-46 0 -72 23t-21 63q4 31 25 54.5t50 41.5t60 33q-52 9 -85 44.5t-46 86.5t-6 107q3 18 7 35t11 33q19 47 52.5 86t78.5 62t97 23q59 0 98.5 -31.5t57.5 -82t11 -108.5q-1 -6 -2.5 -12.5t-3.5 -12.5h-377
q-4 -51 9.5 -97.5t46.5 -76t86 -29.5q45 0 79.5 15t61 39t47.5 49l23 -17q-24 -28 -52.5 -54t-66 -43t-87.5 -19q-29 -14 -61 -30.5t-55.5 -39t-27.5 -51.5q-3 -30 16.5 -46t49.5 -17q25 -1 46 9t36 22zM301 441q-51 0 -94.5 -25.5t-74 -69t-40.5 -96.5h344q8 47 -5 90.5
t-45.5 72t-84.5 28.5z" />
    <glyph glyph-name="Ecaron" unicode="&#x11a;" horiz-adv-x="505" 
d="M367 803l157 123l18 -19l-179 -138l-133 140l23 17zM176 700h349l-5 -31h-315l-46 -267h296l-6 -31h-295l-59 -340h316l-5 -31h-349z" />
    <glyph glyph-name="ecaron" unicode="&#x11b;" horiz-adv-x="490" 
d="M307 564l157 122l18 -18l-179 -138l-133 140l23 17zM440 106q-24 -29 -54 -56t-69.5 -43.5t-93.5 -16.5q-62 1 -101.5 36t-55.5 90t-9 115q3 18 7 35t11 33q19 47 52.5 86t78.5 62t97 23q59 0 98.5 -31.5t57.5 -82t11 -108.5q-1 -6 -2.5 -12.5t-3.5 -12.5h-377
q-4 -51 9.5 -97.5t46.5 -76t86 -29.5q45 0 79.5 15t61 39t47.5 49zM301 441q-51 0 -94.5 -25.5t-74 -69t-40.5 -96.5h344q8 47 -5 90.5t-45.5 72t-84.5 28.5z" />
    <glyph glyph-name="Gcircumflex" unicode="&#x11c;" horiz-adv-x="745" 
d="M506 891l-158 -122l-17 18l179 138l133 -140l-22 -16zM429 313l6 32l292 -1q-13 -68 -44.5 -131t-79.5 -113t-111 -79t-139 -29q-74 0 -130 29t-92 79.5t-49.5 115t-3.5 134.5q12 74 46.5 139t87 114.5t119 77.5t141.5 28q88 0 150.5 -41t99.5 -111l-27 -20
q-29 63 -87.5 100.5t-138.5 37.5q-68 0 -128 -25.5t-107.5 -70t-78.5 -103.5t-42 -126q-9 -63 2 -121t42.5 -104t81.5 -73t117 -27q65 0 119 23.5t96 64.5t71.5 92.5t44.5 107.5h-258z" />
    <glyph glyph-name="gcircumflex" unicode="&#x11d;" 
d="M338 652l-158 -121l-18 17l179 139l133 -140l-22 -17zM21 -30h31q-5 -46 8 -84.5t45 -61.5t83 -24q54 0 99 27t76 74.5t40 108.5l21 121q-30 -59 -81.5 -100t-118.5 -41q-63 0 -104.5 33.5t-58.5 88.5t-9 118q10 67 45.5 121.5t89 87t117.5 31.5q46 0 77.5 -21.5
t50 -56.5t23.5 -76l25 144h31l-77 -450q-11 -69 -46 -123.5t-87 -85.5t-115 -31q-60 0 -98.5 27t-55.5 72.5t-11 100.5zM84 230q-8 -55 6.5 -103t50 -77.5t91.5 -29.5q53 0 97 31t74 80t38 102q7 47 -6 94.5t-45.5 79.5t-83.5 33q-56 1 -103 -27.5t-78.5 -76.5t-40.5 -106z
" />
    <glyph glyph-name="Gbreve" unicode="&#x11e;" horiz-adv-x="745" 
d="M354 909l28 -1q-4 -43 21.5 -77.5t83.5 -34.5q40 0 69.5 16.5t49 42t28.5 53.5h28q-10 -36 -33 -67.5t-59 -51.5t-85 -20q-48 0 -78 20t-43 52t-10 68zM429 313l6 32l292 -1q-13 -68 -44.5 -131t-79.5 -113t-111 -79t-139 -29q-74 0 -130 29t-92 79.5t-49.5 115
t-3.5 134.5q12 74 46.5 139t87 114.5t119 77.5t141.5 28q88 0 150.5 -41t99.5 -111l-27 -20q-29 63 -87.5 100.5t-138.5 37.5q-68 0 -128 -25.5t-107.5 -70t-78.5 -103.5t-42 -126q-9 -63 2 -121t42.5 -104t81.5 -73t117 -27q65 0 119 23.5t96 64.5t71.5 92.5t44.5 107.5
h-258z" />
    <glyph glyph-name="gbreve" unicode="&#x11f;" 
d="M186 670h27q-2 -28 8 -54t34.5 -42.5t62.5 -16.5q40 0 69.5 16.5t49 42t28.5 53.5h28q-10 -36 -33 -67.5t-59 -51.5t-85 -20q-48 0 -78 20t-42.5 52t-9.5 68zM21 -30h31q-5 -46 8 -84.5t45 -61.5t83 -24q54 0 99 27t76 74.5t40 108.5l21 121q-30 -59 -81.5 -100
t-118.5 -41q-63 0 -104.5 33.5t-58.5 88.5t-9 118q10 67 45.5 121.5t89 87t117.5 31.5q46 0 77.5 -21.5t50 -56.5t23.5 -76l25 144h31l-77 -450q-11 -69 -46 -123.5t-87 -85.5t-115 -31q-60 0 -98.5 27t-55.5 72.5t-11 100.5zM84 230q-8 -55 6.5 -103t50 -77.5t91.5 -29.5
q53 0 97 31t74 80t38 102q7 47 -6 94.5t-45.5 79.5t-83.5 33q-56 1 -103 -27.5t-78.5 -76.5t-40.5 -106z" />
    <glyph glyph-name="Gdotaccent" unicode="&#x120;" horiz-adv-x="745" 
d="M464 793q1 9 10 16.5t18 7.5q10 0 15.5 -7t4.5 -17q-1 -9 -10 -16.5t-18 -7.5q-10 0 -15.5 7t-4.5 17zM429 313l6 32l292 -1q-13 -68 -44.5 -131t-79.5 -113t-111 -79t-139 -29q-74 0 -130 29t-92 79.5t-49.5 115t-3.5 134.5q12 74 46.5 139t87 114.5t119 77.5t141.5 28
q88 0 150.5 -41t99.5 -111l-27 -20q-29 63 -87.5 100.5t-138.5 37.5q-68 0 -128 -25.5t-107.5 -70t-78.5 -103.5t-42 -126q-9 -63 2 -121t42.5 -104t81.5 -73t117 -27q65 0 119 23.5t96 64.5t71.5 92.5t44.5 107.5h-258z" />
    <glyph glyph-name="gdotaccent" unicode="&#x121;" 
d="M304 567q1 9 9.5 16.5t17.5 7.5q10 0 15.5 -7.5t4.5 -17.5q-1 -9 -9.5 -16.5t-17.5 -7.5q-10 0 -15.5 7.5t-4.5 17.5zM21 -30h31q-5 -46 8 -84.5t45 -61.5t83 -24q54 0 99 27t76 74.5t40 108.5l21 121q-30 -59 -81.5 -100t-118.5 -41q-63 0 -104.5 33.5t-58.5 88.5
t-9 118q10 67 45.5 121.5t89 87t117.5 31.5q46 0 77.5 -21.5t50 -56.5t23.5 -76l25 144h31l-77 -450q-11 -69 -46 -123.5t-87 -85.5t-115 -31q-60 0 -98.5 27t-55.5 72.5t-11 100.5zM84 230q-8 -55 6.5 -103t50 -77.5t91.5 -29.5q53 0 97 31t74 80t38 102q7 47 -6 94.5
t-45.5 79.5t-83.5 33q-56 1 -103 -27.5t-78.5 -76.5t-40.5 -106z" />
    <glyph glyph-name="uni0122" unicode="&#x122;" horiz-adv-x="745" 
d="M429 313l6 32l292 -1q-13 -68 -44.5 -131t-79.5 -113t-111 -79t-139 -29q-74 0 -130 29t-92 79.5t-49.5 115t-3.5 134.5q12 74 46.5 139t87 114.5t119 77.5t141.5 28q88 0 150.5 -41t99.5 -111l-27 -20q-29 63 -87.5 100.5t-138.5 37.5q-68 0 -128 -25.5t-107.5 -70
t-78.5 -103.5t-42 -126q-9 -63 2 -121t42.5 -104t81.5 -73t117 -27q65 0 119 23.5t96 64.5t71.5 92.5t44.5 107.5h-258zM374 -70l30 -13l-151 -247l-21 8z" />
    <glyph glyph-name="uni0123" unicode="&#x123;" horiz-adv-x="553" 
d="M461 822l29 -14l-173 -234l-21 9zM21 -30h31q-5 -46 8 -84.5t45 -61.5t83 -24q54 0 99 27t76 74.5t40 108.5l21 121q-30 -59 -81.5 -100t-118.5 -41q-63 0 -104.5 33.5t-58.5 88.5t-9 118q10 67 45.5 121.5t89 87t117.5 31.5q46 0 77.5 -21.5t50 -56.5t23.5 -76l25 144
h31l-77 -450q-11 -69 -46 -123.5t-87 -85.5t-115 -31q-60 0 -98.5 27t-55.5 72.5t-11 100.5zM84 230q-8 -55 6.5 -103t50 -77.5t91.5 -29.5q53 0 97 31t74 80t38 102q7 47 -6 94.5t-45.5 79.5t-83.5 33q-56 1 -103 -27.5t-78.5 -76.5t-40.5 -106z" />
    <glyph glyph-name="Hcircumflex" unicode="&#x124;" horiz-adv-x="646" 
d="M451 891l-159 -122l-17 18l179 138l133 -140l-22 -16zM176 700h34l-52 -303h413l52 303h34l-121 -700h-32l62 366h-413l-63 -366h-33z" />
    <glyph glyph-name="hcircumflex" unicode="&#x125;" horiz-adv-x="474" 
d="M241 962l-159 -121l-17 17l179 139l133 -140l-22 -17zM391 308q5 35 -1 64.5t-26.5 48.5t-60.5 19q-42 0 -76 -20.5t-58 -54t-35 -71.5l-51 -294h-32l135 780h31l-72 -421q26 48 69 79.5t98 31.5q47 0 73 -22t35 -58t3 -79l-54 -311h-31z" />
    <glyph glyph-name="Hbar" unicode="&#x126;" horiz-adv-x="646" 
d="M78 585l4 30h80l14 85h35l-15 -85h413l14 85h34l-15 -85h80l-5 -30h-80l-101 -585h-32l62 366h-413l-63 -366h-33l99 585h-78zM159 397h412l32 188h-412z" />
    <glyph glyph-name="hbar" unicode="&#x127;" horiz-adv-x="509" 
d="M391 308q5 35 -0.5 64.5t-26 48t-60.5 18.5q-42 0 -76.5 -20.5t-58.5 -53.5t-35 -71l-51 -294h-32l116 670h-75l5 30h75l14 80h31l-14 -80h198l-5 -30h-198l-54 -317q24 49 67 83t100 34q47 0 73.5 -22t35.5 -58t3 -79l-54 -311h-31z" />
    <glyph glyph-name="Itilde" unicode="&#x128;" horiz-adv-x="193" 
d="M83 824q10 24 31 44t53 20q25 0 41 -11.5t31.5 -23t39.5 -11.5q20 1 35 15t28 33l19 -16q-15 -23 -36.5 -41t-49.5 -17q-24 0 -40.5 11.5t-32 23t-36.5 11.5q-28 0 -42 -16.5t-20 -33.5zM173 700h33l-121 -700h-32z" />
    <glyph glyph-name="itilde" unicode="&#x129;" horiz-adv-x="204" 
d="M49 584q10 24 31 44t53 20q25 0 41 -11.5l32 -23t39 -11.5q20 1 35 15t28 33l18 -16q-15 -23 -36 -41t-49 -17q-23 0 -40 11.5t-32.5 23t-36.5 11.5q-28 0 -42 -16.5t-20 -33.5zM139 460h31l-80 -460h-30z" />
    <glyph glyph-name="Imacron" unicode="&#x12a;" horiz-adv-x="193" 
d="M62 815l4 30h341l-5 -30h-340zM173 700h33l-121 -700h-32z" />
    <glyph glyph-name="imacron" unicode="&#x12b;" horiz-adv-x="204" 
d="M27 575l5 30h340l-4 -30h-341zM139 460h31l-80 -460h-30z" />
    <glyph glyph-name="Ibreve" unicode="&#x12c;" horiz-adv-x="193" 
d="M71 910h27q-2 -28 8 -54t34.5 -42.5t62.5 -16.5q40 0 69.5 16.5t49 42t28.5 53.5h28q-10 -36 -33 -67.5t-59 -51.5t-85 -20q-48 0 -78 20t-42.5 52t-9.5 68zM173 700h33l-121 -700h-32z" />
    <glyph glyph-name="ibreve" unicode="&#x12d;" horiz-adv-x="204" 
d="M37 670h28q-2 -28 8 -54t34.5 -42.5t62.5 -16.5q40 0 69.5 16.5t48.5 42t28 53.5h29q-10 -36 -33 -67.5t-59 -51.5t-85 -20q-48 0 -78 20t-43 52t-10 68zM140 460h31l-80 -460h-30z" />
    <glyph glyph-name="Iogonek" unicode="&#x12e;" horiz-adv-x="193" 
d="M83 -160l11 -21q-17 -15 -42.5 -27t-55.5 -12q-46 0 -72.5 23.5t-20.5 63.5q5 33 29 58.5t56.5 45t65.5 35.5l119 694h33l-121 -699l1 -1q-30 -14 -63 -32.5t-58 -42t-30 -53.5q-4 -30 16 -46t50 -17q25 -1 46 9.5t36 21.5z" />
    <glyph glyph-name="iogonek" unicode="&#x12f;" horiz-adv-x="204" 
d="M169 682q1 9 8.5 16t17.5 7t15.5 -7.5t4.5 -16.5t-9 -16t-18 -7t-15 7.5t-4 16.5zM88 -160l11 -21q-17 -15 -42.5 -27t-55.5 -12q-46 0 -72.5 23.5t-20.5 63.5q5 33 29.5 58.5t57.5 45.5t66 36l78 453h31l-80 -459l1 -1q-30 -14 -63 -32.5t-58 -42t-30 -53.5
q-4 -30 16 -46t50 -17q25 -1 46 9.5t36 21.5z" />
    <glyph glyph-name="Idotaccent" unicode="&#x130;" horiz-adv-x="193" 
d="M182 798q1 9 10 16.5t18 7.5q10 0 15.5 -7t4.5 -17q-1 -9 -10 -16.5t-18 -7.5q-10 0 -15.5 7t-4.5 17zM173 700h33l-121 -700h-32z" />
    <glyph glyph-name="dotlessi" unicode="&#x131;" horiz-adv-x="204" 
d="M139 460h31l-80 -460h-30z" />
    <glyph glyph-name="IJ" unicode="&#x132;" horiz-adv-x="475" 
d="M85 -142q16 -18 38 -32t51 -14q56 0 84 38.5t37 99.5l129 750h31l-129 -760q-11 -70 -48 -115.5t-108 -44.5q-36 0 -64 17.5t-43 36.5zM173 700h33l-121 -700h-32z" />
    <glyph glyph-name="ij" unicode="&#x133;" horiz-adv-x="494" 
d="M411 682q1 9 9 16t18 7t15.5 -7.5t4.5 -16.5t-9 -16t-18 -7t-15.5 7.5t-4.5 16.5zM169 682q1 9 8.5 16t17.5 7t15.5 -7.5t4.5 -16.5t-9 -16t-18 -7t-15 7.5t-4 16.5zM129 -150q12 -7 26.5 -22t33.5 -16q31 -2 52 16.5t33 46t16 53.5l92 532h31l-92 -535q-6 -36 -22.5 -70
t-45 -55t-69.5 -20q-28 1 -46.5 15.5t-30.5 30.5zM139 460h31l-80 -460h-30z" />
    <glyph glyph-name="Jcircumflex" unicode="&#x134;" horiz-adv-x="203" 
d="M230 891l-158 -122l-16 18l179 138l132 -140l-22 -16zM-158 -142q16 -18 38.5 -32t51.5 -14q56 0 83.5 38.5t36.5 99.5l129 750h32l-130 -760q-11 -70 -47.5 -115.5t-107.5 -44.5q-36 0 -64 17.5t-43 36.5z" />
    <glyph glyph-name="jcircumflex" unicode="&#x135;" horiz-adv-x="194" 
d="M178 652l-157 -121l-18 17l179 139l133 -140l-22 -17zM-123 -150q11 -15 25 -26t35 -12q32 0 52.5 17.5t32 44.5t16.5 54l91 532h31l-91 -535q-6 -36 -22.5 -70t-45 -55t-69.5 -20q-28 1 -46.5 15.5t-30.5 30.5z" />
    <glyph glyph-name="uni0136" unicode="&#x136;" horiz-adv-x="472" 
d="M173 700h34l-55 -318l345 317h44l-360 -328l253 -371h-41l-245 361l-62 -361h-33zM267 -61l30 -13l-150 -248l-21 8z" />
    <glyph glyph-name="uni0137" unicode="&#x137;" horiz-adv-x="380" 
d="M366 459h43l-257 -190l195 -269h-38l-186 259l-45 -259h-31l133 780h32l-86 -500zM220 -61l30 -13l-150 -248l-21 8z" />
    <glyph glyph-name="kgreenlandic" unicode="&#x138;" horiz-adv-x="380" 
d="M126 460h32l-31 -179l239 178h43l-257 -190l195 -269h-38l-186 259l-45 -259h-31z" />
    <glyph glyph-name="Lacute" unicode="&#x139;" horiz-adv-x="422" 
d="M534 922l-198 -152l-14 12l186 158zM177 700h33l-115 -669h290l-5 -31h-323z" />
    <glyph glyph-name="lacute" unicode="&#x13a;" horiz-adv-x="188" 
d="M395 993l-197 -152l-15 13l186 158zM185 780h32l-135 -780h-30z" />
    <glyph glyph-name="uni013B" unicode="&#x13b;" horiz-adv-x="422" 
d="M177 700h33l-115 -669h290l-5 -31h-323zM214 -61l30 -13l-150 -248l-21 8z" />
    <glyph glyph-name="uni013C" unicode="&#x13c;" horiz-adv-x="188" 
d="M185 780h32l-135 -780h-30zM77 -61l30 -13l-151 -248l-21 8z" />
    <glyph glyph-name="Lcaron" unicode="&#x13d;" horiz-adv-x="422" 
d="M423 708l31 -13l-151 -248l-21 8zM177 700h33l-115 -669h290l-5 -31h-323z" />
    <glyph glyph-name="lcaron" unicode="&#x13e;" horiz-adv-x="223" 
d="M185 780h32l-135 -780h-30zM407 768l30 -13l-151 -248l-21 8z" />
    <glyph glyph-name="Ldot" unicode="&#x13f;" horiz-adv-x="422" 
d="M177 700h33l-115 -669h290l-5 -31h-323zM300 415q1 9 10 16.5t18 7.5q10 0 15.5 -7.5t4.5 -17.5q-1 -9 -9.5 -16.5t-17.5 -7.5q-10 0 -16 7.5t-5 17.5z" />
    <glyph glyph-name="ldot" unicode="&#x140;" horiz-adv-x="359" 
d="M185 780h32l-135 -780h-30zM260 402q1 9 10 16.5t18 7.5q10 0 15.5 -7.5t4.5 -17.5q-1 -9 -10 -16t-18 -7q-10 0 -15.5 7t-4.5 17z" />
    <glyph glyph-name="Lslash" unicode="&#x141;" horiz-adv-x="385" 
d="M32 373l-6 23l102 59l42 245h34l-38 -223l151 87l6 -22l-162 -94l-72 -417h266l-6 -31h-299l73 426z" />
    <glyph glyph-name="lslash" unicode="&#x142;" horiz-adv-x="175" 
d="M33 373l-8 23l99 66l55 318h31l-51 -294l88 58l7 -22l-100 -67l-78 -455h-31l74 431z" />
    <glyph glyph-name="Nacute" unicode="&#x143;" horiz-adv-x="677" 
d="M616 908l-198 -152l-15 13l187 158zM667 700h33l-124 -721l-405 651l-108 -630h-34l124 721l405 -655z" />
    <glyph glyph-name="nacute" unicode="&#x144;" horiz-adv-x="474" 
d="M469 690l-197 -152l-15 13l187 158zM162 460l-19 -108q26 50 69 84t100 34q47 0 73 -22t35 -58t3 -79l-54 -311h-31l53 308q5 35 -1 64.5t-26.5 48.5t-60.5 19q-42 0 -76 -20.5t-58 -54t-36 -71.5l-50 -294h-32l80 460h31z" />
    <glyph glyph-name="uni0145" unicode="&#x145;" horiz-adv-x="677" 
d="M667 700h33l-124 -721l-405 651l-108 -630h-34l124 721l405 -655zM314 -43l31 -13l-151 -248l-21 8z" />
    <glyph glyph-name="uni0146" unicode="&#x146;" horiz-adv-x="474" 
d="M162 460l-17 -101q26 48 69 79.5t98 31.5q47 0 73 -22t35 -58t3 -79l-54 -311h-31l53 308q5 35 -1 64.5t-26.5 48.5t-60.5 19q-42 0 -76 -20.5t-58 -54t-36 -71.5l-50 -294h-32l80 460h31zM215 -47l31 -13l-151 -248l-21 8z" />
    <glyph glyph-name="Ncaron" unicode="&#x147;" horiz-adv-x="677" 
d="M457 809l157 122l18 -18l-179 -138l-132 139l22 18zM667 700h33l-124 -721l-405 651l-108 -630h-34l124 721l405 -655z" />
    <glyph glyph-name="ncaron" unicode="&#x148;" horiz-adv-x="474" 
d="M306 565l157 122l18 -18l-179 -139l-132 140l22 18zM162 460l-17 -101q26 48 69 79.5t98 31.5q47 0 73 -22t35 -58t3 -79l-54 -311h-31l53 308q5 35 -1 64.5t-26.5 48.5t-60.5 19q-42 0 -76 -20.5t-58 -54t-36 -71.5l-50 -294h-32l80 460h31z" />
    <glyph glyph-name="napostrophe" unicode="&#x149;" horiz-adv-x="602" 
d="M248 699h37l-135 -228h-23zM255 460l-17 -101q26 48 69 79.5t98 31.5q47 0 73 -22t35 -58t3 -79l-54 -311h-31l54 308q5 35 -1 64.5t-26.5 48.5t-60.5 19q-44 1 -80 -22t-59.5 -59t-32.5 -75l-49 -284h-31l80 460h30z" />
    <glyph glyph-name="Omacron" unicode="&#x14c;" horiz-adv-x="755" 
d="M315 783l4 29h341l-5 -29h-340zM78 350q11 74 45.5 138.5t87 114.5t118.5 78t141 28q74 0 130 -29.5t91 -80t48.5 -115t3.5 -134.5q-11 -73 -45.5 -138t-87 -115t-118.5 -78t-141 -28q-74 0 -130 29.5t-91 80t-48.5 115t-3.5 134.5zM113 350q-9 -63 2 -121t41.5 -104
t80.5 -73t117 -27q68 0 128 25.5t107.5 70.5t78.5 104t41 125q9 63 -2 121t-42 104t-80.5 73t-117.5 27t-128 -25.5t-107 -70.5t-77.5 -104t-41.5 -125z" />
    <glyph glyph-name="omacron" unicode="&#x14d;" horiz-adv-x="535" 
d="M164 544l5 30h340l-5 -30h-340zM52 230q10 66 48.5 120.5t95.5 87t124 32.5t112 -33.5t65.5 -88.5t11.5 -118q-10 -65 -48.5 -120t-95.5 -87.5t-124 -32.5q-66 0 -111.5 33.5t-66 88.5t-11.5 118zM84 230q-8 -54 8.5 -102t55 -78t95.5 -30q59 0 108.5 28.5t83 76.5
t42.5 105q9 55 -7.5 102.5t-55 77.5t-96.5 30t-108 -28.5t-83.5 -76t-42.5 -105.5z" />
    <glyph glyph-name="Obreve" unicode="&#x14e;" horiz-adv-x="755" 
d="M352 909l28 -1q-4 -43 21.5 -77.5t83.5 -34.5q40 0 69.5 16.5t48.5 42t28 53.5h29q-10 -36 -33 -67.5t-59 -51.5t-85 -20q-48 0 -78 20t-43 52t-10 68zM78 350q11 74 45.5 138.5t87 114.5t118.5 78t141 28q74 0 130 -29.5t91 -80t48.5 -115t3.5 -134.5
q-11 -73 -45.5 -138t-87 -115t-118.5 -78t-141 -28q-74 0 -130 29.5t-91 80t-48.5 115t-3.5 134.5zM113 350q-9 -63 2 -121t41.5 -104t80.5 -73t117 -27q68 0 128 25.5t107.5 70.5t78.5 104t41 125q9 63 -2 121t-42 104t-80.5 73t-117.5 27t-128 -25.5t-107 -70.5
t-77.5 -104t-41.5 -125z" />
    <glyph glyph-name="obreve" unicode="&#x14f;" horiz-adv-x="535" 
d="M202 670h28q-2 -28 8 -54t34.5 -42.5t62.5 -16.5q40 0 69.5 16.5t48.5 42t28 53.5h29q-10 -36 -33 -67.5t-59 -51.5t-85 -20q-48 0 -78 20t-43 52t-10 68zM52 230q10 66 48.5 120.5t95.5 87t124 32.5t112 -33.5t65.5 -88.5t11.5 -118q-10 -65 -48.5 -120t-95.5 -87.5
t-124 -32.5q-66 0 -111.5 33.5t-66 88.5t-11.5 118zM84 230q-8 -54 8.5 -102t55 -78t95.5 -30q59 0 108.5 28.5t83 76.5t42.5 105q9 55 -7.5 102.5t-55 77.5t-96.5 30t-108 -28.5t-83.5 -76t-42.5 -105.5z" />
    <glyph glyph-name="OE" unicode="&#x152;" horiz-adv-x="931" 
d="M838 31l-5 -31h-479q-99 2 -167.5 49.5t-98.5 126t-16 174.5q16 100 71.5 178.5t140 124.5t186.5 47h481l-5 -31h-325l-46 -266h306l-5 -32h-306l-59 -340h327zM356 31h123l109 638h-120q-92 -1 -169 -43.5t-128.5 -114t-66.5 -161.5q-13 -85 13.5 -157t88 -116
t150.5 -46z" />
    <glyph glyph-name="oe" unicode="&#x153;" horiz-adv-x="889" 
d="M52 230q10 67 45 121.5t88 87t115 31.5q50 0 84.5 -24t54 -63.5t23.5 -87.5q19 49 53.5 89t81 63t100.5 23q58 0 98.5 -32t59.5 -82.5t11 -108.5q-1 -6 -2.5 -12t-3.5 -12h-391q-5 -53 9 -99t48.5 -75t90.5 -29q63 -1 111 29.5t83 73.5l23 -18q-41 -48 -94.5 -82
t-124.5 -33q-53 0 -90 24t-57.5 62.5t-25.5 85.5q-18 -50 -51.5 -88.5t-76.5 -61t-93 -22.5q-62 0 -103 33.5t-57.5 88.5t-8.5 118zM833 250q8 46 -5.5 89.5t-47.5 72.5t-88 29q-56 0 -100.5 -27t-74.5 -71t-43 -93h359zM84 230q-8 -55 5.5 -103t48.5 -77.5t90 -29.5
q51 0 95.5 29t75.5 77t39 104q7 53 -6.5 100.5t-45.5 78t-83 31.5q-55 1 -101.5 -27.5t-77.5 -76.5t-40 -106z" />
    <glyph glyph-name="Racute" unicode="&#x154;" horiz-adv-x="480" 
d="M496 922l-197 -152l-16 12l187 158zM176 700h133q63 -1 111 -24.5t72.5 -67.5t14.5 -106q-9 -59 -43 -101t-84.5 -66.5t-109.5 -29.5l157 -305h-39l-154 304h-92l-52 -304h-33zM307 669h-102l-58 -336h100q57 1 105 20.5t80.5 57t41.5 91.5t-11 90.5t-60.5 56t-95.5 20.5
z" />
    <glyph glyph-name="racute" unicode="&#x155;" horiz-adv-x="296" 
d="M403 683l-197 -152l-15 13l187 158zM162 460l-14 -79q20 39 50.5 64.5t71.5 24.5q19 0 35 -7.5t30 -18.5l-21 -25q-13 8 -25.5 14.5t-27.5 6.5q-35 1 -60 -19t-41 -51t-25 -65l-52 -305h-32l80 460h31z" />
    <glyph glyph-name="uni0156" unicode="&#x156;" horiz-adv-x="480" 
d="M176 700h133q63 -1 111 -24.5t72.5 -67.5t14.5 -106q-9 -59 -43 -101t-84.5 -66.5t-109.5 -29.5l157 -305h-39l-154 304h-92l-52 -304h-33zM307 669h-102l-58 -336h100q57 1 105 20.5t80.5 57t41.5 91.5t-11 90.5t-60.5 56t-95.5 20.5zM231 -61l31 -13l-150 -248l-22 8z
" />
    <glyph glyph-name="uni0157" unicode="&#x157;" horiz-adv-x="296" 
d="M162 460l-14 -79q20 39 50.5 64.5t71.5 24.5q19 0 35 -7.5t30 -18.5l-21 -25q-13 8 -25.5 14.5t-27.5 6.5q-35 1 -60 -19t-41 -51t-25 -65l-52 -305h-32l80 460h31zM63 -61l30 -13l-150 -248l-21 8z" />
    <glyph glyph-name="Rcaron" unicode="&#x158;" horiz-adv-x="480" 
d="M338 803l157 123l18 -19l-179 -138l-133 140l23 17zM176 700h133q63 -1 111 -24.5t72.5 -67.5t14.5 -106q-9 -59 -43 -101t-84.5 -66.5t-109.5 -29.5l157 -305h-39l-154 304h-92l-52 -304h-33zM307 669h-102l-58 -336h100q57 1 105 20.5t80.5 57t41.5 91.5t-11 90.5
t-60.5 56t-95.5 20.5z" />
    <glyph glyph-name="rcaron" unicode="&#x159;" horiz-adv-x="296" 
d="M250 565l157 122l19 -18l-179 -139l-133 140l22 18zM162 460l-14 -79q20 39 50.5 64.5t71.5 24.5q19 0 35 -7.5t30 -18.5l-21 -25q-13 8 -25.5 14.5t-27.5 6.5q-35 1 -60 -19t-41 -51t-25 -65l-52 -305h-32l80 460h31z" />
    <glyph glyph-name="Sacute" unicode="&#x15a;" horiz-adv-x="490" 
d="M542 922l-196 -152l-16 12l186 158zM75 206q9 -43 26 -84.5t49 -69t85 -28.5q78 -1 125 43t57 110q7 46 -10.5 79.5t-49.5 57t-69 39.5q-39 17 -75 42.5t-57 62.5t-14 88q8 48 37.5 84.5t73 57t92.5 20.5q52 0 86 -22.5t53.5 -58t25.5 -74.5l-30 -15q-6 34 -21.5 65.5
t-43 52t-72.5 20.5q-40 0 -76 -17t-60 -47t-31 -68q-7 -44 13 -75t55 -53t73 -39q40 -17 73 -44t51 -64.5t11 -89.5q-8 -52 -36.5 -95t-75.5 -67.5t-110 -24.5q-59 1 -97 29.5t-59 74t-30 94.5z" />
    <glyph glyph-name="sacute" unicode="&#x15b;" horiz-adv-x="391" 
d="M441 683l-196 -152l-16 13l186 158zM59 151q3 -32 13.5 -62t34.5 -49.5t64 -19.5q47 0 82.5 27.5t42.5 71.5q5 30 -8 50t-36.5 33.5t-51.5 23.5q-32 12 -58.5 27.5t-40 40t-7.5 62.5q6 35 28.5 60t55 38.5t67.5 13.5q53 0 83.5 -28t40.5 -69l-27 -14q-10 32 -34 56.5
t-66 24.5q-41 0 -75.5 -22t-41.5 -62q-5 -32 8.5 -51.5t38.5 -32t52 -22.5q30 -11 55.5 -28t39.5 -41t9 -58q-8 -60 -54 -96t-107 -35q-47 0 -76 21.5t-43 55.5t-17 71z" />
    <glyph glyph-name="Scircumflex" unicode="&#x15c;" horiz-adv-x="490" 
d="M379 891l-157 -122l-18 18l179 138l133 -140l-22 -16zM75 206q9 -43 26 -84.5t49 -69t85 -28.5q78 -1 125 43t57 110q7 46 -10.5 79.5t-49.5 57t-69 39.5q-39 17 -75 42.5t-57 62.5t-14 88q8 48 37.5 84.5t73 57t92.5 20.5q52 0 86 -22.5t53.5 -58t25.5 -74.5l-30 -15
q-6 34 -21.5 65.5t-43 52t-72.5 20.5q-40 0 -76 -17t-60 -47t-31 -68q-7 -44 13 -75t55 -53t73 -39q40 -17 73 -44t51 -64.5t11 -89.5q-8 -52 -36.5 -95t-75.5 -67.5t-110 -24.5q-59 1 -97 29.5t-59 74t-30 94.5z" />
    <glyph glyph-name="scircumflex" unicode="&#x15d;" horiz-adv-x="391" 
d="M278 652l-157 -121l-18 17l179 139l133 -140l-22 -17zM59 151q3 -32 13.5 -62t34.5 -49.5t64 -19.5q47 0 82.5 27.5t42.5 71.5q5 30 -8 50t-36.5 33.5t-51.5 23.5q-32 12 -58.5 27.5t-40 40t-7.5 62.5q6 35 28.5 60t55 38.5t67.5 13.5q53 0 83.5 -28t40.5 -69l-27 -14
q-10 32 -34 56.5t-66 24.5q-41 0 -75.5 -22t-41.5 -62q-5 -32 8.5 -51.5t38.5 -32t52 -22.5q30 -11 55.5 -28t39.5 -41t9 -58q-8 -60 -54 -96t-107 -35q-47 0 -76 21.5t-43 55.5t-17 71z" />
    <glyph glyph-name="Scedilla" unicode="&#x15e;" horiz-adv-x="490" 
d="M75 206q9 -43 26 -84.5t49 -69t85 -28.5q78 -1 125 43t57 110q7 46 -10.5 79.5t-49.5 57t-69 39.5q-39 17 -75.5 41.5t-57.5 61t-14 88.5q8 48 37.5 85t73 58t93.5 21q52 0 85.5 -22.5t53 -58t26.5 -74.5l-30 -15q-6 34 -22 65.5t-44.5 52t-73.5 20.5q-40 0 -75 -17
t-58.5 -47t-30.5 -68q-7 -44 13 -75t55 -53t73 -39q40 -17 73 -44t51 -64.5t11 -89.5q-8 -51 -36 -93t-73 -67.5t-105 -26.5l-51 -61q13 7 24.5 12t27.5 4q27 -1 45 -22t14 -53q-3 -28 -21.5 -49t-44.5 -32t-53 -11q-26 0 -44.5 9t-37.5 28l17 16q16 -14 31 -22t36 -8
q31 0 60.5 19t33.5 51q3 25 -11 39.5t-36 15.5q-19 2 -40 -5t-38 -17l64 87q-53 4 -87.5 33.5t-54 73t-28.5 90.5z" />
    <glyph glyph-name="scedilla" unicode="&#x15f;" horiz-adv-x="391" 
d="M58 152q5 -31 17 -61.5t35 -50t62 -20.5q45 -1 81 27t43 72q5 30 -8 49.5t-36.5 33t-51.5 23.5q-32 12 -58.5 27t-40 39.5t-7.5 63.5q6 36 28.5 61t55 38.5t67.5 13.5q53 0 82 -27.5t42 -68.5l-27 -14q-10 33 -34 57t-66 24q-41 0 -75.5 -21.5t-41.5 -61.5
q-5 -32 8.5 -52t38 -32.5t52.5 -22.5q30 -11 55.5 -27.5t39.5 -41t9 -59.5q-8 -58 -50.5 -92.5t-99.5 -37.5l-52 -61q13 7 24.5 12t27.5 4q27 -1 45.5 -22t14.5 -53q-3 -28 -21.5 -49t-45 -32.5t-53.5 -11.5q-26 0 -44 9.5t-37 28.5l16 16q16 -14 31 -22t36 -8q31 0 60.5 19
t33.5 51q3 25 -11.5 39.5t-36.5 15.5q-19 2 -39 -5.5t-37 -17.5l64 88q-41 4 -66.5 25.5t-38.5 53.5t-18 67z" />
    <glyph glyph-name="Scaron" unicode="&#x160;" horiz-adv-x="490" 
d="M363 810l157 122l18 -18l-179 -138l-133 140l23 17zM75 206q9 -43 26 -84.5t49 -69t85 -28.5q78 -1 125 43t57 110q7 46 -10.5 79.5t-49.5 57t-69 39.5q-39 17 -75 42.5t-57 62.5t-14 88q8 48 37.5 84.5t73 57t92.5 20.5q52 0 86 -22.5t53.5 -58t25.5 -74.5l-30 -15
q-6 34 -21.5 65.5t-43 52t-72.5 20.5q-40 0 -76 -17t-60 -47t-31 -68q-7 -44 13 -75t55 -53t73 -39q40 -17 73 -44t51 -64.5t11 -89.5q-8 -52 -36.5 -95t-75.5 -67.5t-110 -24.5q-59 1 -97 29.5t-59 74t-30 94.5z" />
    <glyph glyph-name="scaron" unicode="&#x161;" horiz-adv-x="391" 
d="M261 565l157 122l18 -18l-179 -139l-133 140l23 18zM59 151q3 -32 13.5 -62t34.5 -49.5t64 -19.5q47 0 82.5 27.5t42.5 71.5q5 30 -8 50t-36.5 33.5t-51.5 23.5q-32 12 -58.5 27.5t-40 40t-7.5 62.5q6 35 28.5 60t55 38.5t67.5 13.5q53 0 83.5 -28t40.5 -69l-27 -14
q-10 32 -34 56.5t-66 24.5q-41 0 -75.5 -22t-41.5 -62q-5 -32 8.5 -51.5t38.5 -32t52 -22.5q30 -11 55.5 -28t39.5 -41t9 -58q-8 -60 -54 -96t-107 -35q-47 0 -76 21.5t-43 55.5t-17 71z" />
    <glyph glyph-name="Tcaron" unicode="&#x164;" horiz-adv-x="427" 
d="M323 803l157 123l18 -19l-179 -138l-133 140l23 17zM103 668l5 32h397l-6 -32h-181l-115 -668h-33l114 668h-181z" />
    <glyph glyph-name="tcaron" unicode="&#x165;" horiz-adv-x="291" 
d="M379 785l30 -13l-150 -248l-21 8zM63 460h73l27 160h32l-28 -160h73l-6 -30h-72l-75 -430h-30l74 430h-74z" />
    <glyph glyph-name="Utilde" unicode="&#x168;" horiz-adv-x="572" 
d="M260 781q5 25 28.5 44.5t53.5 19.5q25 0 41 -11.5t32.5 -23t39.5 -11.5q20 1 35 14.5t28 32.5l18 -16q-15 -23 -35.5 -40.5t-48.5 -16.5q-23 0 -40 11.5t-33 23t-37 11.5q-28 0 -41.5 -16.5t-19.5 -33.5zM172 700h33l-82 -477q-7 -53 4.5 -98.5t44.5 -73t90 -28.5
q58 0 101.5 26.5t71.5 72t37 101.5l82 477h34l-82 -477q-11 -64 -43 -117t-83 -84.5t-120 -31.5q-68 0 -108 32.5t-55 85.5t-7 115z" />
    <glyph glyph-name="utilde" unicode="&#x169;" horiz-adv-x="474" 
d="M169 543q9 24 30 44t53 20q25 0 41 -11.5l32 -23t39 -11.5q20 1 35.5 14.5t28.5 32.5l18 -16q-15 -23 -36 -41t-49 -17q-23 0 -40 11.5t-32.5 23t-36.5 11.5q-28 0 -42 -16.5t-20 -33.5zM110 159q-4 -37 1 -68t25 -50t61 -20q44 0 79 22t58.5 57.5t33.5 75.5l49 284h32
l-80 -460h-31l18 105q-25 -49 -68 -82.5t-99 -32.5q-48 0 -74 23t-33.5 60.5t-2.5 82.5l52 304h31z" />
    <glyph glyph-name="Umacron" unicode="&#x16a;" horiz-adv-x="572" 
d="M221 769l5 29h341l-5 -29h-341zM172 700h33l-82 -477q-7 -53 4.5 -98.5t44.5 -73t90 -28.5q58 0 101.5 26.5t71.5 72t37 101.5l82 477h34l-82 -477q-11 -64 -43 -117t-83 -84.5t-120 -31.5q-68 0 -108 32.5t-55 85.5t-7 115z" />
    <glyph glyph-name="umacron" unicode="&#x16b;" horiz-adv-x="474" 
d="M132 530l4 30h341l-5 -30h-340zM110 159q-4 -37 1 -68t25 -50t61 -20q44 0 79 22t58.5 57.5t33.5 75.5l49 284h32l-80 -460h-31l18 105q-25 -49 -68 -82.5t-99 -32.5q-48 0 -74 23t-33.5 60.5t-2.5 82.5l52 304h31z" />
    <glyph glyph-name="Ubreve" unicode="&#x16c;" horiz-adv-x="572" 
d="M261 909l28 -1q-4 -43 21.5 -77.5t83.5 -34.5q40 0 69.5 16.5t48.5 42t28 53.5l29 -1q-9 -36 -32.5 -67.5t-59 -51t-84.5 -19.5q-48 0 -78 20t-43.5 52t-10.5 68zM172 700h33l-82 -477q-7 -53 4.5 -98.5t44.5 -73t90 -28.5q58 0 101.5 26.5t71.5 72t37 101.5l82 477h34
l-82 -477q-11 -64 -43 -117t-83 -84.5t-120 -31.5q-68 0 -108 32.5t-55 85.5t-7 115z" />
    <glyph glyph-name="ubreve" unicode="&#x16d;" horiz-adv-x="474" 
d="M172 670h27q-2 -28 8 -54t34.5 -42.5t62.5 -16.5q40 0 69.5 16.5t48.5 42t28 53.5h29q-9 -36 -32.5 -67.5t-59 -51.5t-84.5 -20q-48 0 -78 20t-43 52t-10 68zM110 159q-4 -37 1 -68t25 -50t61 -20q44 0 79 22t58.5 57.5t33.5 75.5l49 284h32l-80 -460h-31l18 105
q-25 -49 -68 -82.5t-99 -32.5q-48 0 -74 23t-33.5 60.5t-2.5 82.5l52 304h31z" />
    <glyph glyph-name="Uring" unicode="&#x16e;" horiz-adv-x="572" 
d="M308 869q4 28 21.5 50t43 35.5t51.5 13.5q40 0 65 -29.5t19 -70.5q-4 -27 -21.5 -49.5t-42.5 -36t-52 -13.5q-40 0 -65 30t-19 70zM331 868q-4 -31 14 -54t49 -24t59 23.5t32 55.5q5 31 -13.5 54t-49.5 24t-58.5 -23t-32.5 -56zM172 700h33l-82 -477q-7 -53 4.5 -98.5
t44.5 -73t90 -28.5q58 0 101.5 26.5t71.5 72t37 101.5l82 477h34l-82 -477q-11 -64 -43 -117t-83 -84.5t-120 -31.5q-68 0 -108 32.5t-55 85.5t-7 115z" />
    <glyph glyph-name="uring" unicode="&#x16f;" horiz-adv-x="474" 
d="M219 631q4 28 21.5 50t43 35.5t51.5 13.5q40 0 64.5 -30t18.5 -71q-4 -27 -21.5 -49.5t-42.5 -36t-52 -13.5q-40 0 -64.5 30.5t-18.5 70.5zM241 630q-4 -31 14 -54t49 -24q21 0 41 10.5t34 28.5t17 39q5 31 -13.5 54t-49.5 24q-20 1 -40.5 -10t-34.5 -29t-17 -39z
M110 159q-4 -37 1 -68t25 -50.5t61 -20.5q42 0 76 20.5t58 54t36 71.5l50 294h32l-80 -460h-31l18 105q-25 -49 -68.5 -82.5t-99.5 -32.5q-48 0 -74 23t-33 61t-2 82l52 304h31z" />
    <glyph glyph-name="Wcircumflex" unicode="&#x174;" horiz-adv-x="932" 
d="M595 904l-157 -122l-18 18l178 138l133 -140l-21 -17zM667 73l306 627h37l-357 -723l-107 647l-314 -647l-124 723h35l106 -627l313 650z" />
    <glyph glyph-name="wcircumflex" unicode="&#x175;" horiz-adv-x="618" 
d="M394 664l-158 -122l-18 18l179 138l133 -140l-22 -17zM64 460h33l57 -397l206 419l70 -420l196 398h35l-243 -482l-71 419l-209 -419z" />
    <glyph glyph-name="Ycircumflex" unicode="&#x176;" horiz-adv-x="507" 
d="M378 891l-158 -122l-18 18l179 138l133 -140l-22 -16zM551 699h40l-304 -423l-47 -276h-34l49 278l-151 422h37l134 -389z" />
    <glyph glyph-name="ycircumflex" unicode="&#x177;" horiz-adv-x="416" 
d="M287 652l-157 -122l-18 18l178 138l133 -140l-21 -16zM463 460l-408 -680l-36 1l154 254l-115 425h36l101 -393l232 393h36z" />
    <glyph glyph-name="Ydieresis" unicode="&#x178;" horiz-adv-x="507" 
d="M248 794q1 9 10 16t18 7q10 0 15.5 -7t4.5 -17q-1 -9 -9.5 -16.5t-17.5 -7.5q-10 0 -16 7.5t-5 17.5zM428 794q1 9 10 16t18 7q10 0 16 -7t5 -17q-1 -9 -10 -16.5t-18 -7.5q-10 0 -16 7.5t-5 17.5zM552 699h38l-303 -422l-47 -277h-34l49 278l-151 422h37l134 -389z" />
    <glyph glyph-name="Zacute" unicode="&#x179;" horiz-adv-x="521" 
d="M549 922l-198 -152l-15 12l187 158zM124 668l5 32h470l-545 -667l418 -1l-5 -32h-477l545 667z" />
    <glyph glyph-name="zacute" unicode="&#x17a;" horiz-adv-x="425" 
d="M458 690l-197 -153l-15 13l186 158zM390 430h-304l5 30h363l-400 -430h327l-5 -30h-386z" />
    <glyph glyph-name="Zdotaccent" unicode="&#x17b;" horiz-adv-x="521" 
d="M356 793q1 9 9.5 16.5t17.5 7.5q10 0 16 -7t5 -17q-1 -9 -10 -16.5t-18 -7.5q-10 0 -15.5 7t-4.5 17zM124 668l5 32h470l-545 -667l418 -1l-5 -32h-477l545 667z" />
    <glyph glyph-name="zdotaccent" unicode="&#x17c;" horiz-adv-x="425" 
d="M269 585q1 9 10 16.5t18 7.5q10 0 15.5 -7.5t4.5 -17.5q-1 -9 -9.5 -16.5t-17.5 -7.5q-10 0 -16 7.5t-5 17.5zM390 430h-304l5 30h363l-400 -430h327l-5 -30h-386z" />
    <glyph glyph-name="Zcaron" unicode="&#x17d;" horiz-adv-x="521" 
d="M380 803l157 123l19 -19l-179 -138l-133 140l22 17zM124 668l5 32h470l-545 -667l418 -1l-5 -32h-477l545 667z" />
    <glyph glyph-name="zcaron" unicode="&#x17e;" horiz-adv-x="425" 
d="M289 565l157 122l18 -18l-179 -139l-133 140l23 18zM390 430h-304l5 30h363l-401 -430h328l-5 -30h-386z" />
    <glyph glyph-name="uni0212" unicode="&#x212;" horiz-adv-x="480" 
d="M205 769q11 36 34.5 68t60 52t85.5 19q48 0 77.5 -20t41.5 -51.5t8 -67.5l-26 -1q3 44 -22.5 78.5t-84.5 34.5q-60 0 -95.5 -34.5t-49.5 -77.5h-29zM176 700h133q63 -1 111 -24.5t72.5 -67.5t14.5 -106q-9 -59 -43 -101t-84.5 -66.5t-109.5 -29.5l157 -305h-39l-154 304
h-92l-52 -304h-33zM307 669h-102l-58 -336h100q57 1 105 20.5t80.5 57t41.5 91.5t-11 90.5t-60.5 56t-95.5 20.5z" />
    <glyph glyph-name="uni0213" unicode="&#x213;" horiz-adv-x="296" 
d="M94 544q11 36 34.5 68t60 52t85.5 19q48 0 77.5 -20t41.5 -51.5t8 -67.5h-26q3 44 -22.5 78.5t-84.5 34.5q-40 0 -69 -16.5t-48 -42t-28 -54.5h-29zM162 460l-14 -79q20 39 50.5 64.5t71.5 24.5q19 0 35 -7.5t30 -18.5l-21 -25q-13 8 -25.5 14.5t-27.5 6.5q-35 1 -60 -19
t-41 -51t-25 -65l-52 -305h-32l80 460h31z" />
    <glyph glyph-name="uni0218" unicode="&#x218;" horiz-adv-x="490" 
d="M75 206q9 -43 26 -84.5t49 -69t85 -28.5q78 -1 125 43t57 110q7 46 -10.5 79.5t-49.5 57t-69 39.5q-39 17 -75 42.5t-57 62.5t-14 88q8 48 37.5 84.5t73 57t92.5 20.5q52 0 86 -22.5t53.5 -58t25.5 -74.5l-30 -15q-6 34 -21.5 65.5t-43 52t-72.5 20.5q-40 0 -76 -17
t-60 -47t-31 -68q-7 -44 13 -75t55 -53t73 -39q40 -17 73 -44t51 -64.5t11 -89.5q-8 -52 -36.5 -95t-75.5 -67.5t-110 -24.5q-59 1 -97 29.5t-59 74t-30 94.5zM252 -70l30 -13l-151 -247l-21 8z" />
    <glyph glyph-name="uni0219" unicode="&#x219;" horiz-adv-x="391" 
d="M59 151q3 -32 13.5 -62t34.5 -49.5t64 -19.5q47 0 82.5 27.5t42.5 71.5q5 30 -8 50t-36.5 33.5t-51.5 23.5q-32 12 -58.5 27.5t-40 40t-7.5 62.5q6 35 28.5 60t55 38.5t67.5 13.5q53 0 83.5 -28t40.5 -69l-27 -14q-10 32 -34 56.5t-66 24.5q-41 0 -75.5 -22t-41.5 -62
q-5 -32 8.5 -51.5t38.5 -32t52 -22.5q30 -11 55.5 -28t39.5 -41t9 -58q-8 -60 -54 -96t-107 -35q-47 0 -76 21.5t-43 55.5t-17 71zM188 -71l30 -13l-150 -248l-21 8z" />
    <glyph glyph-name="uni021A" unicode="&#x21a;" horiz-adv-x="427" 
d="M103 668l5 32h397l-6 -32h-181l-115 -668h-33l114 668h-181zM209 -60l30 -13l-151 -248l-21 8z" />
    <glyph glyph-name="uni021B" unicode="&#x21b;" horiz-adv-x="198" 
d="M65 460h71l27 160h32l-28 -160h74l-5 -30h-74l-75 -430h-30l74 430h-72zM94 -60l30 -13l-151 -248l-21 8z" />
    <glyph glyph-name="uni0237" unicode="&#x237;" horiz-adv-x="194" 
d="M-123 -150q11 -15 25 -26t35 -12q32 0 52.5 17.5t32 44.5t16.5 54l91 532h31l-91 -535q-6 -36 -22.5 -70t-45 -55t-69.5 -20q-28 1 -46.5 15.5t-30.5 30.5z" />
    <glyph glyph-name="circumflex" unicode="&#x2c6;" horiz-adv-x="465" 
d="M326 695l-158 -121l-18 17l180 139l132 -140l-21 -17z" />
    <glyph glyph-name="caron" unicode="&#x2c7;" horiz-adv-x="465" 
d="M308 605l157 122l18 -18l-179 -139l-133 140l23 18z" />
    <glyph glyph-name="breve" unicode="&#x2d8;" horiz-adv-x="529" 
d="M226 850h28q-2 -43 23.5 -78t83.5 -35q40 0 69 16.5t48 42.5t27 54l29 -1q-9 -36 -32 -67.5t-58.5 -51.5t-84.5 -20q-48 0 -78.5 20t-43.5 52t-11 68z" />
    <glyph glyph-name="dotaccent" unicode="&#x2d9;" horiz-adv-x="251" 
d="M205 763q1 9 10 16.5t18 7.5q10 0 15.5 -7t4.5 -17q-1 -9 -9.5 -16.5t-17.5 -7.5q-10 0 -16 7t-5 17z" />
    <glyph glyph-name="ring" unicode="&#x2da;" horiz-adv-x="269" 
d="M142 786q4 28 21.5 50t43 35t51.5 13q40 0 64.5 -29.5t18.5 -70.5q-4 -27 -21.5 -49.5t-42.5 -35.5t-52 -13q-40 0 -64.5 30t-18.5 70zM164 785q-4 -31 14 -54t49 -24q21 0 41 10.5t34 28.5t17 39q5 31 -13.5 54t-49.5 24q-20 1 -40.5 -10t-34.5 -29t-17 -39z" />
    <glyph glyph-name="ogonek" unicode="&#x2db;" horiz-adv-x="245" 
d="M157 -160l12 -21q-17 -15 -42.5 -27t-55.5 -12q-46 0 -72.5 23.5t-21.5 63.5q5 36 32 63t63.5 47.5t69.5 36.5l16 -14q-29 -14 -62.5 -32.5t-58 -42t-28.5 -53.5q-3 -30 16.5 -46t49.5 -17q25 -1 46 9t36 22z" />
    <glyph glyph-name="tilde" unicode="&#x2dc;" horiz-adv-x="514" 
d="M206 642q9 25 29.5 44.5t52.5 19.5q25 0 41.5 -11.5l33 -23t39.5 -11.5q20 1 34.5 15t27.5 33l19 -16q-15 -23 -36 -41t-49 -17q-23 0 -40 11.5t-33 23t-37 11.5q-28 0 -41.5 -16.5t-19.5 -33.5z" />
    <glyph glyph-name="pi" unicode="&#x3c0;" horiz-adv-x="476" 
d="M80 460h410l-5 -30h-77l-53 -303q-6 -49 -3 -72.5t37 -32.5l-5 -30q-49 8 -58.5 36.5t-2.5 92.5l54 309h-211l-76 -430h-30l74 430h-59z" />
    <glyph glyph-name="uni0400" unicode="&#x400;" 
d="M249 942l30 18l134 -160l-18 -12zM176 700h349l-5 -31h-314l-47 -267h296l-5 -31h-296l-59 -340h316l-5 -31h-349z" />
    <glyph glyph-name="uni0401" unicode="&#x401;" 
d="M449 845q1 9 10 16.5t18 7.5q10 0 15.5 -7t4.5 -17q-1 -9 -9.5 -16.5t-17.5 -7.5q-10 0 -16 7t-5 17zM255 845q1 9 10 16.5t18 7.5q10 0 15.5 -7t4.5 -17q-1 -9 -9.5 -16.5t-17.5 -7.5q-10 0 -16 7t-5 17zM176 700h349l-5 -31h-314l-47 -267h296l-5 -31h-296l-59 -340
h316l-5 -31h-349z" />
    <glyph glyph-name="uni0403" unicode="&#x403;" horiz-adv-x="422" 
d="M518 941l-197 -153l-15 13l185 158zM169 700h336l-5 -31h-303l-115 -669h-32z" />
    <glyph glyph-name="uni040C" unicode="&#x40c;" horiz-adv-x="548" 
d="M576 940l-196 -152l-16 13l186 158zM173 700h34l-55 -317l345 316h44l-360 -328l253 -371h-41l-244 362l-63 -362h-33z" />
    <glyph glyph-name="uni040D" unicode="&#x40d;" horiz-adv-x="717" 
d="M323 918l30 17l134 -160l-18 -12zM210 700l-111 -641l635 678l-127 -737h-33l111 640l-636 -676l128 736h33z" />
    <glyph glyph-name="uni040E" unicode="&#x40e;" horiz-adv-x="490" 
d="M219 908h28q-3 -43 22 -77.5t83 -34.5q40 0 69.5 16.5t49 42t27.5 53.5l28 -1q-9 -36 -32.5 -67.5t-59 -51t-84.5 -19.5q-48 0 -78 19.5t-43 51.5t-10 68zM585 700l-440 -700h-37l137 221l-152 479h36l139 -449l280 449h37z" />
    <glyph glyph-name="uni0410" unicode="&#x410;" horiz-adv-x="640" 
d="M525 0l-55 253h-306l-143 -253h-38l413 722l165 -722h-36zM384 643l-203 -359h282z" />
    <glyph glyph-name="uni0411" unicode="&#x411;" horiz-adv-x="503" 
d="M169 700h338l-5 -31h-305l-43 -249h123q64 0 112.5 -27t72.5 -74t14 -109q-10 -63 -48.5 -110t-95 -73t-122.5 -27h-160zM276 388l-127 1l-62 -358h124q57 1 106.5 23t83 62t42.5 94q9 53 -10.5 93t-60.5 62.5t-96 22.5z" />
    <glyph glyph-name="uni0412" unicode="&#x412;" horiz-adv-x="541" 
d="M452 201q-9 -66 -45 -110.5t-90.5 -67t-120.5 -23.5h-140l121 700h125q56 0 97 -20t61.5 -56.5t11.5 -88.5q-10 -64 -54.5 -100.5t-105.5 -48.5q42 -8 76.5 -32.5t52.5 -63t11 -89.5zM301 669h-97l-46 -268h94q45 1 84.5 15.5t67 43.5t34.5 74q11 64 -28.5 99t-108.5 36z
M95 31h103q85 1 146 44.5t74 127.5q8 50 -12.5 87.5t-59.5 59t-87 21.5l-106 1z" />
    <glyph glyph-name="uni0413" unicode="&#x413;" horiz-adv-x="422" 
d="M169 700h336l-5 -31h-303l-115 -669h-32z" />
    <glyph glyph-name="uni0414" unicode="&#x414;" horiz-adv-x="771" 
d="M672 0h-630l-20 -110h-30l25 141h72l393 705l150 -705h75l-25 -141h-30zM470 655l-344 -624h472z" />
    <glyph glyph-name="uni0415" unicode="&#x415;" 
d="M176 700h349l-5 -31h-314l-47 -267h296l-5 -31h-296l-59 -340h316l-5 -31h-349z" />
    <glyph glyph-name="uni0416" unicode="&#x416;" horiz-adv-x="696" 
d="M152 700l222 -323l55 323h34l-55 -319l319 318h45l-338 -330l230 -369h-40l-219 363l-63 -363h-32l61 360l-351 -360h-45l366 372l-228 328h39z" />
    <glyph glyph-name="uni0417" unicode="&#x417;" horiz-adv-x="588" 
d="M277 -10q-108 0 -166.5 53.5t-48.5 141.5h33q-7 -75 42 -119t141 -44q62 0 112.5 20t84 57.5t42.5 88.5q8 46 -7.5 76t-47 48t-72 26t-83.5 9l1 9v0l3 21q58 2 110 18.5t88 48t45 79.5q8 45 -10 80t-55.5 55.5t-89.5 20.5q-84 1 -141.5 -42t-76.5 -110h-32q13 54 48 95.5
t87 64.5t116 23q61 0 106.5 -25t68 -67t13.5 -94q-13 -68 -70 -107.5t-135 -53.5q51 -7 92.5 -27.5t62 -57t11.5 -93.5q-10 -61 -48 -104.5t-96 -67t-128 -23.5z" />
    <glyph glyph-name="uni0418" unicode="&#x418;" horiz-adv-x="717" 
d="M210 700l-111 -641l635 678l-127 -737h-33l111 640l-636 -676l128 736h33z" />
    <glyph glyph-name="uni0419" unicode="&#x419;" horiz-adv-x="717" 
 />
    <glyph glyph-name="uni041A" unicode="&#x41a;" horiz-adv-x="548" 
d="M173 700h34l-55 -317l345 316h44l-360 -329l253 -370h-41l-244 362l-63 -362h-33z" />
    <glyph glyph-name="uni041B" unicode="&#x41b;" horiz-adv-x="607" 
d="M624 700l-121 -700h-33l116 669h-368l-73 -429q-9 -57 -29 -109.5t-53 -87.5t-81 -42l5 28q38 8 63.5 41.5t41 80.5t22.5 95l78 454h432z" />
    <glyph glyph-name="uni041C" unicode="&#x41c;" horiz-adv-x="786" 
d="M227 612l-169 -612h-34l200 722l175 -560l370 561l-49 -723h-33l42 610l-340 -518z" />
    <glyph glyph-name="uni041D" unicode="&#x41d;" horiz-adv-x="693" 
d="M176 700h35l-52 -303h412l52 303h34l-121 -700h-32l62 366h-413l-63 -366h-33z" />
    <glyph glyph-name="uni041E" unicode="&#x41e;" horiz-adv-x="766" 
d="M78 350q11 74 45.5 138.5t87 114.5t118.5 78t141 28q74 0 130 -29.5t91.5 -80t49 -115t3.5 -134.5q-11 -73 -45.5 -138t-87 -115t-119 -78t-141.5 -28q-74 0 -130 29.5t-91 80t-48.5 115t-3.5 134.5zM113 350q-9 -63 2 -121t41.5 -104t80 -73t116.5 -27q68 0 128 25.5
t107 70.5t78 104t42 125q9 63 -2 121t-41.5 104t-79.5 73t-117 27t-128 -25.5t-107 -70.5t-78 -104t-42 -125z" />
    <glyph glyph-name="uni041F" unicode="&#x41f;" horiz-adv-x="642" 
d="M622 669h-425l-115 -669h-32l120 700h489l-121 -700h-32z" />
    <glyph glyph-name="uni0420" unicode="&#x420;" horiz-adv-x="531" 
d="M176 700h140q61 0 105.5 -26t66 -72t11.5 -107q-9 -62 -44.5 -108t-88.5 -71t-116 -26h-110l-50 -290h-33zM313 668l-107 1l-61 -348h106q82 1 141.5 47.5t72.5 126.5q13 78 -29.5 125t-122.5 48z" />
    <glyph glyph-name="uni0421" unicode="&#x421;" horiz-adv-x="664" 
d="M113 350q-9 -62 1.5 -120t40.5 -103.5t78 -72.5t114 -28q71 -1 129.5 24t106.5 65l-7 -45q-49 -37 -104.5 -57.5t-126.5 -20.5q-73 0 -128 29.5t-89 80t-47 114.5t-3 134q11 74 45 138.5t85 114t116.5 78t139.5 28.5q67 0 116 -19.5t91 -59.5l-7 -45q-74 89 -203 89
q-66 0 -124.5 -25.5t-105 -70.5t-77 -103.5t-41.5 -124.5z" />
    <glyph glyph-name="uni0422" unicode="&#x422;" horiz-adv-x="451" 
d="M103 668l5 32h397l-6 -32h-181l-115 -668h-33l114 668h-181z" />
    <glyph glyph-name="uni0423" unicode="&#x423;" horiz-adv-x="490" 
d="M585 700l-440 -700h-37l137 220l-152 480h36l139 -449l280 449h37z" />
    <glyph glyph-name="uni0424" unicode="&#x424;" horiz-adv-x="723" 
d="M719 350q-13 -83 -64.5 -143.5t-127 -93t-162.5 -33.5l-14 -80h-32l14 80q-84 2 -148 35.5t-95.5 93.5t-18.5 141q14 84 64.5 144t126 92.5t162.5 33.5l14 80h34l-14 -80q84 -2 147.5 -35.5t95 -93.5t18.5 -141zM686 350q12 72 -16 124.5t-85.5 81t-132.5 30.5l-82 -474
q78 2 145 30.5t112.5 81t58.5 126.5zM103 350q-12 -73 16.5 -126t86 -82t132.5 -30l81 474q-78 -2 -145 -30t-112.5 -80t-58.5 -126z" />
    <glyph glyph-name="uni0425" unicode="&#x425;" horiz-adv-x="538" 
d="M523 699h42l-260 -334l153 -365h-39l-135 336l-255 -336h-41l284 369l-139 331h39l121 -302z" />
    <glyph glyph-name="uni0426" unicode="&#x426;" horiz-adv-x="686" 
d="M87 31h424l115 669h33l-115 -669h83l-25 -141h-30l20 110h-542l120 700h32z" />
    <glyph glyph-name="uni0427" unicode="&#x427;" horiz-adv-x="545" 
d="M203 700l-33 -182q-9 -55 3.5 -102.5t46 -76.5t88.5 -29h155l67 390h33l-121 -700h-32l48 280h-155q-64 0 -104 33.5t-54.5 88t-5.5 116.5l32 182h32z" />
    <glyph glyph-name="uni0428" unicode="&#x428;" horiz-adv-x="904" 
d="M773 31l115 669h33l-120 -700h-751l120 700h33l-115 -669h326l115 669h33l-115 -669h326z" />
    <glyph glyph-name="uni0429" unicode="&#x429;" horiz-adv-x="948" 
d="M773 31l115 669h33l-115 -669h83l-25 -141h-30l20 110h-804l120 700h33l-115 -669h326l115 669h33l-115 -669h326z" />
    <glyph glyph-name="uni042A" unicode="&#x42a;" horiz-adv-x="609" 
d="M272 669h-176l6 31h208l-48 -280h121q64 0 112 -27t72 -74.5t14 -109.5q-10 -63 -48.5 -110t-95 -73t-122.5 -26h-158zM381 388l-125 1l-62 -358h123q57 1 106 23t82.5 62t42.5 94q9 53 -10.5 93t-60.5 62.5t-96 22.5z" />
    <glyph glyph-name="uni042B" unicode="&#x42b;" horiz-adv-x="687" 
d="M667 700h34l-121 -700h-32zM166 700h34l-48 -280h121q64 0 112 -27t72 -74.5t14 -109.5q-10 -63 -48.5 -110t-95 -73t-122.5 -26h-158zM271 388l-125 1l-62 -358h123q57 1 106 23t82.5 62t42.5 94q9 53 -10.5 93t-60.5 62.5t-96 22.5z" />
    <glyph glyph-name="uni042C" unicode="&#x42c;" horiz-adv-x="499" 
d="M166 700h34l-48 -280h121q64 0 112 -27t72 -74.5t14 -109.5q-10 -63 -48.5 -110t-95 -73t-122.5 -26h-158zM271 388l-125 1l-62 -358h123q57 1 106 23t82.5 62t42.5 94q9 53 -10.5 93t-60.5 62.5t-96 22.5z" />
    <glyph glyph-name="uni042D" unicode="&#x42d;" horiz-adv-x="664" 
d="M178 334l5 32h436q7 60 -5.5 115t-42.5 98.5t-77 68.5t-111 26q-70 1 -128.5 -23.5t-106.5 -64.5l6 44q50 37 105.5 57.5t125.5 20.5q74 0 128.5 -29.5t88.5 -80t47 -114.5t3 -134q-11 -73 -45 -138t-85 -114.5t-116.5 -78t-139.5 -28.5q-67 0 -116 19.5t-91 59.5l7 45
q73 -89 203 -89q64 0 121 24.5t103 66.5t77 98t44 119h-436z" />
    <glyph glyph-name="uni042E" unicode="&#x42e;" horiz-adv-x="994" 
d="M318 351q1 7 2 13h-175l-63 -364h-32l120 700h33l-53 -304h177q23 88 78.5 159t134 113t170.5 42q74 0 130 -29.5t91 -80t48.5 -115t3.5 -134.5q-11 -73 -45.5 -138.5t-87 -115t-118.5 -78t-141 -28.5q-74 0 -130 29.5t-91 80.5t-48.5 115.5t-3.5 134.5zM353 351
q-9 -63 2 -121t41.5 -104t80 -73.5t116.5 -27.5q68 0 128 25.5t107 71t78 104.5t42 125q9 63 -2 121t-41.5 104t-79.5 73t-117 27t-128 -25.5t-107 -70.5t-78 -104t-42 -125z" />
    <glyph glyph-name="uni042F" unicode="&#x42f;" horiz-adv-x="480" 
d="M491 700l-121 -700h-34l53 304h-90l-258 -304h-43l263 305q-55 6 -96.5 31t-61.5 67t-11 99q10 63 47.5 107t93.5 67.5t121 23.5h137zM292 334l102 -1l58 336h-100q-56 0 -104.5 -19t-80.5 -56t-42 -92q-9 -53 11 -90.5t61 -57t95 -20.5z" />
    <glyph glyph-name="uni0430" unicode="&#x430;" 
d="M52 230q10 67 45.5 121.5t89 87t117.5 31.5q47 0 79 -22t50 -58t23 -78l25 148h30l-80 -460h-28l23 136q-29 -61 -81.5 -103.5t-120.5 -42.5q-63 0 -104.5 33.5t-58.5 88.5t-9 118zM84 230q-8 -55 6.5 -103t50 -77.5t91.5 -29.5q52 1 96.5 31.5t74.5 78.5t38 100
q7 49 -6 97t-45 80t-84 33q-56 1 -103 -27.5t-78.5 -76.5t-40.5 -106z" />
    <glyph glyph-name="uni0431" unicode="&#x431;" horiz-adv-x="529" 
d="M53 235q0 92 33 177.5t92.5 150t139.5 93.5q61 23 98.5 53t58.5 71l31 -1q-21 -53 -67 -88.5t-114 -61.5t-121 -80t-84.5 -123.5t-37.5 -140.5q18 52 54.5 94t84.5 66.5t99 24.5q66 0 113 -32.5t69 -87t13 -120.5t-47 -120.5t-95 -87t-125 -32.5q-71 0 -114 35t-62 91
t-19 119zM86 205q0 -43 16.5 -85.5t52.5 -71t94 -28.5q57 0 107 28.5t84.5 76t42.5 105.5q9 59 -10 106.5t-60 75.5t-98 28q-40 0 -80.5 -18t-74 -50.5t-54 -75t-20.5 -91.5z" />
    <glyph glyph-name="uni0432" unicode="&#x432;" horiz-adv-x="410" 
d="M124 460h135q40 0 73 -14t50.5 -41.5t10.5 -70.5q-8 -46 -41.5 -70t-78.5 -33q32 -4 57.5 -15.5t38.5 -33.5t8 -58q-9 -55 -52.5 -89.5t-111.5 -34.5h-168zM257 432h-106l-32 -187h104q27 1 57 9t53.5 27.5t28.5 52.5q8 48 -24.5 73t-80.5 25zM230 217h-116l-33 -189h128
q56 0 93.5 28t44.5 72q5 37 -12.5 56t-46.5 26t-58 7z" />
    <glyph glyph-name="uni0433" unicode="&#x433;" horiz-adv-x="299" 
d="M128 460h219l-5 -30h-187l-74 -430h-31z" />
    <glyph glyph-name="uni0434" unicode="&#x434;" horiz-adv-x="635" 
d="M536 0h-491l-17 -90h-33l22 120h63l293 466l131 -466h67l-22 -120h-30zM362 425l-246 -395h356z" />
    <glyph glyph-name="uni0435" unicode="&#x435;" horiz-adv-x="494" 
d="M443 106q-24 -29 -54 -56t-69.5 -43.5t-93.5 -16.5q-61 1 -101 36t-56.5 90t-9.5 115q3 18 7 35t11 33q18 47 51.5 86t78.5 62t97 23q59 0 99 -31.5t58 -82t11 -108.5q-1 -6 -2.5 -12.5t-3.5 -12.5h-377q-4 -52 9.5 -98t46.5 -75.5t86 -29.5q45 0 79.5 15t61 39t47.5 49z
M302 441q-51 0 -94.5 -25.5t-73.5 -69t-40 -96.5h344q9 47 -4.5 90.5t-46.5 72t-85 28.5z" />
    <glyph glyph-name="uni0436" unicode="&#x436;" horiz-adv-x="505" 
d="M115 460l144 -183l31 183h30l-31 -179l203 178h41l-220 -194l159 -265h-37l-150 261l-45 -261h-29l44 258l-236 -258h-41l251 268l-151 192h37z" />
    <glyph glyph-name="uni0437" unicode="&#x437;" horiz-adv-x="461" 
d="M214 -10q-75 0 -115.5 44.5t-42.5 110.5h30q2 -53 33.5 -89.5t95.5 -36.5q36 0 73 14t64 40t32 62q6 38 -15.5 58.5t-55 29t-65.5 9.5l1 8v0l3 19q30 1 61.5 7t55 22t29.5 48q6 28 -7 51.5t-39 38t-60 14.5q-36 0 -65.5 -16t-50 -41.5t-29.5 -55.5h-32q10 38 35 70.5
t61.5 52.5t79.5 20q44 0 77.5 -19t50.5 -50t10 -68q-8 -42 -40.5 -62t-77.5 -26q47 -10 79 -36t25 -75q-6 -44 -37 -76.5t-74.5 -50t-89.5 -17.5z" />
    <glyph glyph-name="uni0438" unicode="&#x438;" horiz-adv-x="480" 
d="M161 460l-69 -398l371 435l-86 -497h-32l69 398l-371 -434l86 496h32z" />
    <glyph glyph-name="uni0439" unicode="&#x439;" horiz-adv-x="480" 
d="M170 692h27q-2 -43 23.5 -78t83.5 -35q60 0 96 34.5t49 77.5h28q-9 -36 -31.5 -67.5t-58 -51.5t-84.5 -20q-48 0 -78.5 20t-43.5 52t-11 68zM161 460l-69 -398l371 435l-86 -497h-32l69 398l-371 -434l86 496h32z" />
    <glyph glyph-name="uni043A" unicode="&#x43a;" horiz-adv-x="426" 
d="M126 460h32l-31 -179l239 178h43l-257 -190l195 -269h-38l-186 259l-45 -259h-31z" />
    <glyph glyph-name="uni043B" unicode="&#x43b;" horiz-adv-x="493" 
d="M469 460l-79 -460h-32l74 430h-274l-46 -270q-11 -70 -43 -111t-87 -49l5 29q38 8 61.5 42t31.5 89l52 300h337z" />
    <glyph glyph-name="uni043C" unicode="&#x43c;" horiz-adv-x="589" 
d="M-24 0l202 491l1 5v-2l1 2v-6l94 -440l251 444l1 3l31 -497h-35l-21 393l-240 -423l-1 -2l-90 425l-156 -393h-38z" />
    <glyph glyph-name="uni043D" unicode="&#x43d;" horiz-adv-x="500" 
d="M124 460h32l-35 -201h293l35 201h32l-80 -460h-31l39 229h-293l-40 -229h-31z" />
    <glyph glyph-name="uni043E" unicode="&#x43e;" horiz-adv-x="529" 
d="M52 230q10 66 48 120.5t95 87t124 32.5t112.5 -33.5t66 -88.5t11.5 -118q-10 -65 -48.5 -120t-95.5 -87.5t-124 -32.5q-66 0 -111.5 33.5t-66 88.5t-11.5 118zM84 230q-8 -54 8.5 -102t55 -77.5t95.5 -30.5q59 0 108.5 28.5t83 76.5t42.5 105q9 55 -7.5 102.5t-55 77.5
t-96.5 30q-58 1 -108 -28t-83 -76.5t-43 -105.5z" />
    <glyph glyph-name="uni043F" unicode="&#x43f;" horiz-adv-x="461" 
d="M442 460l-80 -460h-31l74 430h-255l-74 -430h-31l79 460h318z" />
    <glyph glyph-name="uni0440" unicode="&#x440;" horiz-adv-x="553" 
d="M41 -220h-32l117 680h31l-22 -130q29 59 80.5 99.5t117.5 40.5q64 1 105.5 -33t59 -89t8.5 -118q-9 -66 -44.5 -121t-89 -87.5t-117.5 -31.5q-46 0 -77.5 21.5t-50 56t-24.5 75.5zM474 230q8 55 -6.5 103t-50 78t-91.5 29q-52 0 -96 -31t-73.5 -78.5t-38.5 -100.5
q-7 -48 5.5 -96.5t44.5 -80.5t83 -33q56 -1 103.5 27.5t79 76.5t40.5 106z" />
    <glyph glyph-name="uni0441" unicode="&#x441;" horiz-adv-x="463" 
d="M79 230q-8 -54 8.5 -101.5t55 -77t95.5 -30.5q52 0 95 20.5t70 45.5l-6 -39q-28 -23 -70 -40.5t-91 -17.5q-66 0 -111.5 33.5t-66 88.5t-11.5 118q10 66 48.5 120.5t95.5 87t124 32.5q46 0 84 -16.5t60 -41.5l-6 -40q-18 28 -55 48t-85 20q-58 0 -108 -28.5t-83 -76
t-43 -105.5z" />
    <glyph glyph-name="uni0442" unicode="&#x442;" horiz-adv-x="271" 
d="M56 460h263l-6 -30h-114l-75 -430h-31l74 430h-116z" />
    <glyph glyph-name="uni0443" unicode="&#x443;" horiz-adv-x="426" 
d="M463 460l-408 -680l-37 1l154 254l-114 425h36l101 -393l232 393h36z" />
    <glyph glyph-name="uni0444" unicode="&#x444;" horiz-adv-x="568" 
d="M46 230q11 66 49 119t97 85t130 36l15 90h32l-16 -91q68 -4 115 -36.5t68 -85.5t11 -117q-11 -66 -49.5 -119.5t-97 -85.5t-129.5 -35l-16 -90h-30l15 90q-68 4 -115 37t-68 86t-11 117zM77 230q-9 -55 8.5 -101t58 -75.5t101.5 -33.5l72 420q-63 -4 -113.5 -32.5
t-83.5 -75t-43 -102.5zM516 230q9 54 -8.5 100.5t-58 76t-101.5 32.5l-72 -419q62 4 113 32.5t84 75t43 102.5z" />
    <glyph glyph-name="uni0445" unicode="&#x445;" horiz-adv-x="407" 
d="M378 459h39l-197 -223l126 -236h-36l-109 211l-184 -211h-39l209 238l-119 222h36l103 -197z" />
    <glyph glyph-name="uni0446" unicode="&#x446;" horiz-adv-x="500" 
d="M367 30h79l-21 -120h-28l16 90h-368l79 460h32l-75 -430h255l75 430h30z" />
    <glyph glyph-name="uni0447" unicode="&#x447;" horiz-adv-x="422" 
d="M132 460l-24 -132q-13 -79 12 -118.5t104 -39.5h98l49 290h32l-80 -460h-30l24 140h-97q-97 0 -127 48.5t-16 139.5l23 132h32z" />
    <glyph glyph-name="uni0448" unicode="&#x448;" horiz-adv-x="709" 
d="M347 30h237l74 430h32l-80 -460h-565l79 460h32l-75 -430h236l74 430h31z" />
    <glyph glyph-name="uni0449" unicode="&#x449;" horiz-adv-x="747" 
d="M347 30h237l74 430h32l-75 -430h78l-21 -120h-28l16 90h-615l79 460h32l-75 -430h236l74 430h31z" />
    <glyph glyph-name="uni044A" unicode="&#x44a;" horiz-adv-x="516" 
d="M212 430h-161l5 30h192l-30 -174h108q45 0 79.5 -16.5t51.5 -48.5t10 -79t-34 -78.5t-67 -47.5t-86 -16h-143zM323 258h-110l-40 -230h109q58 0 101.5 29t51.5 87q8 56 -25 85t-87 29z" />
    <glyph glyph-name="uni044B" unicode="&#x44b;" horiz-adv-x="560" 
d="M510 460h32l-80 -460h-31zM124 460h32l-30 -174h104q45 0 79.5 -16.5t51.5 -48.5t10 -79t-34.5 -78.5t-68 -47.5t-86.5 -16h-137zM228 258h-107l-40 -230h105q55 0 99.5 28.5t54.5 86.5q9 55 -24.5 85t-87.5 30z" />
    <glyph glyph-name="uni044C" unicode="&#x44c;" horiz-adv-x="420" 
d="M124 460h32l-30 -174h104q45 0 79.5 -16.5t51.5 -48.5t10 -79t-34.5 -78.5t-67.5 -47.5t-85 -16h-139zM228 258h-107l-40 -230h105q57 1 100.5 29t53.5 86q9 55 -24.5 85t-87.5 30z" />
    <glyph glyph-name="uni044D" unicode="&#x44d;" horiz-adv-x="469" 
d="M147 245h271q5 51 -13 95t-55.5 71.5t-92.5 27.5q-52 0 -95 -20.5t-70 -45.5l5 39q29 23 70.5 40.5t90.5 17.5q67 0 112 -33.5t65.5 -88.5t11.5 -118q-10 -66 -48 -120.5t-95 -87t-124 -32.5q-46 0 -83.5 16.5t-60.5 41.5l6 40q18 -28 55 -48t85 -20q56 0 104 26
t81.5 70.5t45.5 98.5h-271z" />
    <glyph glyph-name="uni044E" unicode="&#x44e;" horiz-adv-x="729" 
d="M124 460h32l-35 -204h130q15 60 53.5 108.5t92.5 77t117 28.5q67 0 112 -33.5t65.5 -88.5t11.5 -118q-10 -65 -48 -120t-95.5 -87.5t-124.5 -32.5q-66 0 -111.5 33.5t-66 87.5t-12.5 115h-130l-39 -226h-31zM278 230q-8 -54 8 -102t55 -77.5t96 -30.5q59 0 108.5 28.5
t83 76.5t42.5 105q9 55 -7.5 102.5t-55 77.5t-96.5 30q-58 1 -108 -28t-83 -76.5t-43 -105.5z" />
    <glyph glyph-name="uni044F" unicode="&#x44f;" horiz-adv-x="420" 
d="M60 0h-38l171 189q-47 11 -74 43.5t-19 89.5q7 47 34 77t67 45t85 16h139l-79 -460h-32l32 184h-104q-9 0 -17 1zM244 212h107l38 220h-105q-56 -1 -100 -27.5t-53 -82.5t25 -82t88 -28z" />
    <glyph glyph-name="uni0450" unicode="&#x450;" horiz-adv-x="494" 
d="M189 693l30 17l136 -160l-18 -12zM443 106q-24 -29 -54 -56t-69.5 -43.5t-93.5 -16.5q-61 1 -101 36t-56.5 90t-9.5 115q3 18 7 35t11 33q18 47 51.5 86t78.5 62t97 23q59 0 99 -31.5t58 -82t11 -108.5q-1 -6 -2.5 -12.5t-3.5 -12.5h-377q-4 -52 9.5 -98t46.5 -75.5
t86 -29.5q45 0 79.5 15t61 39t47.5 49zM302 441q-51 0 -94.5 -25.5t-73.5 -69t-40 -96.5h344q9 47 -4.5 90.5t-46.5 72t-85 28.5z" />
    <glyph glyph-name="uni0451" unicode="&#x451;" horiz-adv-x="494" 
d="M385 579q1 9 9.5 16.5t17.5 7.5q10 0 16 -7t5 -17q-1 -9 -9.5 -16.5t-17.5 -7.5q-10 0 -16 7t-5 17zM191 579q1 9 9.5 16.5t17.5 7.5q10 0 16 -7t5 -17q-1 -9 -9.5 -16.5t-17.5 -7.5q-10 0 -16 7t-5 17zM443 106q-24 -29 -54 -56t-69.5 -43.5t-93.5 -16.5q-61 1 -101 36
t-56.5 90t-9.5 115q3 18 7 35t11 33q18 47 51.5 86t78.5 62t97 23q59 0 99 -31.5t58 -82t11 -108.5q-1 -6 -2.5 -12.5t-3.5 -12.5h-377q-4 -52 9.5 -98t46.5 -75.5t86 -29.5q45 0 79.5 15t61 39t47.5 49zM302 441q-51 0 -94.5 -25.5t-73.5 -69t-40 -96.5h344q9 47 -4.5 90.5
t-46.5 72t-85 28.5z" />
    <glyph glyph-name="uni0453" unicode="&#x453;" horiz-adv-x="299" 
d="M408 683l-196 -152l-16 13l186 158zM128 460h219l-5 -30h-187l-74 -430h-31z" />
    <glyph glyph-name="uni045C" unicode="&#x45c;" horiz-adv-x="426" 
d="M474 700l-196 -152l-16 13l186 158zM126 460h32l-31 -179l239 178h43l-257 -190l195 -269h-38l-186 259l-45 -259h-31z" />
    <glyph glyph-name="uni045D" unicode="&#x45d;" horiz-adv-x="480" 
d="M174 707l30 18l134 -160l-18 -12zM161 460l-69 -400l334 393l37 44v-1v0l-1 -2l-85 -494h-32l69 400l-371 -436l86 496h32z" />
    <glyph glyph-name="uni045E" unicode="&#x45e;" horiz-adv-x="426" 
d="M147 670h28q-2 -28 8 -54t34.5 -42.5t62.5 -16.5q40 0 69.5 16.5t48.5 42t28 53.5h29q-9 -36 -32.5 -67.5t-59 -51.5t-84.5 -20q-48 0 -78 20t-43.5 52t-10.5 68zM463 460l-408 -680l-36 1l154 254l-115 425h37l100 -393l232 393h36z" />
    <glyph glyph-name="uni1E9E" unicode="&#x1e9e;" horiz-adv-x="660" 
d="M369 -10q-59 0 -99.5 27t-59 71.5t-13.5 96.5h33q-4 -44 10.5 -81t48 -59.5t82.5 -22.5q50 0 91 22.5t69 60t35 83.5q9 54 -13.5 88.5t-65.5 52t-95 19.5l2 9h-1l4 22q80 4 138 42t70 109q8 46 -13.5 79t-60.5 51.5t-86 18.5q-79 1 -140.5 -34.5t-100.5 -97t-52 -140.5
l-70 -407h-32l69 407q15 88 58.5 156.5t112.5 108t158 38.5q55 0 101.5 -21t72.5 -60t17 -95q-12 -71 -63 -113.5t-123 -56.5q47 -9 83 -31t53.5 -59t9.5 -89q-8 -54 -41 -98.5t-82 -70.5t-107 -26z" />
    <glyph glyph-name="uni2010" unicode="&#x2010;" horiz-adv-x="203" 
d="M20 245l4 30h195l-5 -30h-194z" />
    <glyph glyph-name="figuredash" unicode="&#x2012;" horiz-adv-x="572" 
d="M83 245l5 30h437l-5 -30h-437z" />
    <glyph glyph-name="endash" unicode="&#x2013;" horiz-adv-x="718" 
d="M83 245l5 30h582l-4 -30h-583z" />
    <glyph glyph-name="emdash" unicode="&#x2014;" horiz-adv-x="863" 
d="M83 245l5 30h728l-5 -30h-728z" />
    <glyph glyph-name="quoteleft" unicode="&#x2018;" horiz-adv-x="232" 
d="M151 471h-39l135 228h24z" />
    <glyph glyph-name="quoteright" unicode="&#x2019;" horiz-adv-x="245" 
d="M242 699h37l-134 -228h-24z" />
    <glyph glyph-name="quotesinglbase" unicode="&#x201a;" horiz-adv-x="245" 
d="M125 79h38l-135 -228h-23z" />
    <glyph glyph-name="quotedblleft" unicode="&#x201c;" horiz-adv-x="399" 
d="M164 471h-38l135 228h24zM318 471h-38l134 228h24z" />
    <glyph glyph-name="quotedblright" unicode="&#x201d;" horiz-adv-x="399" 
d="M228 699h38l-135 -228h-24zM382 699h38l-135 -228h-24z" />
    <glyph glyph-name="dagger" unicode="&#x2020;" horiz-adv-x="505" 
d="M153 540h150l25 160h32l-25 -160h150l-5 -30h-150l-102 -660h-31l102 660h-151z" />
    <glyph glyph-name="daggerdbl" unicode="&#x2021;" horiz-adv-x="505" 
d="M88 120h151l60 390h-151l5 30h150l25 160h32l-25 -160h150l-5 -30h-150l-60 -390h151l-5 -30h-151l-37 -240h-31l37 240h-150z" />
    <glyph glyph-name="bullet" unicode="&#x2022;" horiz-adv-x="291" 
d="M147 388q1 10 9 17t18 7t16 -7t5 -17t-8.5 -17t-17.5 -7t-16.5 7t-5.5 17z" />
    <glyph glyph-name="ellipsis" unicode="&#x2026;" horiz-adv-x="813" 
d="M84 13q1 9 10 16.5t18 7.5q10 0 15.5 -7t4.5 -17q-1 -9 -10 -16.5t-18 -7.5q-10 0 -15.5 7t-4.5 17zM358 13q1 9 10 16.5t18 7.5q10 0 15.5 -7t4.5 -17q-1 -9 -10 -16.5t-18 -7.5q-10 0 -15.5 7t-4.5 17zM632 13q1 9 10 16.5t18 7.5q10 0 15.5 -7t4.5 -17
q-1 -9 -9.5 -16.5t-17.5 -7.5q-10 0 -16 7t-5 17z" />
    <glyph glyph-name="perthousand" unicode="&#x2030;" horiz-adv-x="1056" 
d="M101 557q7 41 30.5 76t60.5 56t81 21q45 0 74.5 -22t42 -57t6.5 -75q-6 -41 -30 -75.5t-60.5 -55.5t-81.5 -21q-44 0 -74 21.5t-42.5 56.5t-6.5 75zM645 699h32l-562 -699h-31zM130 557q-5 -31 4 -60t32.5 -47.5t59.5 -19.5q37 0 66.5 18t49.5 47t25 62q5 32 -4.5 60.5
t-32.5 47t-59 18.5q-36 1 -66 -17t-49.5 -47t-25.5 -62zM727 144q7 41 30.5 75.5t60.5 55.5t81 21q45 0 74 -21.5t41.5 -56.5t6.5 -75q-6 -41 -30 -76t-60.5 -56t-81.5 -21q-44 0 -73.5 22t-42 57t-6.5 75zM365 144q7 41 30.5 75.5t60.5 55.5t81 21q45 0 74 -21.5
t41.5 -56.5t6.5 -75q-6 -41 -30 -76t-60.5 -56t-81.5 -21q-44 0 -73.5 22t-42 57t-6.5 75zM755 143q-5 -31 4 -60t32.5 -47t59.5 -19q37 0 67 17.5t50 46.5t25 62q5 32 -4.5 60.5t-32.5 47t-59 18.5q-36 1 -66.5 -17t-50 -47t-25.5 -62zM393 143q-5 -31 4 -60t32.5 -47
t59.5 -19q37 0 67 17.5t50 46.5t25 62q5 32 -4.5 60.5t-32.5 47t-59 18.5q-36 1 -66.5 -17t-50 -47t-25.5 -62z" />
    <glyph glyph-name="uni2031" unicode="&#x2031;" horiz-adv-x="1418" 
d="M101 557q7 41 30.5 76t60.5 56t81 21q45 0 74.5 -22t42 -57t6.5 -75q-6 -41 -30 -75.5t-60.5 -55.5t-81.5 -21q-44 0 -74 21.5t-42.5 56.5t-6.5 75zM645 699h32l-562 -699h-31zM130 557q-5 -31 4 -60t32.5 -47.5t59.5 -19.5q37 0 66.5 18t49.5 47t25 62q5 32 -4.5 60.5
t-32.5 47t-59 18.5q-36 1 -66 -17t-49.5 -47t-25.5 -62zM1089 144q7 41 30.5 75.5t60.5 55.5t81 21q45 0 74 -21.5t41.5 -56.5t6.5 -75q-6 -41 -30 -76t-60.5 -56t-81.5 -21q-44 0 -73.5 22t-42 57t-6.5 75zM727 144q7 41 30.5 75.5t60.5 55.5t81 21q45 0 74 -21.5
t41.5 -56.5t6.5 -75q-6 -41 -30 -76t-60.5 -56t-81.5 -21q-44 0 -73.5 22t-42 57t-6.5 75zM365 144q7 41 30.5 75.5t60.5 55.5t81 21q45 0 74 -21.5t41.5 -56.5t6.5 -75q-6 -41 -30 -76t-60.5 -56t-81.5 -21q-44 0 -73.5 22t-42 57t-6.5 75zM1117 143q-5 -31 4 -60t32.5 -47
t59.5 -19q37 0 67 17.5t50 46.5t25 62q5 32 -4.5 60.5t-33 47t-59.5 18.5q-36 1 -66 -17t-49.5 -47t-25.5 -62zM755 143q-5 -31 4 -60t32.5 -47t59.5 -19q37 0 67 17.5t50 46.5t25 62q5 32 -4.5 60.5t-32.5 47t-59 18.5q-36 1 -66.5 -17t-50 -47t-25.5 -62zM393 143
q-5 -31 4 -60t32.5 -47t59.5 -19q37 0 67 17.5t50 46.5t25 62q5 32 -4.5 60.5t-32.5 47t-59 18.5q-36 1 -66.5 -17t-50 -47t-25.5 -62z" />
    <glyph glyph-name="guilsinglleft" unicode="&#x2039;" horiz-adv-x="322" 
d="M88 256l147 -218l-23 -18l-157 237l237 232l17 -19z" />
    <glyph glyph-name="guilsinglright" unicode="&#x203a;" horiz-adv-x="339" 
d="M284 254l-146 218l22 18l158 -237l-237 -232l-17 19z" />
    <glyph glyph-name="uni203D" unicode="&#x203d;" horiz-adv-x="540" 
d="M287 510h39l-32 -161q73 10 127.5 54.5t67.5 110.5q8 46 -6.5 83.5t-48.5 60t-86 22.5q-61 0 -107 -30t-82 -73l-24 17q41 49 93 83t125 33q59 0 99.5 -27t58.5 -71.5t9 -97.5q-9 -54 -43 -95.5t-83.5 -66t-104.5 -29.5l-30 -153h-23zM197 13q1 9 10 16.5t18 7.5
q10 0 15.5 -7t4.5 -17q-1 -9 -10 -16.5t-18 -7.5q-10 0 -15.5 7t-4.5 17z" />
    <glyph glyph-name="fraction" unicode="&#x2044;" horiz-adv-x="684" 
d="M690 699h29l-660 -699h-29z" />
    <glyph glyph-name="uni2070" unicode="&#x2070;" horiz-adv-x="328" 
d="M88 490q7 52 29.5 101.5t58.5 82t84 32.5q36 0 58 -20.5t32.5 -52.5t12 -70t-2.5 -73q-7 -51 -29.5 -101t-58.5 -82.5t-84 -32.5q-36 0 -58 20.5t-32.5 52.5t-12 70t2.5 73zM109 490q-4 -30 -3.5 -64t8 -64.5t25.5 -49.5t50 -19q42 0 73.5 30t51.5 76t26 91q4 30 3.5 64
t-8.5 64.5t-26 49.5t-50 19q-42 1 -73.5 -29.5t-50.5 -76t-26 -91.5z" />
    <glyph glyph-name="uni2074" unicode="&#x2074;" horiz-adv-x="364" 
d="M67 364l1 1h-1l282 334l7 1l-55 -318h64l-3 -18h-64l-14 -84h-20l15 84h-212zM327 649l-224 -267h178z" />
    <glyph glyph-name="uni2075" unicode="&#x2075;" horiz-adv-x="334" 
d="M340 416q-6 -42 -29 -74.5t-56.5 -51t-73.5 -18.5q-47 0 -74 24.5t-41 63.5l18 11q12 -34 35 -57t63 -23q53 0 91.5 35.5t46.5 89.5q7 45 -15.5 79.5t-68.5 35.5q-37 2 -67 -15t-58 -41l2 3l-5 -5l94 225h193l-3 -18h-177l-70 -166q20 16 45.5 26t53.5 9q35 0 58 -19
t33 -49t5 -65z" />
    <glyph glyph-name="uni2076" unicode="&#x2076;" horiz-adv-x="325" 
d="M294 697l25 -1l-165 -186q19 15 41.5 25t48.5 9q35 0 58.5 -19.5t34.5 -50t6 -63.5q-5 -38 -26.5 -70t-54 -50.5t-72.5 -18.5q-39 1 -65.5 20.5t-37.5 51t-6 68.5q5 26 18 50t29 42zM100 412q-7 -47 16 -83.5t74 -37.5q34 0 63 16.5t48 44t24 60.5q7 44 -17 79.5
t-70 36.5q-35 1 -64.5 -15.5t-48.5 -43t-25 -57.5z" />
    <glyph glyph-name="uni2077" unicode="&#x2077;" horiz-adv-x="341" 
d="M122 681l2 19h279l-282 -419h-21l269 400h-247z" />
    <glyph glyph-name="uni2078" unicode="&#x2078;" horiz-adv-x="298" 
d="M73 392q6 41 37.5 71.5t71.5 39.5q-31 10 -48.5 38t-12.5 63q5 27 22.5 50.5t44 37.5t55.5 14q44 0 69 -31.5t19 -71.5q-5 -36 -32 -64t-62 -37q36 -9 56.5 -40t14.5 -71q-4 -32 -23.5 -59t-49 -42.5t-64.5 -15.5q-52 1 -78.5 36.5t-19.5 81.5zM140 602
q-5 -34 16.5 -61.5t53.5 -28.5q22 0 44 12.5t38.5 33t19.5 43.5q5 34 -14 60t-56 27t-67 -25t-35 -61zM92 394q-7 -40 15 -70.5t65 -31.5q44 -1 77.5 29t39.5 73q5 39 -18 68.5t-62 30.5q-26 1 -51.5 -13t-43 -36.5t-22.5 -49.5z" />
    <glyph glyph-name="uni2079" unicode="&#x2079;" horiz-adv-x="325" 
d="M152 283l-25 1l161 183q-18 -14 -39.5 -23t-46.5 -8q-34 1 -58 20t-35 49.5t-7 63.5q6 39 27.5 70.5t54.5 50.5t72 18q40 0 66 -20t37.5 -51.5t5.5 -68.5q-4 -25 -17.5 -49.5t-29.5 -42.5zM346 568q8 47 -16 83.5t-75 37.5q-34 1 -62.5 -16t-47.5 -44.5t-24 -60.5
q-7 -44 17 -79t70 -37q36 -1 65 15.5t48.5 43.5t24.5 57z" />
    <glyph glyph-name="uni2080" unicode="&#x2080;" horiz-adv-x="335" 
d="M41 210q7 52 29 101.5t58 82t84 32.5q36 0 58 -20.5t32.5 -52.5t12 -70t-2.5 -73q-7 -51 -29 -101t-58 -82.5t-84 -32.5q-36 0 -58 20.5t-32.5 52.5t-12 70t2.5 73zM61 210q-4 -30 -3.5 -64t8 -64.5t25.5 -49.5t50 -19q42 0 73.5 30t51.5 76t26 91q4 30 3.5 64t-8 64.5
t-25.5 49.5t-50 19q-42 1 -73.5 -29.5t-51 -76t-26.5 -91.5z" />
    <glyph glyph-name="uni2081" unicode="&#x2081;" horiz-adv-x="286" 
d="M128 377l3 21l122 27l-74 -423h-19l68 398z" />
    <glyph glyph-name="uni2082" unicode="&#x2082;" horiz-adv-x="325" 
d="M1 3l222 203q23 22 44.5 47.5t26.5 58.5q4 23 -2.5 45t-25 37.5t-49.5 15.5q-35 1 -62 -17.5t-44 -49t-25 -64.5h-20q8 40 28 74t51.5 55t72.5 20q38 0 60 -18.5t31 -45t4 -54.5q-6 -35 -27.5 -63.5t-47.5 -51.5l-191 -174h228l-3 -19z" />
    <glyph glyph-name="uni2083" unicode="&#x2083;" horiz-adv-x="305" 
d="M126 -6q-58 0 -84.5 34.5t-22.5 82.5h20q-2 -41 18.5 -69t69.5 -29q45 -1 80 27t42 69q5 33 -10.5 54t-41.5 32.5t-53 13.5l1 6v0l2 13q28 3 54.5 13t46.5 29.5t25 47.5q6 34 -13.5 61t-59.5 28q-43 1 -71 -26t-39 -64h-19q11 45 44.5 77.5t85.5 31.5q50 -1 75 -34
t17 -74q-8 -42 -41.5 -66.5t-75.5 -32.5q41 -9 70.5 -36.5t21.5 -76.5q-7 -49 -48 -80.5t-94 -31.5z" />
    <glyph glyph-name="uni2084" unicode="&#x2084;" horiz-adv-x="364" 
d="M19 84l1 1h-1l282 334l8 1l-55 -318h63l-3 -18h-63l-15 -84h-20l15 84h-212zM280 369l-225 -267h178z" />
    <glyph glyph-name="uni2085" unicode="&#x2085;" horiz-adv-x="334" 
d="M292 136q-6 -42 -29 -74.5t-56.5 -51t-73.5 -18.5q-47 0 -73.5 24.5t-40.5 63.5l17 11q12 -34 35 -57t63 -23q53 0 91.5 35.5t46.5 89.5q7 45 -15.5 79.5t-68.5 35.5q-37 2 -67 -15t-57 -41l-3 -2l94 225h192l-3 -18h-177l-70 -166q20 16 45.5 26t53.5 9q35 0 58 -19
t33 -49t5 -65z" />
    <glyph glyph-name="uni2086" unicode="&#x2086;" horiz-adv-x="325" 
d="M245 417l26 -1l-162 -183q18 14 40 23t47 8q35 0 58.5 -19.5t34.5 -50t6 -63.5q-5 -38 -27 -70t-54.5 -50.5t-72.5 -18.5q-39 1 -65 20.5t-37 51t-6 68.5q5 26 18 50t29 42zM52 132q-7 -47 16 -83.5t74 -37.5q34 0 63 16.5t48 44t24 60.5q7 44 -17 79.5t-70 36.5
q-35 1 -64.5 -15.5t-48.5 -43t-25 -57.5z" />
    <glyph glyph-name="uni2087" unicode="&#x2087;" horiz-adv-x="341" 
d="M74 401l3 19h279l-283 -420h-21l269 401h-247z" />
    <glyph glyph-name="uni2088" unicode="&#x2088;" horiz-adv-x="298" 
d="M24 112q6 41 38 72t72 39q-31 10 -49 38t-13 63q5 27 22.5 50.5t44 37.5t55.5 14q44 0 69.5 -31.5t19.5 -71.5q-5 -36 -32.5 -64t-62.5 -37q36 -10 56.5 -40.5t14.5 -70.5q-4 -32 -23.5 -59t-49 -42.5t-64.5 -15.5q-52 1 -79 36.5t-19 81.5zM91 322q-5 -34 16.5 -61.5
t53.5 -28.5q22 0 44 12.5t38.5 33t19.5 43.5q5 34 -14 60t-56 27t-67 -25t-35 -61zM43 114q-7 -40 15 -70.5t65 -31.5q44 -1 78 29t40 73q5 39 -18.5 68.5t-62.5 30.5q-26 1 -51.5 -13t-43 -36.5t-22.5 -49.5z" />
    <glyph glyph-name="uni2089" unicode="&#x2089;" horiz-adv-x="325" 
d="M100 3l-25 1l165 186q-19 -15 -41.5 -25t-48.5 -9q-34 1 -58 20t-35 49.5t-7 63.5q6 39 27.5 70.5t54.5 50.5t72 18q40 0 66 -20t37 -51.5t5 -68.5q-4 -25 -17 -49.5t-29 -42.5zM294 288q8 47 -16 83.5t-75 37.5q-34 1 -62.5 -16t-47.5 -44.5t-24 -60.5q-7 -44 17 -79
t70 -37q36 -1 65 15.5t48.5 43.5t24.5 57z" />
    <glyph glyph-name="Euro" unicode="&#x20ac;" horiz-adv-x="643" 
d="M81 314l4 21h67q1 7 2 15q6 43 19 84h-71l3 21h76q26 71 70.5 129t106 92t135.5 34q38 0 73 -11t67 -30l-7 -41q-29 24 -63 37.5t-74 13.5q-66 0 -119 -30t-92.5 -80.5t-63.5 -113.5h378l-4 -21h-381q-14 -41 -20 -84q-1 -8 -2 -15h361l-4 -21h-359q-3 -54 5.5 -106
t31 -94t61 -67t94.5 -25q43 0 82 14t73 36l-6 -41q-35 -18 -73 -29.5t-79 -11.5q-64 0 -108.5 27.5t-70.5 74t-36.5 104t-6.5 118.5h-69z" />
    <glyph glyph-name="trademark" unicode="&#x2122;" horiz-adv-x="645" 
d="M400 710v-2l86 -277l184 277l2 4v-2l1 2l-1 -5l-26 -357h-16l21 304l-170 -258l-81 259l-84 -305l-17 1l99 352l1 8l1 -2v1zM125 684l2 16h199l-3 -16h-91l-58 -334h-16l57 334h-90z" />
    <glyph glyph-name="uni2150" unicode="&#x2150;" horiz-adv-x="817" 
d="M679 699h28l-660 -699h-28zM107 650l3 21l122 27l-74 -424h-20l68 399zM547 401l3 19h279l-282 -420h-21l269 401h-248z" />
    <glyph glyph-name="uni2151" unicode="&#x2151;" horiz-adv-x="760" 
d="M679 699h28l-660 -699h-28zM107 650l3 21l122 27l-74 -424h-20l68 399zM529 3l-25 1l165 186q-19 -15 -41.5 -25t-48.5 -9q-34 1 -58 20t-34.5 49.5t-6.5 63.5q6 39 27 70.5t54 50.5t72 18q40 0 66 -20t37.5 -51.5t5.5 -68.5q-4 -25 -17.5 -49.5t-29.5 -42.5zM723 288
q8 47 -16 83.5t-75 37.5q-34 1 -62.5 -16t-47.5 -44.5t-24 -60.5q-7 -44 17 -79t70 -37q36 -1 65 15.5t48.5 43.5t24.5 57z" />
    <glyph glyph-name="uni2152" unicode="&#x2152;" horiz-adv-x="1048" 
d="M679 699h28l-660 -699h-28zM107 650l3 21l122 27l-74 -424h-20l68 399zM728 210q7 52 29 101.5t58 82t84 32.5q36 0 58 -20.5t32.5 -52.5t12 -70t-2.5 -73q-7 -51 -29 -101t-58 -82.5t-84 -32.5q-36 0 -58 20.5t-32.5 52.5t-12 70t2.5 73zM474 377l3 21l121 27l-73 -423
h-20l69 398zM748 210q-4 -30 -3.5 -64t8.5 -64.5t26 -49.5t50 -19q42 0 73.5 30t51 76t25.5 91q4 30 3.5 64t-8 64.5t-25.5 49.5t-50 19q-42 1 -73.5 -29.5t-51 -76t-26.5 -91.5z" />
    <glyph glyph-name="onethird" unicode="&#x2153;" horiz-adv-x="732" 
d="M679 699h28l-660 -699h-28zM107 650l3 21l122 27l-74 -424h-20l68 399zM551 -6q-58 0 -84.5 34.5t-22.5 82.5h20q-2 -41 18.5 -69t69.5 -29q45 -1 80 27t42 69q5 33 -10.5 54t-41.5 32.5t-53 13.5l1 6v0l3 13q41 4 79 25.5t46 64.5q6 34 -13.5 61t-59.5 28q-43 1 -71 -26
t-39 -64h-19q11 45 44.5 77.5t85.5 31.5q50 -1 75 -34t17 -74q-8 -42 -41.5 -66.5t-75.5 -32.5q41 -9 70.5 -36.5t21.5 -76.5q-7 -49 -48 -80.5t-94 -31.5z" />
    <glyph glyph-name="twothirds" unicode="&#x2154;" horiz-adv-x="855" 
d="M52 283l222 203q23 22 44.5 47.5t26.5 58.5q4 23 -2.5 45t-25 37.5t-49.5 15.5q-35 1 -62 -17.5t-44 -49t-25 -64.5h-19q8 40 28 74t51 55t72 20q38 0 60 -18.5t31 -45t4 -54.5q-6 -35 -27.5 -63.5t-47.5 -51.5l-191 -174h229l-4 -19zM802 699h28l-660 -699h-28zM675 -6
q-58 0 -84.5 34.5t-22.5 82.5h19q-2 -41 19 -69t70 -29q45 -1 79.5 27t41.5 69q5 33 -10 54t-41 32.5t-53 13.5l1 6h-1l3 13q41 4 79 25.5t46 64.5q6 34 -13 61t-59 28q-43 1 -71 -26t-39 -64h-20q11 45 45 77.5t86 31.5q50 -1 74.5 -34t16.5 -74q-8 -42 -41.5 -66.5
t-75.5 -32.5q41 -9 71 -36.5t22 -76.5q-7 -49 -48 -80.5t-94 -31.5z" />
    <glyph glyph-name="uni2155" unicode="&#x2155;" horiz-adv-x="722" 
d="M679 699h28l-660 -699h-28zM107 650l3 21l122 27l-74 -424h-20l68 399zM544 400l-70 -166q20 16 45 26t53 9q35 0 58.5 -19t33.5 -49t5 -65q-6 -42 -29 -74.5t-56.5 -51t-73.5 -18.5q-47 0 -74 24.5t-41 63.5l18 11q12 -34 35 -57t63 -23q53 0 91.5 35.5t46.5 89.5
q7 45 -15.5 79.5t-68.5 35.5q-37 2 -67.5 -15t-56.5 -40l-4 -3l94 225h193l-3 -18h-177z" />
    <glyph glyph-name="uni2156" unicode="&#x2156;" horiz-adv-x="845" 
d="M52 283l222 203q23 22 44.5 47.5t26.5 58.5q4 23 -2.5 45t-25 37.5t-49.5 15.5q-35 1 -62 -17.5t-44 -49t-25 -64.5h-19q8 40 28 74t51 55t72 20q38 0 60 -18.5t31 -45t4 -54.5q-6 -35 -27.5 -63.5t-47.5 -51.5l-191 -174h229l-4 -19zM802 699h28l-660 -699h-28zM667 400
l-70 -166q20 16 45.5 26t53.5 9q35 0 58 -19t33 -49t5 -65q-6 -42 -29 -74.5t-56.5 -51t-73.5 -18.5q-47 0 -74 24.5t-41 63.5l18 11q12 -34 35 -57t63 -23q53 0 91.5 35.5t46.5 89.5q7 45 -15.5 79.5t-68.5 35.5q-37 2 -67 -15t-58 -41l2 3l-5 -5l94 225h193l-3 -18h-177z
" />
    <glyph glyph-name="uni2157" unicode="&#x2157;" horiz-adv-x="806" 
d="M179 274q-58 0 -84.5 34.5t-22.5 82.5h19q-2 -41 19 -69t70 -29q45 -1 79.5 27t41.5 69q5 33 -10 54t-41 32.5t-53 13.5l2 14v0l1 5q28 3 54.5 13t46.5 29.5t25 47.5q6 34 -13.5 61t-59.5 28q-43 1 -71 -26t-39 -64h-19q11 45 44.5 77.5t85.5 31.5q50 -1 74.5 -34
t16.5 -74q-8 -42 -41.5 -66.5t-75.5 -32.5q41 -9 71 -36.5t22 -76.5q-7 -49 -48 -80.5t-94 -31.5zM763 699h29l-660 -699h-29zM628 400l-70 -166q20 16 45.5 26t53.5 9q35 0 58 -19t33 -49t5 -65q-6 -42 -29 -74.5t-56.5 -51t-73.5 -18.5q-47 0 -73.5 24.5t-40.5 63.5l17 11
q12 -34 35 -57t63 -23q53 0 91.5 35.5t46.5 89.5q7 45 -15 79.5t-68 35.5q-37 2 -67.5 -15t-57.5 -41l-3 -2l94 225h192l-3 -18h-177z" />
    <glyph glyph-name="uni2158" unicode="&#x2158;" horiz-adv-x="840" 
d="M67 364l1 1h-1l282 334l7 1l-55 -318h64l-3 -18h-64l-14 -84h-20l15 84h-212zM797 699h29l-660 -699h-29zM327 649l-224 -267h178zM662 400l-70 -166q20 16 45.5 26t53.5 9q35 0 58 -19t33 -49t5 -65q-6 -42 -29 -74.5t-56.5 -51t-73.5 -18.5q-47 0 -73.5 24.5
t-40.5 63.5l17 11q12 -34 35 -57t63 -23q53 0 91.5 35.5t46.5 89.5q7 45 -15 79.5t-68 35.5q-37 2 -67.5 -15t-57.5 -41l-3 -2l94 225h192l-3 -18h-177z" />
    <glyph glyph-name="uni2159" unicode="&#x2159;" horiz-adv-x="712" 
d="M679 699h28l-660 -699h-28zM107 650l3 21l122 27l-74 -424h-20l68 399zM621 417l26 -1l-165 -186q19 15 41.5 25t48.5 9q35 0 58.5 -19.5t34.5 -50t6 -63.5q-5 -38 -26.5 -70t-54 -50.5t-72.5 -18.5q-39 1 -65.5 20.5t-37.5 51t-6 68.5q5 26 18 50t29 42zM428 132
q-7 -47 16 -83.5t74 -37.5q34 0 62.5 16.5t47.5 44t24 60.5q7 44 -16.5 79.5t-69.5 36.5q-35 1 -64.5 -15.5t-48.5 -43t-25 -57.5z" />
    <glyph glyph-name="uni215A" unicode="&#x215a;" horiz-adv-x="830" 
d="M797 699h29l-660 -699h-29zM340 416q-6 -42 -29 -74.5t-56.5 -51t-73.5 -18.5q-47 0 -74 24.5t-41 63.5l18 11q12 -34 35 -57t63 -23q53 0 91.5 35.5t46.5 89.5q7 45 -15.5 79.5t-68.5 35.5q-37 2 -67 -15t-58 -41l2 3l-5 -5l94 225h193l-3 -18h-177l-70 -166
q20 16 45.5 26t53.5 9q35 0 58 -19t33 -49t5 -65zM740 417l25 -1l-165 -186q19 15 42 25t49 9q35 0 58.5 -19.5t34.5 -50t6 -63.5q-5 -38 -27 -70t-54.5 -50.5t-72.5 -18.5q-39 1 -65.5 20.5t-37.5 51t-6 68.5q5 26 18 50t29 42zM546 132q-7 -47 16 -83.5t74 -37.5
q34 0 63 16.5t48 44t24 60.5q7 44 -17 79.5t-70 36.5q-35 1 -64.5 -15.5t-48.5 -43t-25 -57.5z" />
    <glyph glyph-name="oneeighth" unicode="&#x215b;" horiz-adv-x="737" 
d="M679 699h28l-660 -699h-28zM107 650l3 21l122 27l-74 -424h-20l68 399zM449 112q6 41 38 72t72 39q-31 10 -48.5 38t-12.5 63q5 27 22.5 50.5t43.5 37.5t55 14q44 0 69.5 -31.5t19.5 -71.5q-5 -36 -32.5 -64t-62.5 -37q36 -10 56.5 -40.5t14.5 -70.5q-4 -32 -23.5 -59
t-49 -42.5t-64.5 -15.5q-52 1 -78.5 36.5t-19.5 81.5zM516 322q-5 -34 16.5 -61.5t53.5 -28.5q22 0 44 12.5t38.5 33t19.5 43.5q5 34 -14 60t-56 27t-67 -25t-35 -61zM468 114q-7 -40 15 -70.5t65 -31.5q44 -1 78 29t40 73q5 39 -18.5 68.5t-62.5 30.5q-26 1 -51.5 -13
t-43 -36.5t-22.5 -49.5z" />
    <glyph glyph-name="threeeighths" unicode="&#x215c;" horiz-adv-x="821" 
d="M179 274q-58 0 -84.5 34.5t-22.5 82.5h19q-2 -41 19 -69t70 -29q45 -1 79.5 27t41.5 69q5 33 -10 54t-41 32.5t-53 13.5l2 14v0l1 5q28 3 54.5 13t46.5 29.5t25 47.5q6 34 -13.5 61t-59.5 28q-43 1 -71 -26t-39 -64h-19q11 45 44.5 77.5t85.5 31.5q50 -1 74.5 -34
t16.5 -74q-8 -42 -41.5 -66.5t-75.5 -32.5q41 -9 71 -36.5t22 -76.5q-7 -49 -48 -80.5t-94 -31.5zM763 699h29l-660 -699h-29zM533 112q6 41 38 71.5t72 39.5q-31 10 -48.5 38t-12.5 63q5 27 22.5 50.5t44 37.5t55.5 14q44 0 69 -31.5t19 -71.5q-5 -36 -32 -64t-62 -37
q36 -9 56.5 -40t14.5 -71q-4 -32 -23.5 -59t-49 -42.5t-64.5 -15.5q-52 1 -79 36.5t-20 81.5zM601 322q-5 -34 16 -61.5t53 -28.5q22 0 44.5 12.5t39 33t19.5 43.5q5 34 -14 60t-56 27t-67 -25t-35 -61zM553 114q-7 -40 15 -70.5t65 -31.5q44 -1 77.5 29t39.5 73
q5 39 -18 68.5t-62 30.5q-26 1 -51.5 -13t-43 -36.5t-22.5 -49.5z" />
    <glyph glyph-name="fiveeighths" unicode="&#x215d;" horiz-adv-x="855" 
d="M797 699h29l-660 -699h-29zM340 416q-6 -42 -29 -74.5t-56.5 -51t-73.5 -18.5q-47 0 -74 24.5t-41 63.5l18 11q12 -34 35 -57t63 -23q53 0 91.5 35.5t46.5 89.5q7 45 -15.5 79.5t-68.5 35.5q-37 2 -67 -15t-58 -41l2 3l-5 -5l94 225h193l-3 -18h-177l-70 -166
q20 16 45.5 26t53.5 9q35 0 58 -19t33 -49t5 -65zM567 112q6 41 38 72t72 39q-31 10 -48.5 38t-12.5 63q5 27 22.5 50.5t44 37.5t55.5 14q44 0 69 -31.5t19 -71.5q-5 -36 -32 -64t-63 -37q36 -9 57 -40t15 -71q-4 -32 -23.5 -59t-49 -42.5t-64.5 -15.5q-52 1 -79 36.5
t-20 81.5zM635 322q-5 -34 16 -61.5t53 -28.5q22 0 44.5 12.5t39 33t19.5 43.5q5 34 -14 60t-56 27t-67 -25t-35 -61zM587 114q-7 -40 15 -70.5t65 -31.5q44 -1 77.5 29t39.5 73q5 39 -18.5 68.5t-62.5 30.5q-26 1 -51 -13t-42.5 -36.5t-22.5 -49.5z" />
    <glyph glyph-name="seveneighths" unicode="&#x215e;" horiz-adv-x="749" 
d="M122 681l2 19h279l-282 -419h-21l269 400h-247zM690 699h29l-660 -699h-29zM461 112q6 41 37.5 71.5t71.5 39.5q-31 10 -48.5 38t-12.5 63q5 27 22.5 50.5t44 37.5t55.5 14q44 0 69 -31.5t19 -71.5q-5 -36 -32 -64t-62 -37q36 -9 56.5 -40t14.5 -71q-4 -32 -23.5 -59
t-49 -42.5t-64.5 -15.5q-52 1 -78.5 36.5t-19.5 81.5zM528 322q-5 -34 16.5 -61.5t53.5 -28.5q22 0 44 12.5t38.5 33t19.5 43.5q5 34 -14 60t-56 27t-67 -25t-35 -61zM480 114q-7 -40 15 -70.5t65 -31.5q44 -1 77.5 29t39.5 73q5 39 -18 68.5t-62 30.5q-26 1 -51.5 -13
t-43 -36.5t-22.5 -49.5z" />
    <glyph glyph-name="minus" unicode="&#x2212;" horiz-adv-x="572" 
d="M83 245l5 30h437l-5 -30h-437z" />
    <glyph glyph-name="uni2219" unicode="&#x2219;" horiz-adv-x="263" 
d="M156 439q1 9 10 16.5t18 7.5q10 0 15.5 -7.5t4.5 -17.5q-1 -9 -10 -16.5t-18 -7.5q-10 0 -15.5 7.5t-4.5 17.5z" />
    <glyph glyph-name="uniFF10" unicode="&#xff10;" horiz-adv-x="541" 
d="M78 350q9 65 32.5 129t59.5 116.5t85 83.5t109 31q61 0 97 -34t53 -88t19.5 -116.5t-4.5 -121.5q-9 -65 -32 -129t-59.5 -116.5t-85 -83.5t-108.5 -31q-61 0 -97 34t-53.5 88t-20 117t4.5 121zM112 350q-6 -51 -5.5 -107.5t13 -106.5t43 -82t83.5 -32t95.5 29t74 77.5
t52 106.5t28.5 115q6 51 5.5 107.5t-13 106.5t-43 82t-83.5 32t-95.5 -29t-74 -77.5t-52 -106.5t-28.5 -115z" />
    <glyph glyph-name="uniFF11" unicode="&#xff11;" horiz-adv-x="541" 
d="M224 626l7 35l201 46l-122 -707h-32l114 665z" />
    <glyph glyph-name="uniFF12" unicode="&#xff12;" horiz-adv-x="541" 
d="M9 0l371 340q40 37 73.5 78.5t43.5 96.5q7 38 -4 75.5t-41.5 63t-82.5 25.5q-59 1 -104 -30t-73.5 -81t-40.5 -108l-32 1q13 67 46 123.5t85.5 91.5t120.5 34q63 0 100.5 -30.5t52 -75.5t6.5 -91q-10 -59 -46 -105.5t-79 -85.5l-321 -290l384 -1l-5 -31h-454z" />
    <glyph glyph-name="uniFF13" unicode="&#xff13;" horiz-adv-x="541" 
d="M249 -10q-63 0 -105 26.5t-61 70.5t-13 98h33q-7 -69 30 -116t118 -47q51 0 94 20.5t71.5 56.5t35.5 82q9 55 -16 91t-67.5 55t-88.5 22l1 8v0l3 23q46 3 90.5 20.5t77 49.5t40.5 79q7 38 -5 72t-41 56t-75 22q-48 1 -85 -20t-61.5 -55.5t-35.5 -76.5h-32q12 51 41 92.5
t73.5 66.5t101.5 24q55 0 92 -26t53 -67t8 -87t-35.5 -79.5t-67.5 -55.5t-86 -31q45 -10 81.5 -33.5t55.5 -61.5t11 -91q-9 -55 -42.5 -97.5t-83.5 -66.5t-110 -24z" />
    <glyph glyph-name="uniFF14" unicode="&#xff14;" horiz-adv-x="541" 
d="M508 140h-106l-24 -140h-33l25 140h-353l469 559l13 1l-92 -530h107zM451 616l-374 -447l298 1z" />
    <glyph glyph-name="uniFF15" unicode="&#xff15;" horiz-adv-x="541" 
d="M498 230q-10 -71 -47.5 -125.5t-94 -84.5t-123.5 -30q-79 0 -124.5 41t-66.5 106l30 18q18 -58 57 -95.5t106 -37.5q59 0 107 27t80.5 74t41.5 107q8 50 -6.5 93t-48 70t-85.5 28q-61 1 -111.5 -25t-95.5 -67l-3 -3l154 374h322l-5 -30h-296l-115 -277q32 27 74.5 43.5
t88.5 15.5q59 0 97.5 -31.5t55 -82t8.5 -108.5z" />
    <glyph glyph-name="uniFF16" unicode="&#xff16;" horiz-adv-x="541" 
d="M417 699h42l-269 -308q30 24 66.5 38.5t78.5 13.5q58 -1 98 -33t57.5 -82t9.5 -105q-9 -64 -44.5 -117t-90 -84.5t-121.5 -31.5q-66 0 -109.5 32.5t-61.5 85.5t-9 115q8 44 29.5 84t47.5 71zM96 223q-8 -52 6.5 -98t51 -74.5t92.5 -29.5q57 0 104.5 27.5t79 73.5
t39.5 101q8 49 -7.5 93t-50.5 72.5t-87 28.5q-59 1 -107.5 -26.5t-80 -71.5t-40.5 -96z" />
    <glyph glyph-name="uniFF17" unicode="&#xff17;" horiz-adv-x="541" 
d="M139 669l5 31h464l-470 -700h-34l448 668z" />
    <glyph glyph-name="uniFF18" unicode="&#xff18;" horiz-adv-x="541" 
d="M81 187q7 46 33 84.5t64.5 64.5t82.5 36q-51 16 -79.5 62t-19.5 104q8 46 37 85t72 63t93 24t85 -25t51.5 -64.5t9.5 -83.5q-9 -61 -53.5 -106.5t-102.5 -59.5q60 -16 93 -67t24 -118q-8 -53 -39.5 -98t-79.5 -71.5t-108 -26.5q-59 0 -98 28t-56 72.5t-9 96.5zM192 535
q-5 -38 9.5 -72t43 -55t64.5 -22q37 0 73.5 20.5t63.5 54.5t33 74q6 37 -6.5 70t-40.5 54t-70 21q-42 1 -78.5 -19.5t-60.5 -53.5t-31 -72zM112 190q-7 -45 6.5 -83.5t46 -62t81.5 -24.5q50 0 91.5 22.5t69 61.5t34.5 86q7 44 -9.5 81t-49 60.5t-76.5 23.5
q-44 1 -85.5 -21.5t-71 -60t-37.5 -83.5z" />
    <glyph glyph-name="uniFF19" unicode="&#xff19;" horiz-adv-x="541" 
d="M190 0h-41l269 309q-30 -24 -66.5 -38.5t-78.5 -13.5q-58 1 -97.5 33t-57.5 82t-10 105q10 65 45 117.5t89.5 84t121.5 31.5t110 -32.5t61 -85.5t9 -115q-7 -43 -29 -83.5t-48 -71.5zM512 477q8 52 -6.5 98t-50.5 75t-93 29q-57 1 -104.5 -27t-78.5 -74t-40 -101
q-7 -49 8 -93t50.5 -72t86.5 -29q60 0 108 27t79.5 71.5t40.5 95.5z" />
    <glyph glyph-name="abreve.alt" horiz-adv-x="436" 
d="M159 677h28q-2 -28 8 -54t34 -42.5t63 -16.5q40 0 69.5 16.5t48.5 42t28 53.5h28q-10 -36 -33 -67.5t-59 -51.5t-85 -20q-48 0 -78 20t-42.5 52t-9.5 68zM128 382l-13 25q32 23 73.5 43.5t93.5 19.5q68 -1 97 -43t21 -104l-55 -323h-32l18 99q-24 -47 -68.5 -78
t-104.5 -31q-61 0 -99 38t-28 104q8 48 38.5 81.5t75 51t91.5 17.5q43 0 71.5 -12t48.5 -28l14 81q5 50 -15.5 83.5t-74.5 34.5q-46 1 -84 -18t-68 -41zM63 135q-8 -55 22.5 -85.5t81.5 -30.5q65 0 111 39.5t62 97.5l12 64q-23 16 -51.5 26t-65.5 10q-40 0 -77 -14
t-62.5 -41t-32.5 -66z" />
    <glyph glyph-name="amacron.alt" horiz-adv-x="436" 
d="M128 550l4 30h341l-5 -30h-340zM128 382l-13 25q32 23 73.5 43.5t93.5 19.5q68 -1 97 -43t21 -104l-55 -323h-32l18 99q-24 -47 -68.5 -78t-104.5 -31q-61 0 -99 38t-28 104q8 48 38.5 81.5t75 51t91.5 17.5q43 0 71.5 -12t48.5 -28l14 81q5 50 -15.5 83.5t-74.5 34.5
q-46 1 -84 -18t-68 -41zM63 135q-8 -55 22.5 -85.5t81.5 -30.5q65 0 111 39.5t62 97.5l12 64q-23 16 -51.5 26t-65.5 10q-40 0 -77 -14t-62.5 -41t-32.5 -66z" />
    <glyph glyph-name="acircumflex.alt" horiz-adv-x="436" 
d="M317 659l-157 -121l-18 17l179 139l133 -140l-22 -17zM128 382l-13 25q32 23 73.5 43.5t93.5 19.5q68 -1 97 -43t21 -104l-55 -323h-32l18 99q-24 -47 -68.5 -78t-104.5 -31q-61 0 -99 38t-28 104q8 48 38.5 81.5t75 51t91.5 17.5q43 0 71.5 -12t48.5 -28l14 81
q5 50 -15.5 83.5t-74.5 34.5q-46 1 -84 -18t-68 -41zM63 135q-8 -55 22.5 -85.5t81.5 -30.5q65 0 111 39.5t62 97.5l12 64q-23 16 -51.5 26t-65.5 10q-40 0 -77 -14t-62.5 -41t-32.5 -66z" />
    <glyph glyph-name="adieresis.alt" horiz-adv-x="436" 
d="M353 569q1 9 10 16.5t18 7.5q10 0 15.5 -7.5t4.5 -17.5q-1 -9 -9.5 -16.5t-17.5 -7.5q-10 0 -16 7.5t-5 17.5zM186 569q1 9 10 16.5t18 7.5q10 0 15.5 -7.5t4.5 -17.5q-1 -9 -10 -16.5t-18 -7.5q-10 0 -15.5 7.5t-4.5 17.5zM128 382l-13 25q32 23 73.5 43.5t93.5 19.5
q68 -1 97 -43t21 -104l-55 -323h-32l18 99q-24 -47 -68.5 -78t-104.5 -31q-61 0 -99 38t-28 104q8 48 38.5 81.5t75 51t91.5 17.5q43 0 71.5 -12t48.5 -28l14 81q5 50 -15.5 83.5t-74.5 34.5q-46 1 -84 -18t-68 -41zM63 135q-8 -55 22.5 -85.5t81.5 -30.5q65 0 111 39.5
t62 97.5l12 64q-23 16 -51.5 26t-65.5 10q-40 0 -77 -14t-62.5 -41t-32.5 -66z" />
    <glyph glyph-name="aring.alt" horiz-adv-x="436" 
d="M211 631q4 28 21.5 50t43 35.5t51.5 13.5q40 0 65 -30t19 -71q-4 -27 -21.5 -49.5t-42.5 -36t-52 -13.5q-40 0 -65 30.5t-19 70.5zM234 630q-4 -31 13.5 -54t48.5 -24q21 0 41 10.5t34 28.5t17 39q5 31 -13.5 54t-49.5 24t-58.5 -22.5t-32.5 -55.5zM128 382l-13 25
q32 23 73.5 43.5t93.5 19.5q68 -1 97 -43t21 -104l-55 -323h-32l18 99q-24 -47 -68.5 -78t-104.5 -31q-61 0 -99 38t-28 104q8 48 38.5 81.5t75 51t91.5 17.5q43 0 71.5 -12t48.5 -28l14 81q5 50 -15.5 83.5t-74.5 34.5q-46 1 -84 -18t-68 -41zM63 135q-8 -55 22.5 -85.5
t81.5 -30.5q65 0 111 39.5t62 97.5l12 64q-23 16 -51.5 26t-65.5 10q-40 0 -77 -14t-62.5 -41t-32.5 -66z" />
    <glyph glyph-name="atilde.alt" horiz-adv-x="436" 
d="M161 578q10 24 30.5 44t52.5 20q25 0 41 -11.5t32.5 -23t39.5 -11.5q20 1 35 14.5t28 32.5l18 -16q-15 -23 -36.5 -41t-49.5 -17q-23 0 -39.5 11.5t-32 23t-36.5 11.5q-28 0 -42 -16.5t-21 -33.5zM128 382l-13 25q32 23 73.5 43.5t93.5 19.5q68 -1 97 -43t21 -104
l-55 -323h-32l18 99q-24 -47 -68.5 -78t-104.5 -31q-61 0 -99 38t-28 104q8 48 38.5 81.5t75 51t91.5 17.5q43 0 71.5 -12t48.5 -28l14 81q5 50 -15.5 83.5t-74.5 34.5q-46 1 -84 -18t-68 -41zM63 135q-8 -55 22.5 -85.5t81.5 -30.5q65 0 111 39.5t62 97.5l12 64
q-23 16 -51.5 26t-65.5 10q-40 0 -77 -14t-62.5 -41t-32.5 -66z" />
    <glyph glyph-name="agrave.alt" horiz-adv-x="436" 
d="M184 699l30 17l133 -160l-19 -12zM128 382l-13 25q32 23 73.5 43.5t93.5 19.5q68 -1 97 -43t21 -104l-55 -323h-32l18 99q-24 -47 -68.5 -78t-104.5 -31q-61 0 -99 38t-28 104q8 48 38.5 81.5t75 51t91.5 17.5q43 0 71.5 -12t48.5 -28l14 81q5 50 -15.5 83.5t-74.5 34.5
q-46 1 -84 -18t-68 -41zM63 135q-8 -55 22.5 -85.5t81.5 -30.5q65 0 111 39.5t62 97.5l12 64q-23 16 -51.5 26t-65.5 10q-40 0 -77 -14t-62.5 -41t-32.5 -66z" />
    <glyph glyph-name="a.alt" horiz-adv-x="436" 
d="M129 382l-13 25q32 23 73.5 43.5t93.5 19.5q68 -1 97.5 -43t20.5 -104l-55 -323h-32l18 99q-24 -47 -68.5 -78t-104.5 -31q-40 0 -71.5 17.5t-46.5 50.5t-9 77q8 47 38 80t74.5 50t92.5 17q43 0 71.5 -12t48.5 -28l14 81q7 49 -14.5 83t-75.5 35q-46 1 -84 -18t-68 -41z
M64 135q-8 -55 23.5 -85.5t80.5 -30.5q65 -1 111 39.5t63 97.5l11 64q-23 16 -51.5 26t-65.5 10q-40 0 -77 -14t-62.5 -40.5t-32.5 -66.5z" />
    <glyph glyph-name="aogonek.alt" horiz-adv-x="436" 
d="M343 -160l11 -21q-17 -15 -42.5 -27t-55.5 -12q-46 0 -72.5 23.5t-20.5 63.5q5 33 29 58.5t57 45t66 35.5l17 93q-24 -47 -68.5 -78t-104.5 -31q-40 0 -71.5 17.5t-46.5 50.5t-9 77q8 47 38 80t74.5 50t92.5 17q43 0 71.5 -12t48.5 -28l14 81q5 50 -15.5 83.5t-74.5 34.5
q-46 1 -84 -18t-68 -41l-13 25q32 23 73.5 43.5t93.5 19.5q68 -1 97 -43t21 -104l-55 -323q-29 -14 -62.5 -32.5t-58.5 -42t-30 -53.5q-4 -30 16 -46t50 -17q25 -1 46 9.5t36 21.5zM64 135q-8 -55 23.5 -85.5t80.5 -30.5q65 -1 111 39.5t63 97.5l11 64q-23 16 -51.5 26
t-65.5 10q-40 0 -77 -14t-62.5 -40.5t-32.5 -66.5z" />
    <glyph glyph-name="aacute.alt" horiz-adv-x="436" 
d="M448 697l-196 -152l-16 13l187 158zM128 382l-13 25q32 23 73.5 43.5t93.5 19.5q68 -1 97 -43t21 -104l-55 -323h-32l18 99q-24 -47 -68.5 -78t-104.5 -31q-61 0 -99 38t-28 104q8 48 38.5 81.5t75 51t91.5 17.5q43 0 71.5 -12t48.5 -28l14 81q5 50 -15.5 83.5
t-74.5 34.5q-46 1 -84 -18t-68 -41zM63 135q-8 -55 22.5 -85.5t81.5 -30.5q65 0 111 39.5t62 97.5l12 64q-23 16 -51.5 26t-65.5 10q-40 0 -77 -14t-62.5 -41t-32.5 -66z" />
    </font>
</defs>
</svg>
